<?xml version="1.0" standalone="no"?>
<!DOCTYPE svg PUBLIC "-//W3C//DTD SVG 20010904//EN"
 "http://www.w3.org/TR/2001/REC-SVG-20010904/DTD/svg10.dtd">
<svg version="1.0" xmlns="http://www.w3.org/2000/svg"
 width="942.000000pt" height="942.000000pt" viewBox="0 0 942.000000 942.000000"
 preserveAspectRatio="xMidYMid meet">
<metadata>
Created by potrace 1.14, written by Peter Selinger 2001-2017
</metadata>
<g transform="translate(0.000000,942.000000) scale(0.100000,-0.100000)"
fill="#000000" stroke="none">
<path d="M2825 9409 c-22 -5 -58 -14 -80 -21 -22 -6 -46 -13 -53 -14 -29 -5
-145 -65 -203 -105 -127 -86 -245 -230 -303 -369 -15 -36 -28 -72 -30 -80 -2
-8 -6 -22 -9 -30 -5 -14 -45 -147 -107 -360 -16 -52 -47 -156 -70 -230 -23
-74 -43 -139 -44 -145 -2 -5 -9 -31 -15 -57 -10 -35 -19 -49 -39 -57 -24 -9
-260 -79 -287 -86 -5 -1 -17 -5 -25 -8 -8 -3 -31 -10 -50 -16 -32 -9 -182 -53
-440 -131 -225 -67 -284 -92 -390 -163 -63 -43 -173 -156 -213 -219 -46 -72
-88 -148 -82 -148 3 0 -1 -13 -10 -30 -9 -16 -13 -30 -10 -30 3 0 1 -9 -5 -21
-7 -11 -13 -30 -16 -42 -2 -12 -7 -33 -10 -47 -10 -43 -13 -233 -4 -285 15
-84 38 -166 123 -437 8 -27 13 -48 11 -48 -3 0 0 -9 6 -19 5 -11 16 -43 24
-73 8 -29 29 -98 46 -153 17 -55 33 -108 35 -117 2 -9 18 -63 35 -120 76 -246
91 -294 94 -313 3 -11 13 -47 24 -80 11 -33 27 -86 37 -117 9 -32 19 -58 22
-58 4 0 86 56 226 157 l72 52 11 -32 c9 -25 8 -42 -3 -77 -33 -106 -40 -150
-24 -150 23 0 121 -81 121 -100 0 -10 5 -22 10 -25 6 -4 8 -10 5 -15 -3 -5 -1
-11 5 -15 6 -4 8 -10 5 -15 -3 -5 -1 -11 5 -15 6 -4 8 -10 5 -15 -3 -4 2 -27
11 -51 9 -24 17 -51 19 -59 1 -8 5 -22 8 -30 11 -29 24 -110 18 -105 -4 2 -13
-18 -20 -45 -7 -28 -17 -52 -22 -56 -5 -3 -4 -14 2 -26 8 -15 8 -19 0 -14 -10
7 -15 -8 -14 -41 1 -7 -3 -13 -7 -13 -4 0 -11 -12 -16 -27 -4 -16 -8 -30 -9
-33 -1 -3 -5 -18 -10 -35 -8 -30 -22 -46 -65 -75 -12 -8 -28 -21 -36 -28 -7
-6 -18 -12 -24 -12 -6 0 -8 -5 -5 -11 4 -5 9 -25 12 -42 3 -18 10 -38 15 -44
6 -7 8 -13 4 -13 -3 0 -1 -11 4 -25 7 -19 5 -36 -6 -65 l-16 -40 -27 21 c-87
68 -252 182 -255 177 -5 -6 -38 -93 -37 -98 1 -3 -3 -18 -8 -35 -52 -170 -64
-210 -66 -219 -1 -6 -5 -18 -8 -26 -5 -12 -24 -79 -32 -110 -1 -5 -38 -126
-86 -282 -17 -53 -32 -105 -34 -115 -5 -23 -95 -323 -102 -343 -3 -8 -7 -20
-8 -25 -2 -6 -17 -55 -34 -110 -17 -55 -35 -127 -40 -160 -10 -63 -7 -245 4
-305 18 -92 99 -274 151 -341 40 -50 151 -157 194 -185 25 -17 74 -45 110 -63
36 -18 73 -37 83 -42 10 -5 22 -7 27 -4 6 4 10 2 10 -3 0 -5 6 -9 13 -9 12 -1
178 -49 207 -60 8 -3 20 -7 25 -8 6 -2 37 -11 70 -21 33 -10 65 -19 70 -20 48
-13 355 -107 370 -114 11 -5 31 -11 45 -13 14 -3 61 -16 104 -29 91 -28 72 3
147 -248 22 -74 53 -178 69 -230 60 -198 92 -307 112 -375 11 -38 34 -99 51
-135 16 -36 30 -68 29 -72 -1 -3 5 -12 13 -18 8 -7 15 -19 15 -26 0 -8 5 -14
10 -14 6 0 10 -5 10 -10 0 -33 169 -192 264 -248 44 -26 82 -47 85 -48 3 0 20
-6 36 -13 102 -45 190 -60 330 -56 123 3 160 8 230 30 62 19 153 46 167 49 7
2 20 6 28 9 19 7 162 51 175 53 6 1 12 3 15 4 3 1 12 3 20 5 8 2 41 13 73 24
31 11 57 17 57 13 0 -3 5 -1 12 6 7 7 20 12 29 12 9 0 57 13 106 29 95 32 226
71 246 75 14 3 181 53 217 66 14 4 52 16 85 25 33 10 76 23 96 31 20 7 39 10
43 7 3 -4 6 -1 6 6 0 6 -19 20 -42 30 -24 10 -77 34 -118 53 -41 20 -97 46
-125 58 -27 13 -84 39 -125 58 -41 20 -77 36 -80 37 -3 1 -19 8 -36 16 -32 15
-36 40 -5 32 11 -3 30 1 42 8 58 31 152 31 232 0 15 -6 38 -13 50 -16 12 -2
90 -25 172 -50 83 -26 157 -48 165 -50 8 -2 53 -16 100 -30 47 -14 92 -28 100
-30 8 -2 92 -27 185 -55 94 -29 175 -53 180 -54 6 -1 16 -5 23 -9 6 -5 12 -5
12 -1 0 3 7 1 15 -6 8 -7 15 -10 15 -6 0 3 12 1 28 -5 23 -9 96 -32 372 -114
132 -39 186 -56 200 -61 8 -4 22 -8 30 -9 8 -1 62 -17 120 -34 58 -18 143 -44
190 -58 47 -13 137 -41 200 -60 63 -19 131 -39 150 -45 19 -5 55 -16 79 -24
24 -8 46 -12 49 -9 6 6 9 3 -53 45 -27 19 -54 38 -60 42 -12 10 -274 195 -499
353 -218 152 -229 162 -211 169 9 3 14 2 11 -3 -6 -9 30 -23 66 -26 10 -1 24
-8 33 -15 8 -7 15 -10 15 -6 0 3 17 -1 38 -9 20 -8 46 -15 57 -17 11 -2 23 -6
26 -10 3 -5 17 -9 32 -10 15 -1 27 -6 27 -10 0 -4 10 -8 23 -8 13 0 27 -3 31
-7 3 -4 12 -8 19 -9 32 -7 54 -13 78 -22 15 -6 30 -8 33 -5 3 4 6 0 6 -7 0 -7
3 -11 6 -7 4 3 23 0 43 -8 20 -8 72 -18 116 -22 84 -8 225 3 225 18 0 4 6 6
14 3 22 -9 184 64 245 110 77 58 175 159 164 170 -4 3 -1 6 5 6 20 0 112 201
127 278 2 11 8 29 13 39 6 10 10 20 10 23 1 3 3 12 5 20 26 83 40 128 42 143
2 9 7 22 10 27 3 5 8 20 11 32 6 28 9 39 17 58 17 46 28 91 23 99 -4 5 0 13 7
18 12 7 38 80 38 108 1 6 5 16 11 22 6 7 7 13 3 13 -4 0 -2 7 5 15 7 8 10 15
6 15 -4 0 0 13 9 30 8 16 16 40 17 54 1 13 5 23 9 20 4 -2 10 3 13 12 3 8 10
13 15 9 6 -3 14 3 20 12 6 10 11 13 11 7 0 -10 124 20 218 51 7 3 16 5 20 6
42 9 109 34 114 43 6 8 8 7 8 -2 0 -9 5 -9 18 -3 9 6 31 13 47 17 17 4 32 8
35 9 3 1 20 6 37 10 18 4 31 11 28 14 -2 4 9 6 26 5 16 -1 29 3 29 9 0 6 3 8
6 4 3 -3 18 -1 33 5 14 5 33 11 41 13 61 12 100 27 94 36 -4 7 0 7 14 0 15 -8
24 -8 34 2 7 6 26 13 43 15 16 2 50 13 75 25 25 11 47 21 50 22 20 3 88 50 83
58 -3 6 -1 7 5 3 20 -12 133 97 187 179 41 63 85 159 85 185 0 11 4 20 9 20 5
0 8 8 6 18 -1 9 0 22 4 27 10 17 12 37 15 143 2 56 0 105 -5 108 -5 3 -7 9 -4
13 4 7 -17 94 -56 231 -6 19 -11 41 -11 48 -1 6 -5 12 -10 12 -4 0 -7 10 -7
22 0 13 -11 61 -26 108 -14 47 -28 93 -30 104 -2 10 -10 25 -17 34 -7 9 -8 13
-2 9 6 -4 3 18 -7 50 -11 31 -19 64 -19 74 0 10 -5 21 -11 24 -6 4 -8 13 -5
21 3 8 1 14 -4 14 -5 0 -7 6 -4 14 3 8 1 17 -5 21 -6 3 -11 16 -11 29 0 12 -5
27 -12 34 -7 7 -9 12 -5 12 3 0 0 18 -8 40 -8 22 -14 43 -14 45 2 15 -25 103
-30 101 -3 -2 -7 12 -8 31 -1 20 -7 41 -12 46 -6 6 -11 21 -11 34 0 12 -4 32
-9 45 -9 23 -35 107 -37 121 -1 4 -3 8 -4 10 -1 1 -4 11 -6 22 -8 46 -28 115
-34 115 -3 0 -7 15 -8 32 -2 18 -7 37 -12 42 -6 6 -10 22 -10 36 0 15 -3 30
-7 34 -5 4 -8 11 -9 14 -4 38 -18 82 -26 82 -5 0 -6 5 -3 10 3 6 3 16 -2 23
-10 16 -13 69 -4 82 8 11 33 90 36 115 1 8 7 27 13 41 6 15 12 35 14 45 2 11
6 21 10 24 4 3 9 19 12 35 2 17 5 32 6 35 1 3 2 9 1 14 -1 5 3 12 9 16 6 4 12
23 13 42 1 20 5 34 9 32 9 -6 21 34 13 46 -3 5 -2 10 3 10 5 0 13 15 17 33 8
35 11 44 15 52 1 3 3 8 4 13 1 4 4 12 7 17 4 6 10 26 14 45 4 19 12 41 17 48
6 6 8 12 5 12 -3 0 1 16 9 35 8 19 11 35 8 35 -4 0 -1 7 6 15 7 8 9 15 5 15
-4 0 -3 6 3 13 5 6 13 28 18 47 10 44 9 42 19 64 4 10 8 31 9 46 1 15 4 26 9
23 4 -2 8 1 8 6 2 14 4 22 12 41 8 23 29 90 31 103 1 7 5 18 9 25 5 6 5 12 1
12 -3 0 1 12 11 26 11 18 12 24 4 18 -11 -6 -12 -5 -2 8 7 8 10 18 6 21 -3 4
-1 7 6 7 6 0 11 6 10 13 -1 6 3 26 10 42 7 17 14 35 15 40 2 8 23 78 41 135 1
3 4 12 7 20 8 21 39 122 43 140 2 8 9 31 15 50 19 61 24 103 24 195 0 94 -4
153 -13 170 -3 6 -7 16 -8 23 -15 68 -73 189 -118 246 -37 49 -101 116 -109
116 -3 0 -20 14 -38 30 -17 17 -37 30 -44 30 -8 0 -14 5 -14 11 0 5 -4 7 -10
4 -5 -3 -10 -1 -10 5 0 6 -4 8 -10 5 -5 -3 -10 -1 -10 4 0 6 -6 11 -13 11 -8
0 -28 7 -46 16 -17 9 -37 17 -44 18 -7 2 -19 6 -27 9 -41 16 -150 44 -150 39
0 -4 -4 -1 -9 6 -5 8 -20 15 -35 15 -14 1 -26 5 -26 10 0 4 -7 7 -15 7 -9 0
-56 14 -107 31 -50 17 -96 32 -102 33 -17 3 -59 16 -81 26 -18 7 -162 53 -175
55 -3 0 -22 7 -42 14 -21 7 -43 9 -49 5 -7 -4 -9 -3 -6 3 4 6 -11 15 -36 21
-34 9 -45 18 -58 46 -9 20 -13 34 -10 31 4 -2 -4 29 -17 68 -13 40 -24 80 -25
90 -1 9 -5 17 -10 17 -4 0 -5 5 -2 10 3 6 3 16 -2 23 -4 6 -9 21 -10 32 -2 11
-8 31 -13 45 -5 14 -12 37 -14 52 -3 15 -7 32 -11 38 -3 5 -8 18 -10 27 -4 24
-35 134 -42 153 -8 19 -13 40 -15 63 -1 9 -5 17 -8 17 -3 0 -7 12 -8 26 -1 14
-5 31 -9 37 -4 7 -8 17 -9 23 -5 31 -48 154 -54 154 -4 0 -7 6 -7 14 0 22 -87
147 -139 199 -96 97 -257 185 -349 191 -11 0 -23 5 -26 10 -4 5 -47 9 -95 9
-149 1 -253 -19 -238 -45 6 -9 3 -9 -9 0 -19 16 -61 7 -50 -11 4 -7 -1 -6 -10
2 -11 9 -17 10 -17 2 0 -6 -3 -10 -7 -9 -15 5 -123 -25 -123 -34 0 -5 -4 -7
-9 -4 -12 8 -122 -25 -116 -34 3 -5 -3 -6 -13 -3 -10 2 -31 -1 -47 -8 -17 -7
-40 -12 -53 -13 -12 -1 -27 -8 -32 -16 -6 -8 -10 -10 -10 -3 0 8 -7 8 -29 0
-17 -6 -28 -13 -26 -17 2 -3 -9 -5 -23 -6 -36 -1 -122 -26 -117 -35 3 -3 -7
-5 -20 -3 -14 1 -27 -2 -30 -6 -3 -5 -14 -7 -25 -5 -11 2 -20 0 -20 -4 0 -4
-6 -8 -12 -8 -20 -1 -112 -27 -118 -33 -3 -3 -12 -5 -20 -5 -8 1 -21 -3 -27
-8 -7 -5 -13 -6 -13 -2 0 4 -7 2 -15 -5 -8 -7 -15 -8 -15 -3 0 6 32 32 71 59
39 27 81 56 92 64 170 120 518 365 536 378 13 9 98 69 190 133 91 64 174 124
184 133 9 9 19 16 22 16 6 0 105 69 120 83 6 6 -1 7 -20 2 -16 -4 -37 -9 -45
-10 -8 -2 -15 -4 -15 -5 0 -1 -7 -3 -15 -6 -34 -9 -245 -73 -245 -74 0 -1 -7
-3 -15 -5 -8 -2 -85 -24 -170 -50 -85 -26 -220 -66 -300 -90 -258 -77 -483
-145 -555 -167 -38 -12 -72 -22 -75 -23 -11 -2 -132 -38 -235 -70 -60 -19
-148 -45 -195 -59 -47 -13 -184 -54 -305 -91 -121 -37 -228 -69 -238 -70 -9
-2 -22 -7 -27 -10 -5 -3 -18 -8 -28 -10 -11 -2 -49 -12 -85 -24 -62 -19 -70
-19 -109 -5 -23 8 -52 15 -65 16 -13 2 -23 6 -23 10 0 4 -10 8 -22 8 -23 1
-23 1 2 15 14 8 33 14 42 15 9 0 18 3 20 8 3 8 250 122 263 122 5 0 16 6 24
13 9 8 34 21 56 30 22 8 75 32 117 52 62 30 75 39 65 50 -7 7 -14 12 -15 10
-4 -3 -92 20 -122 32 -8 3 -19 7 -25 8 -5 2 -30 9 -55 16 -25 7 -48 13 -52 15
-5 1 -10 3 -13 4 -3 1 -8 3 -12 4 -5 2 -28 8 -53 16 -25 7 -49 15 -55 16 -5 2
-35 10 -65 19 -30 9 -59 17 -65 18 -5 2 -14 5 -20 8 -5 4 -35 12 -65 19 -30 7
-63 17 -72 21 -9 5 -40 15 -70 23 -29 8 -84 24 -123 36 -38 12 -77 23 -85 25
-8 2 -15 4 -15 5 0 1 -7 3 -15 5 -8 2 -91 26 -185 55 -172 52 -190 57 -234 66
-14 3 -29 8 -34 11 -16 10 -259 11 -302 2z m4223 -734 c-3 -3 -9 2 -12 12 -6
14 -5 15 5 6 7 -7 10 -15 7 -18z m-848 -49 c0 -2 -8 -10 -17 -17 -16 -13 -17
-12 -4 4 13 16 21 21 21 13z m375 -86 c3 -6 -1 -7 -9 -4 -18 7 -21 14 -7 14 6
0 13 -4 16 -10z m-165 -56 c0 -8 -19 -13 -24 -6 -3 5 1 9 9 9 8 0 15 -2 15 -3z
m-569 -37 c-10 -9 -11 -8 -5 6 3 10 9 15 12 12 3 -3 0 -11 -7 -18z m186 8 c0
-8 -4 -12 -9 -9 -5 3 -6 10 -3 15 9 13 12 11 12 -6z m1338 -83 c-3 -3 -11 0
-18 7 -9 10 -8 11 6 5 10 -3 15 -9 12 -12z m-1115 -146 c0 -2 -7 -7 -16 -10
-8 -3 -12 -2 -9 4 6 10 25 14 25 6z m1120 -24 c0 -5 -7 -9 -15 -9 -8 0 -12 4
-9 9 3 4 9 8 15 8 5 0 9 -4 9 -8z m-636 -120 c2 -4 -4 -8 -14 -8 -10 0 -16 4
-14 8 3 4 9 8 14 8 5 0 11 -4 14 -8z m229 -97 c-3 -9 -8 -14 -10 -11 -3 3 -2
9 2 15 9 16 15 13 8 -4z m407 -9 c0 -2 -8 -10 -17 -17 -16 -13 -17 -12 -4 4
13 16 21 21 21 13z m151 -389 c-10 -9 -11 -8 -5 6 3 10 9 15 12 12 3 -3 0 -11
-7 -18z m326 -442 c0 -8 -4 -12 -9 -9 -5 3 -6 10 -3 15 9 13 12 11 12 -6z
m-5913 -223 c3 -5 -1 -9 -9 -9 -8 0 -15 4 -15 9 0 4 4 8 9 8 6 0 12 -4 15 -8z
m6402 -124 c3 -4 -1 -5 -10 -4 -8 1 -18 5 -22 8 -3 4 1 5 10 4 8 -1 18 -5 22
-8z m-6546 -82 c0 -2 -8 -10 -17 -17 -16 -13 -17 -12 -4 4 13 16 21 21 21 13z
m6540 -80 c0 -2 -8 -10 -17 -17 -16 -13 -17 -12 -4 4 13 16 21 21 21 13z m155
-504 c-3 -3 -11 0 -18 7 -9 10 -8 11 6 5 10 -3 15 -9 12 -12z m-305 -48 c0 -8
-19 -13 -24 -6 -3 5 1 9 9 9 8 0 15 -2 15 -3z m461 -257 c-10 -9 -11 -8 -5 6
3 10 9 15 12 12 3 -3 0 -11 -7 -18z m14 -167 c3 -6 -1 -7 -9 -4 -18 7 -21 14
-7 14 6 0 13 -4 16 -10z m145 -74 c0 -2 -8 -10 -17 -17 -16 -13 -17 -12 -4 4
13 16 21 21 21 13z m-155 -94 c-3 -3 -11 0 -18 7 -9 10 -8 11 6 5 10 -3 15 -9
12 -12z m-178 -1197 c0 -8 -4 -12 -9 -9 -5 3 -6 10 -3 15 9 13 12 11 12 -6z
m118 -304 c3 -5 2 -12 -3 -15 -5 -3 -9 1 -9 9 0 17 3 19 12 6z m-571 -1229 c3
-5 -1 -9 -9 -9 -8 0 -12 4 -9 9 3 4 7 8 9 8 2 0 6 -4 9 -8z m-648 -1297 c-1
-8 -5 -17 -8 -21 -5 -4 -4 16 1 34 3 9 9 -1 7 -13z m-1551 -284 c-9 -8 -36
-10 -30 -2 2 4 11 8 20 8 8 0 13 -3 10 -6z m275 5 c0 -2 -7 -7 -16 -10 -8 -3
-12 -2 -9 4 6 10 25 14 25 6z m165 -486 c-3 -5 -12 -10 -18 -10 -7 0 -6 4 3
10 19 12 23 12 15 0z m480 -160 c3 -6 -1 -7 -9 -4 -18 7 -21 14 -7 14 6 0 13
-4 16 -10z"/>
</g>
</svg>
