<svg width="877" height="733" viewBox="0 0 877 733" fill="none" xmlns="http://www.w3.org/2000/svg">
<path d="M375.415 639.788C459.362 639.788 527.415 635.311 527.415 629.788C527.415 624.265 459.362 619.788 375.415 619.788C291.468 619.788 223.415 624.265 223.415 629.788C223.415 635.311 291.468 639.788 375.415 639.788Z" fill="#F2F2F2"/>
<path d="M677.415 616.788C761.362 616.788 829.415 612.311 829.415 606.788C829.415 601.265 761.362 596.788 677.415 596.788C593.468 596.788 525.415 601.265 525.415 606.788C525.415 612.311 593.468 616.788 677.415 616.788Z" fill="#F2F2F2"/>
<path d="M791.915 97.289H61.9141V590.288H791.915V97.289Z" fill="#3F3D56"/>
<path d="M61.9141 133.349H791.915" stroke="#2F2E41" stroke-width="2" stroke-miterlimit="10"/>
<path d="M84.416 124.289C89.3866 124.289 93.416 120.26 93.416 115.289C93.416 110.318 89.3866 106.289 84.416 106.289C79.4455 106.289 75.416 110.318 75.416 115.289C75.416 120.26 79.4455 124.289 84.416 124.289Z" fill="#E8EAEA"/>
<path d="M111.416 124.789C116.387 124.789 120.416 120.76 120.416 115.789C120.416 110.818 116.387 106.789 111.416 106.789C106.445 106.789 102.416 110.818 102.416 115.789C102.416 120.76 106.445 124.789 111.416 124.789Z" fill="#E8EAEA"/>
<path d="M138.416 125.289C143.387 125.289 147.416 121.26 147.416 116.289C147.416 111.318 143.387 107.289 138.416 107.289C133.445 107.289 129.416 111.318 129.416 116.289C129.416 121.26 133.445 125.289 138.416 125.289Z" fill="#E8EAEA"/>
<path d="M723.415 166.789H107.416V286.789H723.415V166.789Z" fill="#848484"/>
<path d="M254.414 362.789H107.416V555.788H254.414V362.789Z" fill="#848484"/>
<path d="M723.415 362.789H576.415V555.788H723.415V362.789Z" fill="#848484"/>
<path d="M488.915 362.789H341.915V555.788H488.915V362.789Z" fill="#848484"/>
<path d="M805.415 166.789H189.416V286.789H805.415V166.789Z" fill="#E8EAEA"/>
<path d="M751.415 408.789H604.415V601.788H751.415V408.789Z" fill="#E8EAEA"/>
<path d="M729.915 434.288H625.915V446.288H729.915V434.288Z" fill="#3F3D56"/>
<path d="M729.915 460.288H625.915V472.288H729.915V460.288Z" fill="#3F3D56"/>
<path d="M729.915 486.288H625.915V498.288H729.915V486.288Z" fill="#3F3D56"/>
<path d="M729.915 512.288H625.915V524.288H729.915V512.288Z" fill="#3F3D56"/>
<path d="M729.915 538.288H625.915V550.288H729.915V538.288Z" fill="#3F3D56"/>
<path d="M729.915 564.288H625.915V576.288H729.915V564.288Z" fill="#3F3D56"/>
<path d="M290.414 388.789H143.416V581.788H290.414V388.789Z" fill="#E8EAEA"/>
<path d="M268.914 453.288H164.916V465.288H268.914V453.288Z" fill="#3F3D56"/>
<path d="M268.914 479.288H164.916V491.288H268.914V479.288Z" fill="#3F3D56"/>
<path d="M268.914 505.288H164.916V517.288H268.914V505.288Z" fill="#3F3D56"/>
<path d="M456.415 436.788H309.416V629.788H456.415V436.788Z" fill="#E8EAEA"/>
<path d="M415.915 467.288H349.915V533.288H415.915V467.288Z" fill="#3F3D56"/>
<path d="M440.915 547.288H324.915V555.288H440.915V547.288Z" fill="#3F3D56"/>
<path d="M440.915 569.288H324.915V577.288H440.915V569.288Z" fill="#3F3D56"/>
<path d="M440.915 591.288H324.915V599.288H440.915V591.288Z" fill="#3F3D56"/>
<path d="M664.759 190.126C704.523 190.126 736.759 157.89 736.759 118.126C736.759 78.3615 704.523 46.126 664.759 46.126C624.994 46.126 592.759 78.3615 592.759 118.126C592.759 157.89 624.994 190.126 664.759 190.126Z" fill="#38D39F"/>
<path d="M641.248 226.983L726.115 275.983L775.115 191.115L690.248 142.115L641.248 226.983Z" fill="white"/>
<path d="M660.8 147.555C681.234 147.555 697.8 130.99 697.8 110.555C697.8 90.1205 681.234 73.555 660.8 73.555C640.365 73.555 623.8 90.1205 623.8 110.555C623.8 130.99 640.365 147.555 660.8 147.555Z" fill="#F2F2F2"/>
<path d="M645.257 112.237C651.884 112.237 657.257 106.864 657.257 100.237C657.257 93.6096 651.884 88.237 645.257 88.237C638.629 88.237 633.257 93.6096 633.257 100.237C633.257 106.864 638.629 112.237 645.257 112.237Z" fill="#3F3D56"/>
<path d="M432.321 151.908C450.978 151.908 466.102 136.784 466.102 118.127C466.102 99.4702 450.978 84.3459 432.321 84.3459C413.664 84.3459 398.54 99.4702 398.54 118.127C398.54 136.784 413.664 151.908 432.321 151.908Z" fill="#2F2E41"/>
<path d="M728.169 293.04C716.019 293.04 706.169 283.19 706.169 271.04C706.169 258.89 716.019 249.04 728.169 249.04C740.319 249.04 750.169 258.89 750.169 271.04C750.155 283.185 740.313 293.027 728.169 293.04ZM728.169 251.04C717.122 251.04 708.169 259.995 708.169 271.04C708.169 282.086 717.122 291.04 728.169 291.04C739.214 291.04 748.169 282.086 748.169 271.04C748.155 260 739.208 251.053 728.169 251.04Z" fill="#3F3D56"/>
<path d="M368.796 356.888L376.632 509.703C376.632 509.703 375.327 619.416 383.163 620.723C390.999 622.029 405.366 631.171 409.286 624.641C413.204 618.111 432.796 416.969 432.796 416.969C432.796 416.969 438.021 625.947 453.692 627.253C469.366 628.559 487.651 620.723 490.264 622.028C492.875 623.335 491.569 360.806 491.569 360.806L368.796 356.888Z" fill="#2F2E41"/>
<path d="M392.306 619.416C392.306 619.416 383.163 619.416 380.55 623.335C377.939 627.253 368.796 646.845 368.796 646.845C368.796 646.845 351.816 662.437 370.103 663.742C388.388 665.048 397.531 661.212 397.531 658.599C397.531 655.986 397.531 649.456 401.449 648.15C405.367 646.844 409.287 640.313 409.287 637.702C409.286 635.09 405.366 618.111 392.306 619.416Z" fill="#2F2E41"/>
<path d="M462.835 620.723C462.835 620.723 456.306 646.845 462.835 648.151C469.366 649.458 473.284 652.07 474.591 655.988C475.898 659.906 488.958 664.437 499.407 663.131C509.856 661.825 515.081 654.682 511.161 650.764C507.243 646.846 487.651 624.642 486.347 620.724C485.04 616.804 462.835 620.723 462.835 620.723Z" fill="#2F2E41"/>
<path d="M417.123 142.687C417.123 142.687 414.512 162.279 409.287 164.891C404.062 167.502 411.898 181.87 411.898 181.87L435.408 185.789L456.306 168.81C456.306 168.81 452.388 143.994 452.388 142.688C452.389 141.38 417.123 142.687 417.123 142.687Z" fill="#9F616A"/>
<path d="M417.123 142.687C417.123 142.687 414.512 162.279 409.287 164.891C404.062 167.502 411.898 181.87 411.898 181.87L435.408 185.789L456.306 168.81C456.306 168.81 452.388 143.994 452.388 142.688C452.389 141.38 417.123 142.687 417.123 142.687Z" fill="#FCB7A8"/>
<path d="M431.489 159.667C448.801 159.667 462.836 145.632 462.836 128.32C462.836 111.007 448.801 96.973 431.489 96.973C414.176 96.973 400.142 111.007 400.142 128.32C400.142 145.632 414.176 159.667 431.489 159.667Z" fill="#FCB7A8"/>
<path d="M430.837 181.217C430.837 181.217 417.774 159.013 411.245 160.319C404.714 161.626 384.47 164.891 381.856 163.585C379.245 162.279 362.264 222.36 362.264 222.36C362.264 222.36 343.979 341.215 355.735 355.583C367.489 369.95 407.979 362.113 413.204 376.48C418.429 390.847 500.714 368.644 500.714 360.807C500.714 352.97 502.019 232.808 503.325 223.665C504.631 214.522 491.569 166.196 491.569 166.196C491.569 166.196 460.876 157.707 455.651 160.318C450.429 162.931 447.815 170.768 430.837 181.217Z" fill="#758086"/>
<path d="M384.471 167.502L381.858 163.584C381.858 163.584 354.43 167.502 346.592 166.196C338.756 164.89 315.247 167.502 315.247 167.502C315.247 167.502 320.471 153.135 325.695 151.829C330.919 150.523 337.449 146.604 337.449 146.604C337.449 146.604 324.388 127.012 337.449 120.482C337.449 120.482 277.37 143.992 273.452 166.196C269.534 188.4 364.879 222.359 364.879 222.359L384.471 167.502Z" fill="#758086"/>
<path d="M481.122 168.809L491.569 166.197L543.815 171.422L526.835 153.136C526.835 153.136 537.284 140.075 530.753 133.545C530.753 133.545 599.978 159.667 592.142 176.647C584.304 193.626 502.019 223.667 498.101 224.973C494.183 226.278 481.122 168.809 481.122 168.809Z" fill="#758086"/>
<path d="M344.565 124C347.797 124.642 350.561 126.662 353.206 128.628C355.772 130.461 358.231 132.437 360.575 134.546C372.454 145.65 376.819 162.406 380.598 178.222C377.909 180.489 373.516 178.604 371.711 175.585C369.906 172.566 369.779 168.88 369.07 165.435C368.361 161.99 366.627 158.288 363.275 157.223C363.98 159.41 362.279 161.785 360.152 162.653C358.025 163.521 355.629 163.282 353.345 163.027C352.282 162.969 351.24 162.731 350.257 162.324C348.484 161.468 347.448 159.624 346.484 157.907C343.97 153.434 341.205 149.107 338.201 144.948C337.521 143.873 336.633 142.943 335.592 142.214C331.408 139.66 326.914 136.319 328.998 130.257C330.718 125.251 340.001 123.094 344.565 124Z" fill="#FCB7A8"/>
<path d="M518.222 131.774C513.521 132.008 509.468 135.067 506.025 138.277C491.619 151.803 482.343 169.902 479.777 189.496C479.609 190.809 479.556 192.356 480.562 193.218C481.693 194.186 483.558 193.613 484.486 192.448C485.302 191.196 485.812 189.769 485.974 188.284C486.888 183.843 488.447 179.558 490.599 175.568C491.703 173.521 493.238 171.366 495.535 171.004C498.957 170.465 501.514 174.088 504.781 175.234C508.638 176.588 512.959 174.164 515.304 170.815C517.648 167.467 518.564 163.363 519.857 159.485C521.148 155.607 523.064 151.631 526.587 149.562C530.341 147.36 538.982 145.83 535.317 139.649C532.655 135.157 523.14 131.529 518.222 131.774Z" fill="#FCB7A8"/>
<path d="M397.538 110.974C397.538 110.974 389.208 89.317 401.286 82.237L404.618 91.816C404.618 91.816 435.022 73.49 442.936 77.655L435.438 87.651C435.438 87.651 470.84 87.651 473.34 101.395L460.844 101.811C460.844 101.811 474.172 110.558 474.588 124.718L447.934 126.384L460.844 133.881C460.844 133.881 412.531 140.545 400.869 121.386L397.538 110.974Z" fill="#2F2E41"/>
<path d="M317.205 135.503L336.796 119.829C336.796 119.829 330.265 139.421 336.796 145.951L311.981 151.176L317.205 135.503Z" fill="#575A88"/>
<path d="M545.774 144.646L528.794 131.584C528.794 131.584 531.407 148.563 526.183 152.482C520.958 156.4 540.55 157.707 540.55 157.707L545.774 144.646Z" fill="#575A88"/>
<path d="M275.586 646.955C315.35 646.955 347.586 614.719 347.586 574.955C347.586 535.19 315.35 502.955 275.586 502.955C235.821 502.955 203.586 535.19 203.586 574.955C203.586 614.719 235.821 646.955 275.586 646.955Z" fill="#38D39F"/>
<path d="M247.805 615.664C268.239 615.664 284.805 599.098 284.805 578.664C284.805 558.229 268.239 541.664 247.805 541.664C227.37 541.664 210.805 558.229 210.805 578.664C210.805 599.098 227.37 615.664 247.805 615.664Z" fill="#F2F2F2"/>
<path d="M233.771 602.406C240.398 602.406 245.771 597.033 245.771 590.406C245.771 583.779 240.398 578.406 233.771 578.406C227.143 578.406 221.771 583.779 221.771 590.406C221.771 597.033 227.143 602.406 233.771 602.406Z" fill="#3F3D56"/>
<path d="M433.354 665.038C473.119 665.038 505.354 632.802 505.354 593.038C505.354 553.273 473.119 521.038 433.354 521.038C393.59 521.038 361.354 553.273 361.354 593.038C361.354 632.802 393.59 665.038 433.354 665.038Z" fill="#38D39F"/>
<path d="M430.354 622.038C450.789 622.038 467.354 605.472 467.354 585.038C467.354 564.603 450.789 548.038 430.354 548.038C409.92 548.038 393.354 564.603 393.354 585.038C393.354 605.472 409.92 622.038 430.354 622.038Z" fill="#F2F2F2"/>
<path d="M430.354 576.038C436.982 576.038 442.354 570.665 442.354 564.038C442.354 557.411 436.982 552.038 430.354 552.038C423.727 552.038 418.354 557.411 418.354 564.038C418.354 570.665 423.727 576.038 430.354 576.038Z" fill="#3F3D56"/>
<path d="M632.354 663.038H257.355V665.038H632.354V663.038Z" fill="#2F2E41"/>
<path d="M728.669 168.21C739.991 168.21 749.169 161.047 749.169 152.21C749.169 143.373 739.991 136.21 728.669 136.21C717.347 136.21 708.169 143.373 708.169 152.21C708.169 161.047 717.347 168.21 728.669 168.21Z" fill="#38D39F"/>
<path d="M343.089 517.445L375.878 491.187L343.089 517.445Z" fill="#3F3D56"/>
<path d="M345.188 537.68C355.096 529.672 365.354 522.124 375.961 515.035L345.188 537.68Z" fill="#3F3D56"/>
<path d="M367.058 535.549C378.638 530.042 389.204 522.615 398.308 513.583L367.058 535.549Z" fill="#3F3D56"/>
</svg>
