<svg width="50" height="50" viewBox="0 0 50 50" fill="none" xmlns="http://www.w3.org/2000/svg">
<rect x="0.5" y="0.5" width="49" height="49" stroke="#E0E0E0"/>
<path d="M22.0853 18.2607C22.0853 18.8151 22.0853 21.2896 22.0853 21.2896H19.8662V24.9935H22.0853V35.9999H26.6439V24.9938H29.7029C29.7029 24.9938 29.9893 23.2178 30.1282 21.276C29.7301 21.276 26.6611 21.276 26.6611 21.276C26.6611 21.276 26.6611 19.1212 26.6611 18.7435C26.6611 18.365 27.1581 17.8559 27.6494 17.8559C28.1397 17.8559 29.1745 17.8559 30.133 17.8559C30.133 17.3516 30.133 15.6092 30.133 14C28.8535 14 27.3978 14 26.7561 14C21.9726 13.9997 22.0853 17.7072 22.0853 18.2607Z" fill="#E0E0E0"/>
</svg>
