<svg width="50" height="50" viewBox="0 0 50 50" fill="none" xmlns="http://www.w3.org/2000/svg">
<rect x="0.5" y="0.5" width="49" height="49" stroke="#393A3E"/>
<path d="M22.0858 18.2607C22.0858 18.8151 22.0858 21.2897 22.0858 21.2897H19.8667V24.9935H22.0858V36H26.6444V24.9938H29.7033C29.7033 24.9938 29.9898 23.2179 30.1287 21.276C29.7306 21.276 26.6616 21.276 26.6616 21.276C26.6616 21.276 26.6616 19.1213 26.6616 18.7436C26.6616 18.3651 27.1586 17.8559 27.6498 17.8559C28.1402 17.8559 29.175 17.8559 30.1335 17.8559C30.1335 17.3517 30.1335 15.6093 30.1335 14.0001C28.854 14.0001 27.3982 14.0001 26.7566 14.0001C21.9731 13.9998 22.0858 17.7073 22.0858 18.2607Z" fill="#808185"/>
</svg>
