<svg width="2793" height="900" viewBox="0 0 2793 900" fill="none" xmlns="http://www.w3.org/2000/svg">
<path d="M394.24 4.35123C382.992 7.25383 362.674 14.5103 348.887 21.0412C335.462 27.2092 308.976 38.8196 290.109 46.8018C230.968 71.4739 191.783 101.951 155.863 151.296C121.032 198.463 106.519 231.117 95.2716 288.444C89.4664 317.107 87.2895 321.824 72.0508 338.876C22.7066 395.114 -9.94774 490.537 2.75115 542.059C7.83071 561.651 37.5824 635.305 54.2724 668.685C67.3341 695.534 134.094 776.807 154.049 790.594C188.155 814.178 269.428 843.204 318.772 849.735C332.197 851.186 344.896 856.266 357.232 864.248C398.231 891.097 402.948 892.548 467.531 896.539C569.485 902.707 581.458 901.982 646.041 883.115C728.039 859.168 761.419 839.938 819.108 784.789C863.373 741.975 887.32 703.879 904.01 649.455C909.089 633.128 916.346 614.987 920.337 609.544C933.036 591.766 950.088 554.758 955.531 533.351C969.318 480.015 954.805 409.627 909.452 314.567C869.904 231.48 811.852 152.747 763.959 118.641C735.296 97.9602 652.934 51.1557 648.218 52.607C646.404 52.9698 645.315 51.8814 645.315 49.7044C645.315 47.8903 642.775 47.5275 639.147 48.6159C635.156 50.0672 634.067 49.7044 635.882 46.8018C637.333 43.8992 636.607 43.1736 633.342 44.6249C626.811 46.8018 585.812 35.5542 589.077 32.2888C590.528 30.8375 582.909 27.9349 572.024 25.7579C561.502 23.581 538.282 17.4129 520.14 11.9706C479.504 -0.365506 425.08 -3.63094 394.24 4.35123ZM496.557 31.2003C493.654 33.0144 479.867 35.5542 465.716 36.6427C384.444 44.6249 301.719 82.7215 241.49 139.685C219.358 160.729 145.704 249.621 123.209 282.276C116.316 292.072 110.147 299.328 109.422 298.603C108.333 297.514 110.873 287.718 115.227 276.47C119.581 265.223 122.846 252.161 122.846 246.719C122.846 239.099 122.121 238.011 117.404 242.002C114.501 244.542 111.962 245.267 111.962 243.453C111.962 235.834 143.165 180.684 160.58 157.101C190.695 116.827 232.42 81.6331 242.579 87.8011C244.393 88.8896 254.915 83.4472 265.437 75.465C275.959 67.4829 291.56 58.4122 299.542 55.5096C318.409 48.9788 372.47 39.9081 431.248 33.7401C486.76 27.5721 504.176 26.8464 496.557 31.2003ZM425.08 56.5981C372.47 74.7394 326.754 108.119 239.676 192.658C219.358 212.25 201.217 227.489 199.765 225.675C198.314 224.223 210.287 210.799 226.252 195.56C256.729 166.897 256.729 166.171 224.8 188.304C213.916 195.923 204.482 201.365 203.394 200.277C196.863 193.746 240.402 150.57 286.843 117.553C331.834 85.6241 368.479 66.7572 405.85 55.5096C447.575 43.1736 462.088 44.262 425.08 56.5981ZM602.864 62.4033C637.696 71.4739 708.447 111.022 735.296 136.783C749.446 150.207 741.464 149.119 710.261 133.154C671.801 113.562 663.094 110.296 664.545 115.739C665.27 120.818 649.669 120.455 609.033 114.287C562.954 107.394 507.804 109.571 444.673 120.455C413.107 125.898 383.355 129.163 378.638 128.075C372.47 126.623 360.497 130.615 339.09 141.136C290.835 165.083 294.463 152.021 345.258 119.73C359.046 111.022 364.851 105.58 361.586 103.765C352.515 97.9602 395.328 71.4739 427.983 62.7661C455.92 55.1468 574.564 55.1468 602.864 62.4033ZM619.554 124.446C665.633 133.88 703.73 148.393 730.942 166.534C794.436 208.985 850.311 294.249 870.992 379.876C877.16 405.999 877.886 418.698 876.435 463.325C873.532 552.218 866.276 566.731 787.543 643.65C705.544 724.197 649.669 756.851 558.237 777.17C520.866 785.515 497.282 789.143 486.035 787.691C473.699 786.603 471.159 786.966 476.601 789.506C514.698 807.647 653.297 763.382 726.951 709.684C734.933 703.879 765.047 675.578 793.711 647.278L845.957 595.757L829.993 625.871C774.481 731.816 691.394 795.311 572.024 823.248C542.998 830.142 533.565 830.505 462.451 827.965L384.806 825.425L349.249 794.585C303.533 755.4 303.896 755.763 315.144 758.303C352.152 767.01 352.878 763.745 316.958 751.409C278.136 737.984 276.322 736.896 249.11 709.684C230.243 690.454 213.553 668.685 197.951 642.198C184.89 620.792 167.111 591.04 158.04 576.527C140.625 548.227 119.581 495.254 110.147 456.069C107.245 443.007 103.617 415.795 102.528 395.477C99.9884 358.832 99.9884 358.469 111.599 338.151C122.484 318.921 170.377 269.577 217.181 229.303C237.862 211.887 308.613 175.605 365.939 153.11C397.868 140.774 462.088 124.809 505.627 119.004C536.83 114.65 582.546 116.827 619.554 124.446ZM171.828 263.771C162.032 273.568 152.235 281.913 150.058 281.913C146.43 281.55 183.438 245.63 187.429 245.63C188.518 245.63 181.624 253.612 171.828 263.771ZM61.1661 410.716C59.3519 420.512 57.9006 450.627 57.9006 476.75C57.5378 518.838 58.6263 527.546 66.2456 547.864C80.033 585.235 98.1742 616.075 103.254 610.995C104.342 609.907 99.2627 597.571 91.2806 584.146C78.5817 562.014 68.4226 538.793 68.4226 532.625C68.4226 531.537 73.8649 540.244 80.3958 552.218C94.546 578.341 125.749 624.783 137.722 637.482C142.439 642.561 152.961 651.632 160.943 657.437C168.925 663.242 188.518 679.207 204.119 692.631C219.721 706.419 233.871 717.303 235.322 717.303C236.774 717.303 247.296 734.356 258.906 755.037C270.154 776.081 288.658 802.93 299.542 814.903L319.498 837.036H307.887C276.322 837.036 212.101 813.815 171.828 788.054C130.103 761.568 111.236 739.073 71.3252 670.499C51.0069 635.668 32.5028 599.385 29.9631 589.952C15.0872 532.625 22.3437 474.21 52.4582 410.716C57.9006 399.468 62.6174 391.123 62.9802 391.486C63.7058 392.212 62.6174 400.557 61.1661 410.716ZM86.9267 461.511C94.1832 520.289 111.962 569.271 143.527 618.978C150.421 629.5 155.501 638.933 154.775 639.659C151.872 642.198 118.13 596.482 107.971 576.164C96.3601 553.306 80.7586 496.343 77.1304 464.777C75.6791 454.255 76.0419 437.928 77.856 428.131C79.6701 416.158 81.1215 413.618 81.8471 419.786C82.5728 424.866 84.7497 443.37 86.9267 461.511ZM945.372 435.025C950.088 449.175 951.903 464.777 951.903 494.528C951.903 534.439 951.903 534.802 936.301 566.368C927.593 583.784 919.974 597.571 919.248 596.845C918.523 596.12 919.248 580.155 921.062 561.288C922.876 542.421 924.691 511.944 924.691 493.803C924.691 446.636 928.319 416.158 934.124 416.158C936.664 416.158 941.743 424.866 945.372 435.025ZM25.2463 466.228C20.8924 484.007 17.627 503.236 17.627 509.042C17.627 525.731 13.6359 537.342 10.0077 531.537C2.0255 519.201 9.28201 473.485 23.795 442.282C32.8657 423.052 33.2285 431.397 25.2463 466.228ZM122.484 527.908C132.28 552.218 141.35 577.253 142.802 583.784L145.342 595.757L137.722 588.863C122.121 574.713 97.4486 511.581 97.4486 485.458C97.4486 470.582 103.254 480.378 122.484 527.908ZM876.798 645.827C868.453 670.862 845.232 702.427 833.621 704.242C830.356 704.604 817.657 714.764 805.684 727.1C773.03 760.48 698.65 808.01 679.783 808.01C673.978 807.647 675.792 805.107 688.854 793.497C697.925 785.877 713.526 774.993 723.323 769.55C761.056 749.232 811.126 713.675 830.719 693.357C841.604 681.384 857.931 660.34 866.639 645.827C875.709 631.677 883.329 620.066 883.691 620.792C884.054 621.155 881.152 632.402 876.798 645.827ZM885.143 677.755C877.886 696.622 862.647 721.657 859.745 719.117C856.117 715.126 885.143 659.251 890.585 659.251C891.311 659.251 888.771 667.596 885.143 677.755ZM487.486 835.584C534.29 838.487 544.45 841.752 523.406 847.558C501.636 853.726 472.61 852.274 442.496 843.929C407.302 834.133 400.408 827.965 427.62 830.868C438.505 832.319 465.716 834.133 487.486 835.584Z" fill="#E0E0E0"/>
<path d="M365.214 767.01C367.754 768.099 371.019 767.736 372.108 766.647C373.559 765.559 371.382 764.47 367.391 764.833C363.4 764.833 362.312 765.922 365.214 767.01Z" fill="#E0E0E0"/>
<path d="M459.549 785.151C462.088 786.239 465.354 785.877 466.442 784.788C467.894 783.7 465.717 782.611 461.726 782.974C457.734 782.974 456.646 784.062 459.549 785.151Z" fill="#E0E0E0"/>
<path d="M832.17 695.897C830.719 698.074 830.356 700.251 831.444 701.34C832.17 702.428 833.984 700.614 835.073 697.348C837.612 691.18 835.435 690.092 832.17 695.897Z" fill="#E0E0E0"/>
<path d="M1601.36 116.827C1585.4 119.73 1571.97 121.906 1571.61 121.906C1570.88 122.269 1570.52 237.285 1570.52 378.061V634.216L1611.52 633.128L1652.16 632.039L1653.24 502.51L1653.97 372.982L1668.12 362.097C1692.07 342.867 1713.84 335.248 1738.15 337.062C1763.18 338.876 1775.88 346.858 1786.4 367.539C1793.29 380.601 1793.66 390.035 1794.75 507.953L1795.83 634.216L1836.47 633.128L1877.11 632.039V495.98V359.92L1866.95 337.788C1854.61 310.939 1832.84 288.806 1808.17 277.921C1780.6 265.585 1735.24 266.311 1706.58 279.736C1694.61 285.178 1678.64 294.249 1671.39 300.054C1664.13 306.222 1657.24 310.939 1656.15 310.939C1655.06 310.939 1653.61 266.311 1653.24 211.887L1652.16 113.199L1641.27 112.473C1635.47 112.473 1617.32 114.287 1601.36 116.827Z" fill="#E0E0E0"/>
<path d="M2664.44 170.162C2652.47 171.977 2640.86 175.605 2638.32 177.782C2634.69 181.41 2619.09 265.948 2619.09 281.187C2619.09 283.364 2609.65 285.904 2598.04 287.355C2586.43 288.444 2574.82 290.983 2572.64 292.435C2569.02 294.612 2553.78 339.602 2553.78 347.947C2553.78 349.398 2567.93 351.212 2585.71 351.575L2617.27 352.664L2619.09 463.325C2620.54 560.926 2621.63 575.801 2627.79 589.589C2635.78 608.093 2657.55 627.685 2676.78 633.128C2708.34 642.561 2766.76 635.668 2785.99 620.066C2793.97 613.535 2793.97 613.535 2787.8 591.04C2779.82 562.74 2776.19 559.837 2759.5 566.731C2739.18 575.076 2723.58 573.624 2713.06 562.74L2704.35 553.306V453.166V352.664L2744.26 351.575C2770.38 350.85 2784.9 349.035 2786.71 346.133C2788.16 343.593 2789.61 331.257 2789.61 318.195C2789.61 305.134 2788.16 292.797 2786.71 290.258C2784.9 287.355 2770.38 285.541 2744.26 284.815L2704.35 283.727L2703.26 227.489C2702.54 172.702 2700.72 165.083 2689.84 166.171C2688.02 166.534 2676.41 168.348 2664.44 170.162Z" fill="#E0E0E0"/>
<path d="M1320.53 271.391C1274.82 279.373 1237.81 305.859 1221.48 341.779C1214.95 356.655 1213.14 366.451 1213.14 394.388C1213.14 424.14 1214.59 431.759 1222.57 449.175C1228.01 460.423 1239.26 476.024 1247.61 484.369L1262.84 498.882L1249.42 511.218C1241.8 517.749 1233.46 528.271 1230.92 534.802C1220.39 559.837 1227.65 595.031 1245.79 607.004L1255.22 613.172L1236.36 629.862C1192.09 668.322 1188.46 724.56 1228.01 760.842C1258.13 788.417 1301.67 799.664 1364.44 796.036C1471.47 789.505 1534.24 740.887 1534.24 664.331C1534.24 603.013 1499.04 581.969 1387.29 575.438C1314 571.447 1307.47 570.359 1300.21 560.2C1292.23 548.589 1293.68 540.244 1304.93 528.634C1315.09 518.837 1316.18 518.475 1345.93 520.289C1414.51 524.28 1467.84 498.519 1490.34 450.626C1501.58 427.043 1504.49 382.052 1496.87 357.017C1491.42 339.602 1491.42 339.602 1500.13 335.973C1505.21 334.159 1512.11 332.708 1515.73 332.708C1530.61 332.708 1534.6 324.726 1533.51 298.24C1532.42 274.293 1531.7 272.842 1523.35 271.753C1511.02 269.939 1490.7 276.47 1474.01 287.718L1459.86 297.514L1447.16 289.895C1417.04 272.842 1359.72 264.134 1320.53 271.391ZM1392.74 337.062C1404.71 343.23 1411.24 349.761 1417.41 361.734C1434.1 395.477 1423.21 436.113 1392.74 451.352C1359.36 468.405 1312.55 458.246 1296.59 430.671C1286.06 412.167 1286.43 375.521 1297.68 357.38C1314.73 330.168 1359.72 320.372 1392.74 337.062ZM1421.4 641.473C1447.88 645.826 1458.04 655.623 1458.04 675.941C1458.04 695.171 1446.43 710.409 1420.31 723.471C1394.91 736.896 1338.67 739.798 1311.1 729.276C1280.26 717.666 1267.92 687.914 1283.16 659.977C1295.5 637.119 1305.29 633.853 1356.45 636.03C1381.49 637.119 1410.51 639.658 1421.4 641.473Z" fill="#E0E0E0"/>
<path d="M2054.89 271.39C2004.46 279.01 1955.84 314.204 1934.43 358.831C1919.2 390.034 1914.12 415.069 1914.12 456.431C1914.48 546.412 1960.2 612.083 2036.75 632.402C2063.96 639.658 2120.56 638.932 2147.05 630.587C2203.65 613.172 2242.47 571.084 2258.07 511.581C2264.97 484.732 2264.97 423.777 2258.07 396.928C2247.19 354.477 2217.44 312.752 2183.33 291.708C2154.31 273.93 2096.62 264.859 2054.89 271.39ZM2129.27 344.318C2160.84 360.282 2176.44 397.653 2176.44 456.068C2176.44 531.536 2145.96 572.173 2089.72 572.173C2057.8 572.173 2037.11 562.013 2021.51 538.43C2006.27 515.572 2001.19 488.36 2003.01 441.555C2006.27 368.627 2032.4 336.699 2089.36 336.336C2107.14 336.336 2117.3 338.513 2129.27 344.318Z" fill="#E0E0E0"/>
<path d="M2395.59 271.028C2371.28 274.656 2337.53 290.258 2321.93 304.771C2292.54 332.708 2283.47 383.867 2301.25 421.601C2315.4 452.078 2334.99 465.502 2395.95 485.095C2439.85 499.245 2449.28 503.962 2459.08 516.298C2473.96 535.528 2464.52 560.2 2438.76 568.908C2420.26 575.076 2365.11 571.085 2334.99 561.288C2316.85 555.483 2308.87 554.758 2305.24 557.66C2301.61 560.563 2288.91 601.199 2288.91 609.907C2288.91 614.261 2319.39 626.96 2342.25 632.402C2360.03 636.756 2378.9 637.845 2410.46 636.756C2448.56 635.305 2456.9 633.853 2476.5 625.146C2501.89 613.535 2528.38 588.137 2537.45 566.368C2545.43 547.138 2547.97 515.21 2543.26 497.431C2533.46 460.786 2509.88 442.644 2443.48 420.149C2390.51 402.008 2372.36 389.672 2372.36 371.893C2372.36 346.496 2388.33 336.337 2429.33 336.337C2446.74 336.337 2468.15 339.239 2484.48 343.593C2503.34 349.035 2512.42 350.124 2515.68 347.221C2518.22 345.044 2522.94 332.346 2526.57 319.284C2532.37 296.063 2532.01 294.612 2525.84 289.895C2516.41 283.001 2487.02 275.382 2455.81 271.028C2425.34 267.037 2421.71 267.037 2395.59 271.028Z" fill="#E0E0E0"/>
</svg>
