<svg width="50" height="50" viewBox="0 0 50 50" fill="none" xmlns="http://www.w3.org/2000/svg">
<path d="M25 15C19.4775 15 15 19.4775 15 25C15 30.5231 19.4775 35 25 35C30.5225 35 35 30.5231 35 25C34.9999 19.4775 30.5224 15 25 15ZM27.8012 32.6181C27.7436 31.8356 27.6793 30.8662 27.6755 30.4737C27.6506 30.1725 27.618 29.4062 26.8906 28.9169C29.7787 28.675 31.153 27.0787 31.2518 24.9694C31.3343 23.7682 30.8568 22.7119 30.0087 21.8594C30.0518 20.9475 29.9812 19.8669 29.9225 19.3919C29.2712 19.2044 27.7525 20.0063 27.3281 20.3494C26.4331 20.0019 24.2425 19.8801 22.9112 20.3494C21.9675 19.6857 20.8931 19.2757 20.3075 19.3901C19.7669 20.5882 20.1144 21.7207 20.22 21.8557C19.5237 22.492 18.5525 23.2751 18.8162 24.9157C19.2393 27.3213 20.9318 28.6188 23.6568 28.9363C23.0756 29.0551 22.9774 29.4888 22.9287 29.6769C21.0987 30.4319 20.5756 29.2107 20.3443 28.8926C19.5762 27.9419 18.8868 28.2176 18.8443 28.2325C18.803 28.2475 18.7718 28.3075 18.7762 28.3363C18.8149 28.5413 19.2331 28.7494 19.2537 28.7662C19.8205 29.1887 20.0306 29.9519 20.1599 30.1694C20.973 31.5062 22.863 30.9519 22.8812 30.9631C22.8824 31.08 22.868 32.0638 22.8568 32.8294C19.4106 31.8881 16.875 28.7443 16.875 25C16.875 20.5125 20.5125 16.8751 24.9999 16.8751C29.4874 16.8751 33.1249 20.5125 33.1249 25C33.1249 28.5019 30.9062 31.4762 27.8012 32.6181Z" fill="#E0E0E0"/>
<rect x="0.5" y="0.5" width="49" height="49" stroke="#E0E0E0"/>
</svg>
