<svg version="1.1" id="el_7tkLeEqyA" xmlns="http://www.w3.org/2000/svg" xmlns:xlink="http://www.w3.org/1999/xlink" x="0px" y="0px" viewBox="0 0 1500 1000" style="enable-background:new 0 0 1500 1000;" xml:space="preserve"><style>@-webkit-keyframes kf_el_Ij8HxDWu1q_an_n-s2d2QO5{0%{-webkit-transform: translate(-514.1158447265625px, 673.786376953125px) translate(514.1158447265625px, -673.786376953125px) translate(500px, 0px);transform: translate(-514.1158447265625px, 673.786376953125px) translate(514.1158447265625px, -673.786376953125px) translate(500px, 0px);}49.86%{-webkit-transform: translate(-514.1158447265625px, 673.786376953125px) translate(514.1158447265625px, -673.786376953125px) translate(-500px, 0px);transform: translate(-514.1158447265625px, 673.786376953125px) translate(514.1158447265625px, -673.786376953125px) translate(-500px, 0px);}100%{-webkit-transform: translate(-514.1158447265625px, 673.786376953125px) translate(514.1158447265625px, -673.786376953125px) translate(500px, 0px);transform: translate(-514.1158447265625px, 673.786376953125px) translate(514.1158447265625px, -673.786376953125px) translate(500px, 0px);}}@keyframes kf_el_Ij8HxDWu1q_an_n-s2d2QO5{0%{-webkit-transform: translate(-514.1158447265625px, 673.786376953125px) translate(514.1158447265625px, -673.786376953125px) translate(500px, 0px);transform: translate(-514.1158447265625px, 673.786376953125px) translate(514.1158447265625px, -673.786376953125px) translate(500px, 0px);}49.86%{-webkit-transform: translate(-514.1158447265625px, 673.786376953125px) translate(514.1158447265625px, -673.786376953125px) translate(-500px, 0px);transform: translate(-514.1158447265625px, 673.786376953125px) translate(514.1158447265625px, -673.786376953125px) translate(-500px, 0px);}100%{-webkit-transform: translate(-514.1158447265625px, 673.786376953125px) translate(514.1158447265625px, -673.786376953125px) translate(500px, 0px);transform: translate(-514.1158447265625px, 673.786376953125px) translate(514.1158447265625px, -673.786376953125px) translate(500px, 0px);}}@-webkit-keyframes kf_el_8sKtuI8kNe_an_e4yy0J9Fe{0%{-webkit-transform: translate(-418.51300048828125px, 572.6781005859375px) translate(418.51300048828125px, -572.6781005859375px) translate(400px, 0px);transform: translate(-418.51300048828125px, 572.6781005859375px) translate(418.51300048828125px, -572.6781005859375px) translate(400px, 0px);}50.14%{-webkit-transform: translate(-418.51300048828125px, 572.6781005859375px) translate(418.51300048828125px, -572.6781005859375px) translate(-400px, 0px);transform: translate(-418.51300048828125px, 572.6781005859375px) translate(418.51300048828125px, -572.6781005859375px) translate(-400px, 0px);}100%{-webkit-transform: translate(-418.51300048828125px, 572.6781005859375px) translate(418.51300048828125px, -572.6781005859375px) translate(400px, 0px);transform: translate(-418.51300048828125px, 572.6781005859375px) translate(418.51300048828125px, -572.6781005859375px) translate(400px, 0px);}}@keyframes kf_el_8sKtuI8kNe_an_e4yy0J9Fe{0%{-webkit-transform: translate(-418.51300048828125px, 572.6781005859375px) translate(418.51300048828125px, -572.6781005859375px) translate(400px, 0px);transform: translate(-418.51300048828125px, 572.6781005859375px) translate(418.51300048828125px, -572.6781005859375px) translate(400px, 0px);}50.14%{-webkit-transform: translate(-418.51300048828125px, 572.6781005859375px) translate(418.51300048828125px, -572.6781005859375px) translate(-400px, 0px);transform: translate(-418.51300048828125px, 572.6781005859375px) translate(418.51300048828125px, -572.6781005859375px) translate(-400px, 0px);}100%{-webkit-transform: translate(-418.51300048828125px, 572.6781005859375px) translate(418.51300048828125px, -572.6781005859375px) translate(400px, 0px);transform: translate(-418.51300048828125px, 572.6781005859375px) translate(418.51300048828125px, -572.6781005859375px) translate(400px, 0px);}}@-webkit-keyframes kf_el_ifVHPF77ES_an_YesuxFBLs{0%{-webkit-transform: translate(-346.1297912597656px, 419.58905029296875px) translate(346.1297912597656px, -419.58905029296875px) translate(340px, 0px);transform: translate(-346.1297912597656px, 419.58905029296875px) translate(346.1297912597656px, -419.58905029296875px) translate(340px, 0px);}50.14%{-webkit-transform: translate(-346.1297912597656px, 419.58905029296875px) translate(346.1297912597656px, -419.58905029296875px) translate(-350px, 0px);transform: translate(-346.1297912597656px, 419.58905029296875px) translate(346.1297912597656px, -419.58905029296875px) translate(-350px, 0px);}100%{-webkit-transform: translate(-346.1297912597656px, 419.58905029296875px) translate(346.1297912597656px, -419.58905029296875px) translate(340px, 0px);transform: translate(-346.1297912597656px, 419.58905029296875px) translate(346.1297912597656px, -419.58905029296875px) translate(340px, 0px);}}@keyframes kf_el_ifVHPF77ES_an_YesuxFBLs{0%{-webkit-transform: translate(-346.1297912597656px, 419.58905029296875px) translate(346.1297912597656px, -419.58905029296875px) translate(340px, 0px);transform: translate(-346.1297912597656px, 419.58905029296875px) translate(346.1297912597656px, -419.58905029296875px) translate(340px, 0px);}50.14%{-webkit-transform: translate(-346.1297912597656px, 419.58905029296875px) translate(346.1297912597656px, -419.58905029296875px) translate(-350px, 0px);transform: translate(-346.1297912597656px, 419.58905029296875px) translate(346.1297912597656px, -419.58905029296875px) translate(-350px, 0px);}100%{-webkit-transform: translate(-346.1297912597656px, 419.58905029296875px) translate(346.1297912597656px, -419.58905029296875px) translate(340px, 0px);transform: translate(-346.1297912597656px, 419.58905029296875px) translate(346.1297912597656px, -419.58905029296875px) translate(340px, 0px);}}@-webkit-keyframes kf_el_sGagZSlszL_an_Jxup8rydm{0%{-webkit-transform: translate(-346.12799072265625px, 17.72301483154297px) translate(346.12799072265625px, -17.72301483154297px) translate(330px, 0px);transform: translate(-346.12799072265625px, 17.72301483154297px) translate(346.12799072265625px, -17.72301483154297px) translate(330px, 0px);}50%{-webkit-transform: translate(-346.12799072265625px, 17.72301483154297px) translate(346.12799072265625px, -17.72301483154297px) translate(-300px, 0px);transform: translate(-346.12799072265625px, 17.72301483154297px) translate(346.12799072265625px, -17.72301483154297px) translate(-300px, 0px);}100%{-webkit-transform: translate(-346.12799072265625px, 17.72301483154297px) translate(346.12799072265625px, -17.72301483154297px) translate(330px, 0px);transform: translate(-346.12799072265625px, 17.72301483154297px) translate(346.12799072265625px, -17.72301483154297px) translate(330px, 0px);}}@keyframes kf_el_sGagZSlszL_an_Jxup8rydm{0%{-webkit-transform: translate(-346.12799072265625px, 17.72301483154297px) translate(346.12799072265625px, -17.72301483154297px) translate(330px, 0px);transform: translate(-346.12799072265625px, 17.72301483154297px) translate(346.12799072265625px, -17.72301483154297px) translate(330px, 0px);}50%{-webkit-transform: translate(-346.12799072265625px, 17.72301483154297px) translate(346.12799072265625px, -17.72301483154297px) translate(-300px, 0px);transform: translate(-346.12799072265625px, 17.72301483154297px) translate(346.12799072265625px, -17.72301483154297px) translate(-300px, 0px);}100%{-webkit-transform: translate(-346.12799072265625px, 17.72301483154297px) translate(346.12799072265625px, -17.72301483154297px) translate(330px, 0px);transform: translate(-346.12799072265625px, 17.72301483154297px) translate(346.12799072265625px, -17.72301483154297px) translate(330px, 0px);}}#el_7tkLeEqyA *{-webkit-animation-duration: 24s;animation-duration: 24s;-webkit-animation-iteration-count: infinite;animation-iteration-count: infinite;-webkit-animation-timing-function: cubic-bezier(0, 0, 1, 1);animation-timing-function: cubic-bezier(0, 0, 1, 1);}#el_oupeWoY4SS{fill: url(#SVGID_1_);}#el_DUnGoCktXA{fill: url(#SVGID_2_);}#el_sGagZSlszL{fill: url(#SVGID_3_);}#el_ifVHPF77ES{opacity: 0.7;fill: url(#SVGID_4_);}#el_8sKtuI8kNe{opacity: 0.7;fill: url(#SVGID_5_);}#el_Ij8HxDWu1q{fill: url(#SVGID_6_);}#el_Ij8HxDWu1q_an_U4boHgk6o{-webkit-transform: translate(-514.1158447265625px, 673.786376953125px) translate(514.1158447265625px, -673.786376953125px) translate(0px, 0px);transform: translate(-514.1158447265625px, 673.786376953125px) translate(514.1158447265625px, -673.786376953125px) translate(0px, 0px);}#el_8sKtuI8kNe_an_fAUHngHLj{-webkit-transform: translate(-418.51300048828125px, 572.6781005859375px) translate(418.51300048828125px, -572.6781005859375px) translate(0px, 0px);transform: translate(-418.51300048828125px, 572.6781005859375px) translate(418.51300048828125px, -572.6781005859375px) translate(0px, 0px);}#el_sGagZSlszL_an_Jxup8rydm{-webkit-animation-fill-mode: backwards;animation-fill-mode: backwards;-webkit-transform: translate(-346.12799072265625px, 17.72301483154297px) translate(346.12799072265625px, -17.72301483154297px) translate(330px, 0px);transform: translate(-346.12799072265625px, 17.72301483154297px) translate(346.12799072265625px, -17.72301483154297px) translate(330px, 0px);-webkit-animation-name: kf_el_sGagZSlszL_an_Jxup8rydm;animation-name: kf_el_sGagZSlszL_an_Jxup8rydm;-webkit-animation-timing-function: cubic-bezier(0.42, 0, 0.58, 1);animation-timing-function: cubic-bezier(0.42, 0, 0.58, 1);}#el_ifVHPF77ES_an_M0yFZU7kx{-webkit-transform: translate(-346.1297912597656px, 419.58905029296875px) translate(346.1297912597656px, -419.58905029296875px) translate(0px, 0px);transform: translate(-346.1297912597656px, 419.58905029296875px) translate(346.1297912597656px, -419.58905029296875px) translate(0px, 0px);}#el_ifVHPF77ES_an_YesuxFBLs{-webkit-animation-fill-mode: backwards;animation-fill-mode: backwards;-webkit-transform: translate(-346.1297912597656px, 419.58905029296875px) translate(346.1297912597656px, -419.58905029296875px) translate(340px, 0px);transform: translate(-346.1297912597656px, 419.58905029296875px) translate(346.1297912597656px, -419.58905029296875px) translate(340px, 0px);-webkit-animation-name: kf_el_ifVHPF77ES_an_YesuxFBLs;animation-name: kf_el_ifVHPF77ES_an_YesuxFBLs;-webkit-animation-timing-function: cubic-bezier(0.42, 0, 0.58, 1);animation-timing-function: cubic-bezier(0.42, 0, 0.58, 1);}#el_8sKtuI8kNe_an_e4yy0J9Fe{-webkit-animation-fill-mode: backwards;animation-fill-mode: backwards;-webkit-transform: translate(-418.51300048828125px, 572.6781005859375px) translate(418.51300048828125px, -572.6781005859375px) translate(400px, 0px);transform: translate(-418.51300048828125px, 572.6781005859375px) translate(418.51300048828125px, -572.6781005859375px) translate(400px, 0px);-webkit-animation-name: kf_el_8sKtuI8kNe_an_e4yy0J9Fe;animation-name: kf_el_8sKtuI8kNe_an_e4yy0J9Fe;-webkit-animation-timing-function: cubic-bezier(0.42, 0, 0.58, 1);animation-timing-function: cubic-bezier(0.42, 0, 0.58, 1);}#el_Ij8HxDWu1q_an_n-s2d2QO5{-webkit-animation-fill-mode: backwards;animation-fill-mode: backwards;-webkit-transform: translate(-514.1158447265625px, 673.786376953125px) translate(514.1158447265625px, -673.786376953125px) translate(500px, 0px);transform: translate(-514.1158447265625px, 673.786376953125px) translate(514.1158447265625px, -673.786376953125px) translate(500px, 0px);-webkit-animation-name: kf_el_Ij8HxDWu1q_an_n-s2d2QO5;animation-name: kf_el_Ij8HxDWu1q_an_n-s2d2QO5;-webkit-animation-timing-function: cubic-bezier(0.42, 0, 0.58, 1);animation-timing-function: cubic-bezier(0.42, 0, 0.58, 1);}</style>
<linearGradient id="SVGID_1_" gradientUnits="userSpaceOnUse" x1="3790.3999" y1="-1.6553" x2="3790.3999" y2="998.3447" gradientTransform="matrix(-1 0 0 1 4540 0)">
	<stop offset="0" style="stop-color:#7B133C"/>
	<stop offset="0.2182" style="stop-color:#AE1E3E"/>
	<stop offset="0.3145" style="stop-color:#BA2E43"/>
	<stop offset="0.5523" style="stop-color:#D44D4D"/>
	<stop offset="0.7606" style="stop-color:#E75F55"/>
	<stop offset="0.9152" style="stop-color:#F26758"/>
</linearGradient>
<rect x="-345.326" y="-1.655" width="2189.853" height="1000" id="el_oupeWoY4SS"/>
<g id="el_wcQfZUPjeJ">
	
		<radialGradient id="SVGID_2_" cx="3601.8823" cy="361.3547" r="241.9281" gradientTransform="matrix(-1 0 0 1 4540 0)" gradientUnits="userSpaceOnUse">
		<stop offset="0" style="stop-color:#FBD4D4"/>
		<stop offset="0.2143" style="stop-color:#FBD3D1"/>
		<stop offset="0.4023" style="stop-color:#FCD0C9"/>
		<stop offset="0.5803" style="stop-color:#FCCCBC"/>
		<stop offset="0.7523" style="stop-color:#FCC5A9"/>
		<stop offset="0.9184" style="stop-color:#FCBE91"/>
		<stop offset="1" style="stop-color:#FBB983"/>
	</radialGradient>
	<circle cx="938.118" cy="361.354" r="241.928" id="el_DUnGoCktXA"/>
</g>
<linearGradient id="SVGID_3_" gradientUnits="userSpaceOnUse" x1="749.5994" y1="956.3447" x2="749.5994" y2="17.7205">
	<stop offset="0" style="stop-color:#B41E3E"/>
	<stop offset="0.2915" style="stop-color:#B11E3E"/>
	<stop offset="0.4602" style="stop-color:#A91E3F"/>
	<stop offset="0.5976" style="stop-color:#9A1D41"/>
	<stop offset="0.7181" style="stop-color:#871C42"/>
	<stop offset="0.8277" style="stop-color:#6F1842"/>
	<stop offset="0.9277" style="stop-color:#561341"/>
	<stop offset="1" style="stop-color:#400C3F"/>
</linearGradient>
<g id="el_sGagZSlszL_an_Jxup8rydm" data-animator-group="true" data-animator-type="0"><path d="M-346.128,319.919c0,0,71.635-47.549,106.125,18.288&#10;&#9;c34.49,65.837,82.245,120.701,82.245,120.701s84.9,36.578,95.512,0c10.611-36.576,53.061-131.961,63.674-155.591&#10;&#9;c10.613-23.631,74.287-30.947,124.695,45.863c50.408,76.81,119.388,124.359,137.961,140.818c18.572,16.459,79.593,16.459,87.553,0&#10;&#9;c7.958-16.459,18.571-27.432,42.448,0c23.877,27.432,82.246,53.035,84.9,34.747c2.653-18.287-47.756-32.918,13.265-34.747&#10;&#9;c61.022-1.829,55.716,10.505,92.859,40.915c37.143,30.409,318.371,110.876,416.535,41.382&#10;&#9;c98.164-69.494,143.267-146.304,169.798-175.565c26.531-29.261,90.205-76.81,106.124-73.152c15.918,3.658,68.98,43.892,79.592-3.658&#10;&#9;c10.613-47.549,18.573-73.152,37.143-69.494c18.572,3.658,55.716,50.517,71.634-0.344c15.919-50.862,5.306-109.384,45.103-105.726&#10;&#9;c39.797,3.658,55.714,36.576,111.43-21.946c55.714-58.522,29.184-117.044,91.532-102.413c62.347,14.63,70.306,54.864,131.327,43.892&#10;&#9;v892.459H-346.128V319.919z" id="el_sGagZSlszL"/></g>
<linearGradient id="SVGID_4_" gradientUnits="userSpaceOnUse" x1="798.4006" y1="900.3447" x2="798.4006" y2="419.5898" gradientTransform="matrix(-1 0 0 1 1548 0)">
	<stop offset="0" style="stop-color:#9C1B3E"/>
	<stop offset="0.3028" style="stop-color:#9A1B3E"/>
	<stop offset="0.4781" style="stop-color:#931A3F"/>
	<stop offset="0.6208" style="stop-color:#861A40"/>
	<stop offset="0.746" style="stop-color:#751740"/>
	<stop offset="0.8597" style="stop-color:#601440"/>
	<stop offset="0.9637" style="stop-color:#4A0F40"/>
	<stop offset="1" style="stop-color:#400C3F"/>
</linearGradient>
<g id="el_ifVHPF77ES_an_YesuxFBLs" data-animator-group="true" data-animator-type="0"><path d="M1845.326,557.512c0,0-71.634-25.614-106.124,9.851&#10;&#9;c-34.49,35.467-82.245,65.021-82.245,65.021s-84.9,19.702-95.512,0c-10.611-19.703-53.061-71.087-63.674-83.815&#10;&#9;c-10.611-12.731-74.287-16.672-124.695,24.705c-50.409,41.376-119.39,66.99-137.961,75.856c-18.572,8.867-79.593,8.867-87.553,0&#10;&#9;c-7.958-8.866-18.571-14.777-42.448,0c-23.879,14.777-82.246,28.569-84.9,18.718c-2.653-9.851,47.756-17.733-13.265-18.718&#10;&#9;c-61.022-0.985-55.716,5.659-92.859,22.04c-37.143,16.382-318.371,59.727-416.535,22.293&#10;&#9;c-98.164-37.437-143.267-78.813-169.798-94.576c-26.531-15.762-90.205-41.376-106.124-39.405&#10;&#9;c-15.918,1.971-68.98,23.644-79.593-1.971c-10.611-25.614-18.571-39.405-37.142-37.435c-18.572,1.971-55.716,27.212-71.634-0.186&#10;&#9;c-15.919-27.398-5.306-58.923-45.103-56.952c-39.796,1.97-65.001,105.931-120.716,74.406c-55.714-31.525-35.818-88.883-98.164-81&#10;&#9;c-62.348,7.88-54.389-30.843-115.411-36.755v480.755h2191.454V557.512z" id="el_ifVHPF77ES"/></g>
<linearGradient id="SVGID_5_" gradientUnits="userSpaceOnUse" x1="749.5994" y1="1001.6553" x2="749.5994" y2="572.6787">
	<stop offset="0" style="stop-color:#7D143C"/>
	<stop offset="0.3339" style="stop-color:#7C143C"/>
	<stop offset="0.5271" style="stop-color:#76133D"/>
	<stop offset="0.6845" style="stop-color:#6C123D"/>
	<stop offset="0.8225" style="stop-color:#5E113E"/>
	<stop offset="0.9467" style="stop-color:#4E0E3F"/>
	<stop offset="1" style="stop-color:#450C3F"/>
</linearGradient>
<g id="el_8sKtuI8kNe_an_e4yy0J9Fe" data-animator-group="true" data-animator-type="0"><path d="M-418.513,658.822c0,0,76.366-25.614,113.135,9.851&#10;&#9;c36.769,35.467,87.68,65.021,87.68,65.021s90.507,19.702,101.821,0c11.312-19.703,56.566-71.087,67.88-83.814&#10;&#9;c11.314-12.732,79.194-16.672,132.932,24.705c53.74,41.376,127.276,66.99,147.075,75.856c19.798,8.867,84.85,8.867,93.337,0&#10;&#9;c8.485-8.866,19.798-14.777,45.254,0c25.455,14.777,87.68,28.569,90.507,18.718c2.829-9.851-50.911-17.733,14.141-18.718&#10;&#9;c65.052-0.985,59.395,5.659,98.994,22.04c39.597,16.382,339.403,59.728,444.052,22.293&#10;&#9;c104.649-37.437,152.732-78.814,181.015-94.576c28.283-15.762,96.164-41.376,113.133-39.405&#10;&#9;c16.972,1.971,73.538,23.643,84.852-1.971c11.312-25.614,123.72,29.219,166.148,31.189c42.424,1.97,134.821,32.857,194.216,1.333&#10;&#9;c59.397-31.525,5.838-74.383,72.305-66.5c66.466,7.88,22.697-46.254,87.749-52.166v428.977H-418.513V658.822z" id="el_8sKtuI8kNe"/></g>
<linearGradient id="SVGID_6_" gradientUnits="userSpaceOnUse" x1="810" y1="1000.3447" x2="810" y2="673.7863" gradientTransform="matrix(-1 0 0 1 1560 0)">
	<stop offset="0" style="stop-color:#5C0F3B"/>
	<stop offset="0.4026" style="stop-color:#5B0F3B"/>
	<stop offset="0.6357" style="stop-color:#570E3C"/>
	<stop offset="0.8248" style="stop-color:#500D3D"/>
	<stop offset="0.9903" style="stop-color:#460C3F"/>
	<stop offset="1" style="stop-color:#450C3F"/>
</linearGradient>
<g id="el_Ij8HxDWu1q_an_n-s2d2QO5" data-animator-group="true" data-animator-type="0"><path d="M2014.118,778.924c0,0-82.642-16.543-122.433,6.362&#10;&#9;c-39.791,22.907-94.886,41.995-94.886,41.995s-97.946,12.724-110.188,0c-12.245-12.726-61.218-45.912-73.46-54.132&#10;&#9;c-12.244-8.223-85.704-10.768-143.857,15.956c-58.157,26.723-137.739,43.265-159.164,48.991c-21.426,5.727-91.824,5.727-101.006,0&#10;&#9;c-9.182-5.726-21.426-9.543-48.973,0c-27.547,9.544-94.886,18.452-97.946,12.089c-3.062-6.362,55.095-11.453-15.304-12.089&#10;&#9;c-70.399-0.637-64.278,3.655-107.13,14.235c-42.851,10.58-367.298,38.576-480.548,14.398&#10;&#9;c-113.25-24.179-165.285-50.902-195.892-61.083c-30.608-10.18-104.068-26.723-122.433-25.45&#10;&#9;c-18.364,1.272-79.581,15.27-91.824-1.272c-12.242-16.543-21.426-25.45-42.851-24.178c-21.426,1.272-64.278,17.575-82.644-0.12&#10;&#9;c-18.364-17.695-6.12-38.056-52.033-36.783c-45.913,1.272-64.277,12.726-128.552-7.635c-64.278-20.361-33.671-40.722-105.601-35.63&#10;&#9;c-71.927,5.089-81.111,19.087-151.509,15.269v310.498h2528.235V778.924z" id="el_Ij8HxDWu1q"/></g>
</svg>