<svg width="50" height="50" viewBox="0 0 50 50" fill="none" xmlns="http://www.w3.org/2000/svg">
<rect x="0.5" y="0.5" width="49" height="49" stroke="#E0E0E0"/>
<path d="M20.5195 15H29.4809C32.5241 15 35 17.476 35 20.5192V29.4806C35 32.524 32.5241 34.9999 29.4809 34.9999H20.5195C17.476 34.9999 15.0001 32.5239 15.0001 29.4806V20.5192C15 17.476 17.476 15 20.5195 15ZM16.7745 29.4806C16.7745 31.5455 18.4545 33.2254 20.5194 33.2254H29.4809C31.5457 33.2255 33.2255 31.5455 33.2255 29.4806V20.5192C33.2255 18.4545 31.5457 16.7745 29.4809 16.7745H20.5195C18.4546 16.7745 16.7746 18.4545 16.7746 20.5192V29.4806H16.7745Z" fill="#E0E0E0"/>
<path d="M24.9999 19.8467C27.8415 19.8467 30.1533 22.1585 30.1533 25.0001C30.1533 27.8417 27.8415 30.1534 24.9999 30.1534C22.1582 30.1534 19.8464 27.8417 19.8464 25.0001C19.8464 22.1585 22.1582 19.8467 24.9999 19.8467ZM24.9999 28.3788C26.8629 28.3788 28.3788 26.8631 28.3788 25C28.3788 23.1368 26.8631 21.621 24.9999 21.621C23.1366 21.621 21.6209 23.1368 21.6209 25C21.6209 26.8631 23.1368 28.3788 24.9999 28.3788Z" fill="#E0E0E0"/>
<path d="M19.6304 18.342C19.9722 18.342 20.3081 18.4805 20.5495 18.723C20.7922 18.9643 20.9316 19.3003 20.9316 19.6433C20.9316 19.9853 20.792 20.3212 20.5495 20.5637C20.3082 20.805 19.9722 20.9446 19.6304 20.9446C19.2873 20.9446 18.9525 20.805 18.71 20.5637C18.4675 20.3212 18.3291 19.9852 18.3291 19.6433C18.3291 19.3003 18.4675 18.9643 18.71 18.723C18.9513 18.4805 19.2873 18.342 19.6304 18.342Z" fill="#E0E0E0"/>
</svg>
