<svg width="50" height="50" viewBox="0 0 50 50" fill="none" xmlns="http://www.w3.org/2000/svg">
<rect x="0.5" y="0.5" width="49" height="49" stroke="#E0E0E0"/>
<path d="M20.0898 21.9883H16.2227V33.6014H20.0898V21.9883Z" fill="#E0E0E0"/>
<path d="M32.7814 23.0492C31.9691 22.1625 30.8947 21.719 29.5589 21.719C29.0667 21.719 28.6193 21.7795 28.2169 21.9007C27.8146 22.0218 27.4748 22.1917 27.1974 22.4105C26.9201 22.6292 26.6993 22.8323 26.5354 23.0197C26.3795 23.1977 26.227 23.4051 26.0783 23.6397V21.9883H22.2227L22.2345 22.5509C22.2424 22.926 22.2463 24.0822 22.2463 26.0196C22.2463 27.9572 22.2385 30.4844 22.2228 33.6017H26.0783V27.1211C26.0783 26.7227 26.121 26.4064 26.2071 26.1718C26.3713 25.7732 26.6191 25.4394 26.9513 25.17C27.2835 24.9002 27.6955 24.7655 28.1878 24.7655C28.8595 24.7655 29.3538 24.9979 29.6703 25.4627C29.9866 25.9275 30.1448 26.5702 30.1448 27.3905V33.6013H34.0003V26.9455C34 25.2344 33.594 23.9357 32.7814 23.0492Z" fill="#E0E0E0"/>
<path d="M18.1796 16.3984C17.5313 16.3984 17.0059 16.588 16.6035 16.9668C16.2011 17.3457 16 17.8241 16 18.4023C16 18.9725 16.1953 19.4492 16.5859 19.8319C16.9764 20.2147 17.4921 20.4061 18.1327 20.4061H18.1562C18.8125 20.4061 19.3419 20.2148 19.7441 19.8319C20.1464 19.4492 20.3437 18.9727 20.3359 18.4023C20.3281 17.8241 20.1287 17.3457 19.7382 16.9668C19.3478 16.5879 18.828 16.3984 18.1796 16.3984Z" fill="#E0E0E0"/>
</svg>
