<svg width="50" height="50" viewBox="0 0 50 50" fill="none" xmlns="http://www.w3.org/2000/svg">
<rect x="0.5" y="0.5" width="49" height="49" stroke="#393A3E"/>
<path d="M20.0898 21.9884H16.2227V33.6015H20.0898V21.9884Z" fill="#808185"/>
<path d="M32.781 23.0491C31.9686 22.1624 30.8942 21.7189 29.5584 21.7189C29.0662 21.7189 28.6188 21.7795 28.2164 21.9006C27.8141 22.0217 27.4743 22.1916 27.1969 22.4104C26.9196 22.6292 26.6988 22.8323 26.5349 23.0197C26.379 23.1977 26.2265 23.4051 26.0778 23.6396V21.9883H22.2222L22.234 22.5508C22.2419 22.926 22.2458 24.0821 22.2458 26.0195C22.2458 27.9571 22.238 30.4844 22.2223 33.6016H26.0778V27.121C26.0778 26.7227 26.1205 26.4063 26.2066 26.1717C26.3708 25.7731 26.6186 25.4394 26.9508 25.1699C27.283 24.9002 27.695 24.7654 28.1873 24.7654C28.859 24.7654 29.3533 24.9978 29.6698 25.4627C29.9861 25.9275 30.1443 26.5701 30.1443 27.3904V33.6012H33.9998V26.9454C33.9995 25.2343 33.5935 23.9356 32.781 23.0491Z" fill="#808185"/>
<path d="M18.1796 16.3985C17.5313 16.3985 17.0059 16.5881 16.6035 16.9669C16.2011 17.3458 16 17.8241 16 18.4024C16 18.9725 16.1953 19.4492 16.5859 19.8319C16.9764 20.2147 17.4921 20.4062 18.1327 20.4062H18.1562C18.8125 20.4062 19.3419 20.2149 19.7441 19.8319C20.1464 19.4492 20.3437 18.9727 20.3359 18.4024C20.3281 17.8242 20.1287 17.3458 19.7382 16.9669C19.3478 16.5879 18.828 16.3985 18.1796 16.3985Z" fill="#808185"/>
</svg>
