<svg width="40" height="40" viewBox="0 0 40 40" fill="none" xmlns="http://www.w3.org/2000/svg">
<path d="M20.1311 8.76611C17.3121 8.76611 15.0176 11.0606 15.0176 13.8796C15.0176 16.6986 17.3121 18.9931 20.1311 18.9931C22.9501 18.9931 25.2446 16.6986 25.2446 13.8796C25.2446 11.0606 22.9501 8.76611 20.1311 8.76611ZM20.1311 17.5321C18.1171 17.5321 16.4786 15.8936 16.4786 13.8796C16.4786 11.8656 18.1171 10.2271 20.1311 10.2271C22.1451 10.2271 23.7836 11.8656 23.7836 13.8796C23.7836 15.8936 22.1451 17.5321 20.1311 17.5321Z" fill="black"/>
<path d="M29.9069 4.10322C27.261 1.45735 23.7429 0 20.0013 0C16.259 0 12.7416 1.45735 10.0957 4.10322C5.19919 8.99903 4.59068 18.2106 8.77791 23.7917L20.0013 40L31.2079 23.8143C35.412 18.2106 34.8034 8.99903 29.9069 4.10322ZM30.023 22.9604L20.0013 37.433L9.96351 22.9377C6.16564 17.8739 6.70987 9.55494 11.1294 5.13615C13.4991 2.7664 16.6498 1.461 20.0013 1.461C23.3529 1.461 26.5035 2.7664 28.874 5.13615C33.2935 9.55494 33.8377 17.8739 30.023 22.9604Z" fill="black"/>
</svg>
