<svg width="58" height="59" viewBox="0 0 58 59" fill="none" xmlns="http://www.w3.org/2000/svg">
<path opacity="0.9" d="M55.8099 40.7421C56.5342 43.2578 55.125 45.8719 52.6626 46.5808L18.12 56.5253C15.6574 57.2342 13.0742 55.7693 12.35 53.2536L2.19003 17.9617C1.46586 15.4461 2.87493 12.832 5.3373 12.123L39.8803 2.17864C42.3425 1.4696 44.9259 2.93464 45.6501 5.45024L55.8099 40.7421Z" stroke="#333333" stroke-width="3" stroke-miterlimit="10"/>
<path d="M26.0297 16.5012L23.0109 17.0962L21.3809 19.8794L22.98 21.7089L26.0297 16.5012Z" fill="#333333"/>
<path d="M20.5562 36.8062L21.8939 39.7411L24.8361 40.6403L22.3331 35.1489L20.5562 36.8062Z" fill="#333333"/>
<path d="M21.1802 26.8958L32.104 21.917L37.4163 16.9634L21.2637 24.3254L19.7827 22.6221L18.0617 25.5736V16.9033H14.8003V41.2987H18.0617V31.2997L19.2457 33.9141L20.8678 32.3978L36.1324 41.3375L31.3518 35.8682L20.9919 29.8017C20.4291 29.4723 20.0522 28.9464 19.8972 28.3625C20.0891 27.735 20.5361 27.1893 21.1802 26.8958Z" fill="#333333"/>
</svg>
