<svg width="37" height="37" viewBox="0 0 37 37" fill="none" xmlns="http://www.w3.org/2000/svg">
<g clip-path="url(#clip0)">
<path d="M29.549 25.501L29.4635 25.5922L29.4633 25.592C29.6021 25.7234 29.7799 25.7883 29.9571 25.7883C30.1503 25.7883 30.341 25.7116 30.4835 25.5605L30.4836 25.5604C30.7563 25.2704 30.7421 24.8129 30.4517 24.5412L30.4518 24.5413L30.3663 24.6325C30.6061 24.8568 30.618 25.235 30.3925 25.4748C30.2744 25.6001 30.1169 25.6633 29.9571 25.6633C29.8103 25.6633 29.6636 25.6096 29.549 25.501ZM29.549 25.501L29.463 25.5918M29.549 25.501L22.684 19.0608M29.463 25.5918L23.5013 18.1922C23.2591 17.9655 22.8832 17.9762 22.6578 18.2184M29.463 25.5918L22.5986 19.152L22.684 19.0608M29.463 25.5918L22.5986 19.152L22.5985 19.1519L22.684 19.0608M22.684 19.0608C22.4442 18.8365 22.4323 18.4582 22.6578 18.2184M22.6578 18.2184L22.5663 18.1333C22.8395 17.8397 23.2947 17.8276 23.5867 18.1009L23.5868 18.101L30.4517 24.5412L22.6578 18.2184Z" fill="white" stroke="white" stroke-width="0.25"/>
<path d="M6.51505 25.5603L6.51493 25.5602C6.24219 25.2701 6.25639 24.8126 6.54686 24.5409M6.51505 25.5603L6.63224 24.6322M6.51505 25.5603C6.6576 25.7115 6.84958 25.7881 7.04147 25.7881C7.21862 25.7881 7.39645 25.7232 7.53522 25.5918L7.53501 25.592L7.44951 25.5008L7.5355 25.5915L14.4023 19.1518M6.51505 25.5603L14.4023 19.1518M6.54686 24.5409L6.63224 24.6322M6.54686 24.5409L6.54673 24.5411L6.63224 24.6322M6.54686 24.5409L13.4141 18.1008L13.4145 18.1005C13.7048 17.8303 14.162 17.8404 14.4344 18.1328M6.63224 24.6322L13.4996 18.192C13.7407 17.9677 14.1189 17.9772 14.3432 18.2182M14.4344 18.1328C14.4344 18.1327 14.4343 18.1327 14.4342 18.1326L14.3432 18.2182M14.4344 18.1328C14.4345 18.1329 14.4346 18.133 14.4347 18.133L14.3432 18.2182M14.4344 18.1328C14.7069 18.4229 14.6927 18.8802 14.4024 19.1518L14.4024 19.1517L14.3169 19.0605M14.3432 18.2182C14.5687 18.458 14.5567 18.8362 14.3169 19.0605M14.3169 19.0605L14.4023 19.1518M14.3169 19.0605L14.4023 19.1518" fill="white" stroke="white" stroke-width="0.25"/>
<path d="M2.98272 31.7764H34.0173C35.7304 31.7764 37.125 30.383 37.125 28.6687V8.33013C37.125 6.61579 35.7304 5.22241 34.0173 5.22241H2.98272C1.26964 5.22241 -0.125 6.61579 -0.125 8.33013V28.6687C-0.125 30.383 1.26964 31.7764 2.98272 31.7764ZM1.31809 8.33013C1.31809 7.41248 2.06507 6.6655 2.98272 6.6655H34.0173C34.9349 6.6655 35.6819 7.41248 35.6819 8.33013V28.6687C35.6819 29.5863 34.9349 30.3333 34.0173 30.3333H2.98272C2.06507 30.3333 1.31809 29.5863 1.31809 28.6687V8.33013Z" fill="white" stroke="white" stroke-width="0.25"/>
<path d="M16.2275 20.8014L16.2274 20.8014L0.908308 7.43773C0.908294 7.43772 0.908281 7.4377 0.908267 7.43769L0.908192 7.43763L0.990364 7.34343L16.2275 20.8014ZM16.2275 20.8014C16.8564 21.3496 17.68 21.622 18.5001 21.622C19.3203 21.622 20.1427 21.3495 20.7728 20.8002L20.6906 20.706M16.2275 20.8014L20.6906 20.706M20.6906 20.706L20.7728 20.8002L36.0729 7.45912L36.0731 7.45898C36.3733 7.19629 36.4032 6.74182 36.1425 6.44075L36.1418 6.43999C35.877 6.13917 35.4225 6.10974 35.1234 6.37122L19.8234 19.7122L19.8233 19.7123C19.1093 20.3357 17.8909 20.3357 17.1756 19.7122L20.6906 20.706Z" fill="white" stroke="white" stroke-width="0.25"/>
</g>
<defs>
<clipPath id="clip0">
<rect width="37" height="37" fill="white"/>
</clipPath>
</defs>
</svg>
