<svg width="46" height="46" viewBox="0 0 46 46" fill="none" xmlns="http://www.w3.org/2000/svg">
<g clip-path="url(#clip0)">
<path d="M29.303 22.526L29.3029 22.5259C28.952 22.1975 28.4054 22.2122 28.0773 22.5646L28.1688 22.6498L28.0777 22.5642C27.7501 22.9126 27.7672 23.462 28.1159 23.7883C28.116 23.7883 28.116 23.7883 28.116 23.7883L36.6503 31.7946C36.6504 31.7947 36.6505 31.7948 36.6506 31.7949C36.8173 31.9527 37.0308 32.0306 37.2436 32.0306C37.4757 32.0306 37.7047 31.9385 37.8759 31.757L37.876 31.7568C38.2036 31.4085 38.1865 30.859 37.8378 30.5328C37.8378 30.5328 37.8377 30.5327 37.8377 30.5327L29.303 22.526Z" fill="black" stroke="white" stroke-width="0.25"/>
<path d="M8.12163 31.7561L8.12175 31.7563C8.29303 31.9379 8.52361 32.0299 8.7541 32.0299C8.96698 32.0299 9.18054 31.9519 9.34718 31.7941C9.34725 31.794 9.34732 31.7939 9.34738 31.7939L17.8846 23.7876C18.2334 23.4614 18.2505 22.9121 17.9232 22.5637C17.5962 22.2126 17.047 22.2002 16.698 22.525L16.6977 22.5253L8.15995 30.532C7.81115 30.8582 7.79404 31.4077 8.12163 31.7561Z" fill="black" stroke="white" stroke-width="0.25"/>
<path d="M3.70824 39.4752H42.2918C44.4047 39.4752 46.125 37.7565 46.125 35.642V10.3562C46.125 8.24166 44.4047 6.52295 42.2918 6.52295H3.70824C1.59526 6.52295 -0.125 8.24166 -0.125 10.3562V35.642C-0.125 37.7565 1.59526 39.4752 3.70824 39.4752ZM1.6083 10.3562C1.6083 9.19854 2.55059 8.25625 3.70824 8.25625H42.2918C43.4494 8.25625 44.3917 9.19854 44.3917 10.3562V35.642C44.3917 36.7996 43.4494 37.7419 42.2918 37.7419H3.70824C2.55059 37.7419 1.6083 36.7996 1.6083 35.642V10.3562Z" fill="black" stroke="white" stroke-width="0.25"/>
<path d="M20.1944 25.8379L20.1945 25.8379C20.9703 26.5141 21.9868 26.8506 22.9999 26.8506C24.0131 26.8506 25.0282 26.514 25.8054 25.8364L25.7233 25.7422L25.8054 25.8364L44.8272 9.25019L44.8274 9.25004C45.188 8.93453 45.224 8.38865 44.9108 8.02693L44.9101 8.02617C44.5919 7.66473 44.046 7.62947 43.6869 7.94335C43.6869 7.94339 43.6868 7.94343 43.6868 7.94347L24.6651 24.5296L24.6651 24.5296C23.7658 25.3147 22.2341 25.3148 21.3333 24.5296L2.28777 7.91667L2.28777 7.91666L2.28714 7.91612C1.92737 7.60651 1.38183 7.63887 1.06455 7.9995L1.06455 7.99949L1.06391 8.00023C0.750498 8.36212 0.788303 8.90963 1.14898 9.22353C1.14899 9.22354 1.14901 9.22356 1.14902 9.22357L20.1944 25.8379Z" fill="black" stroke="white" stroke-width="0.25"/>
</g>
<defs>
<clipPath id="clip0">
<rect width="46" height="46" fill="white"/>
</clipPath>
</defs>
</svg>
