<svg width="46" height="46" viewBox="0 0 46 46" fill="none" xmlns="http://www.w3.org/2000/svg">
<path d="M43.2231 2.51001H2.77699C1.24578 2.51001 0 3.75579 0 5.287V33.2122C0 34.7434 1.24578 35.9892 2.77699 35.9892H16.6363V38.0098C16.6363 39.8621 15.1293 41.3691 13.277 41.3691H10.2225C9.63693 41.3691 9.1621 41.8439 9.1621 42.4295C9.1621 43.0152 9.63693 43.49 10.2225 43.49H35.7774C36.363 43.49 36.8378 43.0152 36.8378 42.4295C36.8378 41.8439 36.363 41.3691 35.7774 41.3691H32.7229C30.8706 41.3691 29.3635 39.8621 29.3635 38.0098V35.9893H43.2228C44.754 35.9893 45.9999 34.7435 45.9999 33.2123V5.287C46.0001 3.75579 44.7543 2.51001 43.2231 2.51001ZM17.6022 41.3693C18.3251 40.4407 18.7573 39.2752 18.7573 38.0099V35.9894H27.2428V38.0099C27.2428 39.2752 27.6751 40.4408 28.398 41.3693H17.6022ZM43.8792 33.2123C43.8792 33.5741 43.5849 33.8685 43.223 33.8685H2.77699C2.41518 33.8685 2.12077 33.5742 2.12077 33.2123V27.639H43.8792V33.2123ZM43.8792 25.518H2.12086V5.287C2.12086 4.92519 2.41518 4.63078 2.77708 4.63078H43.223C43.5848 4.63078 43.8793 4.9251 43.8793 5.287V25.518H43.8792Z" fill="black"/>
<path d="M22.9999 31.8985C23.632 31.8985 24.1443 31.3861 24.1443 30.7541C24.1443 30.122 23.632 29.6096 22.9999 29.6096C22.3678 29.6096 21.8555 30.122 21.8555 30.7541C21.8555 31.3861 22.3678 31.8985 22.9999 31.8985Z" fill="black"/>
<path d="M23.759 9.99999L20.6895 20.7272L22.163 21.1488L25.2325 10.4216L23.759 9.99999Z" fill="black"/>
<path d="M18.857 12.3169L17.8757 11.1393L13.2757 14.9726C12.9505 15.2438 12.9067 15.7272 13.1779 16.0525C13.2075 16.0879 13.2402 16.1207 13.2757 16.1502L17.8757 19.9836L18.857 18.806L14.9639 15.5614L18.857 12.3169Z" fill="black"/>
<path d="M32.7553 15.0704C32.7257 15.0349 32.693 15.0021 32.6575 14.9726L28.0575 11.1393L27.0762 12.3169L30.9693 15.5614L27.0762 18.806L28.0575 19.9836L32.6575 16.1502C32.9827 15.879 33.0265 15.3956 32.7553 15.0704Z" fill="black"/>
</svg>
