<svg width="3321" height="900" viewBox="0 0 3321 900" fill="none" xmlns="http://www.w3.org/2000/svg">
<path fill-rule="evenodd" clip-rule="evenodd" d="M1530 360C1446.13 360 1375.65 302.632 1355.67 225H1149.36C1105.37 225 1067.82 256.808 1060.59 300.203L1053.19 344.595C1046.17 386.737 1024.85 423.412 994.695 450C1024.85 476.588 1046.17 513.263 1053.19 555.405L1060.59 599.797C1067.82 643.192 1105.37 675 1149.36 675H1175.67C1195.65 597.368 1266.13 540 1350 540C1449.41 540 1530 620.587 1530 720C1530 819.413 1449.41 900 1350 900C1266.13 900 1195.65 842.632 1175.67 765H1149.36C1061.37 765 986.28 701.385 971.812 614.595L964.41 570.203C957.18 526.808 919.635 495 875.64 495H804.33C784.35 572.632 713.872 630 630 630C546.128 630 475.65 572.632 455.67 495H354.33C334.35 572.632 263.872 630 180 630C80.589 630 0 549.413 0 450C0 350.587 80.589 270 180 270C263.872 270 334.35 327.368 354.33 405H455.67C475.65 327.368 546.128 270 630 270C713.872 270 784.35 327.368 804.33 405H875.64C919.635 405 957.18 373.192 964.41 329.797L971.812 285.405C986.28 198.615 1061.37 135 1149.36 135H1355.67C1375.65 57.3675 1446.13 0 1530 0C1629.41 0 1710 80.5875 1710 180C1710 279.413 1629.41 360 1530 360ZM1530 270C1579.7 270 1620 229.702 1620 180C1620 130.298 1579.7 90 1530 90C1480.3 90 1440 130.298 1440 180C1440 229.702 1480.3 270 1530 270ZM180 540C229.702 540 270 499.702 270 450C270 400.298 229.702 360 180 360C130.295 360 90 400.298 90 450C90 499.702 130.295 540 180 540ZM720 450C720 499.702 679.702 540 630 540C580.298 540 540 499.702 540 450C540 400.298 580.298 360 630 360C679.702 360 720 400.298 720 450ZM1440 720C1440 769.702 1399.7 810 1350 810C1300.3 810 1260 769.702 1260 720C1260 670.298 1300.3 630 1350 630C1399.7 630 1440 670.298 1440 720Z" fill="#E0E0E0"/>
<path fill-rule="evenodd" clip-rule="evenodd" d="M2790.13 389.153V384.87C2821.53 369.143 2852.93 341.978 2852.93 288.368C2852.93 211.163 2789.41 164.7 2701.63 164.7C2611.71 164.7 2547.48 214.02 2547.48 289.793C2547.48 341.265 2577.45 369.143 2610.29 384.87V389.153C2573.89 402.023 2530.35 440.625 2530.35 504.96C2530.35 582.87 2594.58 637.2 2700.92 637.2C2807.26 637.2 2869.35 582.87 2869.35 504.96C2869.35 440.625 2826.53 402.735 2790.13 389.153ZM2700.92 230.468C2736.61 230.468 2763.01 253.335 2763.01 291.938C2763.01 330.54 2735.89 353.415 2700.92 353.415C2665.95 353.415 2636.69 330.54 2636.69 291.938C2636.69 252.623 2664.52 230.468 2700.92 230.468ZM2700.92 568.575C2659.52 568.575 2625.98 542.13 2625.98 497.093C2625.98 456.353 2653.82 425.61 2700.2 425.61C2745.89 425.61 2773.72 455.633 2773.72 498.525C2773.72 542.13 2741.6 568.575 2700.92 568.575Z" fill="#E0E0E0"/>
<path d="M2979.45 630.052H3070.8V436.335C3070.8 372.712 3109.34 344.835 3152.87 344.835C3195.7 344.835 3229.24 373.432 3229.24 432.045V630.052H3320.59V413.46C3320.59 319.815 3266.35 265.492 3181.43 265.492C3127.9 265.492 3097.92 286.935 3076.51 314.812H3070.8L3062.95 272.64H2979.45V630.052Z" fill="#E0E0E0"/>
<path d="M2170.8 630.052H2079.45V272.64H2162.95L2170.8 314.812H2176.51C2197.92 286.935 2227.9 265.492 2281.42 265.492C2366.35 265.492 2420.59 319.815 2420.59 413.46V630.052H2329.24V432.045C2329.24 373.432 2295.7 344.835 2252.87 344.835C2209.34 344.835 2170.8 372.712 2170.8 436.335V630.052Z" fill="#E0E0E0"/>
</svg>
