<svg width="4430" height="900" viewBox="0 0 4430 900" fill="none" xmlns="http://www.w3.org/2000/svg">
<g clip-path="url(#clip0_25_29)">
<path d="M2944.35 3.89966H3715.83V146.295H3409.79V895.415H3256.76V146.295H2944.35V3.89966ZM1675.56 3.89966V146.295H1057.17V375.362H1554.48V517.758H1057.17V753.019H1675.56V895.426H904.15V146.295H904.083V3.89966H1675.56ZM2060.78 4.27063H1860.53L2577.8 895.786H2778.64L2419.96 450.332L2778.07 4.94511L2577.8 5.25987L2319.7 325.821L2060.78 4.27063ZM2266.28 641.088L2165.99 516.398L1859.96 896.471H2060.78L2266.28 641.088Z" fill="#E0E0E0"/>
<path fill-rule="evenodd" clip-rule="evenodd" d="M909.512 895.415L191.273 3.52881H0V895.044H153.019V194.094L717.284 895.415H909.512Z" fill="#E0E0E0"/>
<path d="M3750.23 889.974C3744.9 890.06 3739.62 889.073 3734.68 887.073C3729.75 885.072 3725.27 882.098 3721.51 878.328C3713.52 870.56 3709.58 861.162 3709.68 850.022C3709.58 839.196 3713.52 829.899 3721.51 822.132C3725.27 818.362 3729.75 815.388 3734.68 813.387C3739.62 811.386 3744.9 810.399 3750.23 810.485C3761.01 810.485 3770.44 814.364 3778.42 822.132C3786.52 829.888 3790.55 839.196 3790.66 850.022C3790.64 857.126 3788.67 864.088 3784.95 870.144C3781.31 876.127 3776.21 881.086 3770.13 884.555C3764.11 888.149 3757.23 890.023 3750.23 889.974ZM4011.4 514.397H4079.21V775.648C4079.11 799.649 4073.91 820.187 4063.76 837.454C4053.5 854.721 4039.29 867.896 4021.05 877.192C4002.9 886.388 3981.64 891.098 3957.49 891.098C3935.4 891.098 3915.6 887.107 3897.97 879.339C3880.35 871.583 3866.35 859.937 3856.09 844.603C3845.71 829.281 3840.63 810.171 3840.63 787.294H3908.55C3908.65 797.299 3910.94 805.989 3915.29 813.24C3919.57 820.412 3925.84 826.194 3933.33 829.888C3941.1 833.778 3950.02 835.723 3960.07 835.723C3970.97 835.723 3980.3 833.474 3987.86 828.865C3995.43 824.369 4001.24 817.624 4005.29 808.642C4009.22 799.761 4011.3 788.722 4011.4 775.648V514.397ZM4358.21 616.57C4356.56 600.731 4349.3 588.366 4336.65 579.586C4323.89 570.705 4307.41 566.299 4287.19 566.299C4272.99 566.299 4260.76 568.446 4250.6 572.639C4240.43 576.933 4232.55 582.644 4227.16 589.906C4221.77 597.156 4219.08 605.43 4218.86 614.727C4218.86 622.495 4220.73 629.228 4224.36 634.849C4227.99 640.582 4232.86 645.382 4239.19 649.26C4245.69 653.36 4252.65 656.687 4259.93 659.175C4267.59 661.828 4275.27 664.077 4282.94 665.92L4318.29 674.599C4332.38 677.802 4346.16 682.249 4359.46 687.886C4372.25 693.177 4384.22 700.263 4395.02 708.93C4405.38 717.273 4413.86 727.717 4419.9 739.574C4426.02 751.535 4429.13 765.531 4429.13 781.674C4429.13 803.437 4423.54 822.536 4412.23 839.095C4400.93 855.541 4384.65 868.413 4363.29 877.709C4342.03 886.905 4316.33 891.604 4286.05 891.604C4256.81 891.604 4231.31 887.107 4209.85 878.114C4188.29 869.233 4171.48 856.148 4159.35 838.994C4147.22 821.828 4140.69 800.885 4139.76 776.266H4206.95C4207.88 789.127 4212.03 799.862 4219.08 808.541C4226.23 817.118 4235.56 823.458 4246.97 827.752C4258.48 831.934 4271.33 834.081 4285.54 834.081C4300.36 834.081 4313.43 831.833 4324.72 827.449C4335.92 823.053 4344.73 816.916 4351.06 808.945C4357.49 801.076 4360.71 791.791 4360.81 781.157C4360.71 771.455 4357.8 763.384 4352.2 757.044C4346.5 750.715 4338.62 745.397 4328.56 741.114C4317.05 736.363 4305.2 732.504 4293.1 729.569L4250.18 718.733C4219.18 710.864 4194.6 698.914 4176.66 682.872C4158.63 666.831 4149.7 645.585 4149.7 618.909C4149.7 597.055 4155.72 577.844 4167.86 561.397C4179.88 544.951 4196.37 532.169 4217.21 523.086C4238.15 513.891 4261.79 509.394 4288.12 509.394C4314.88 509.394 4338.3 513.891 4358.53 523.086C4378.74 532.181 4394.61 544.85 4406.11 560.993C4417.62 577.135 4423.64 595.616 4423.95 616.57H4358.21Z" fill="#E0E0E0"/>
</g>
<defs>
<clipPath id="clip0_25_29">
<rect width="4429.13" height="900" fill="white"/>
</clipPath>
</defs>
</svg>
