<svg width="974" height="773" viewBox="0 0 974 773" fill="none" xmlns="http://www.w3.org/2000/svg">
<path d="M973.497 771H64.4971V773H973.497V771Z" fill="#3F3D56"/>
<path d="M558.997 584.5H329.997C328.141 584.5 326.36 583.763 325.047 582.45C323.735 581.137 322.997 579.357 322.997 577.5C322.997 575.643 323.735 573.863 325.047 572.55C326.36 571.238 328.141 570.5 329.997 570.5H558.997C560.854 570.5 562.634 571.238 563.947 572.55C565.26 573.863 565.997 575.643 565.997 577.5C565.997 579.357 565.26 581.137 563.947 582.45C562.634 583.763 560.854 584.5 558.997 584.5Z" fill="#F2F2F2"/>
<path d="M490.997 584.5H328.997C327.141 584.5 325.36 583.763 324.047 582.45C322.735 581.137 321.997 579.357 321.997 577.5C321.997 575.643 322.735 573.863 324.047 572.55C325.36 571.238 327.141 570.5 328.997 570.5H490.997C492.854 570.5 494.634 571.238 495.947 572.55C497.26 573.863 497.997 575.643 497.997 577.5C497.997 579.357 497.26 581.137 495.947 582.45C494.634 583.763 492.854 584.5 490.997 584.5Z" fill="#EAD942"/>
<path d="M653.997 570.5H651.997V584.5H653.997V570.5Z" fill="#EAD942"/>
<path d="M668.997 585.5C667.415 585.5 665.868 585.031 664.553 584.152C663.237 583.273 662.212 582.023 661.606 580.561C661.001 579.1 660.842 577.491 661.151 575.939C661.459 574.387 662.221 572.962 663.34 571.843C664.459 570.724 665.885 569.962 667.436 569.654C668.988 569.345 670.597 569.503 672.059 570.109C673.52 570.714 674.77 571.74 675.649 573.055C676.528 574.371 676.997 575.918 676.997 577.5C676.995 579.621 676.151 581.654 674.651 583.154C673.151 584.654 671.118 585.498 668.997 585.5ZM668.997 571.5C667.81 571.5 666.65 571.852 665.664 572.511C664.677 573.17 663.908 574.108 663.454 575.204C663 576.3 662.881 577.507 663.112 578.671C663.344 579.834 663.915 580.904 664.754 581.743C665.594 582.582 666.663 583.153 667.827 583.385C668.99 583.616 670.197 583.497 671.293 583.043C672.39 582.589 673.327 581.82 673.986 580.833C674.645 579.847 674.997 578.687 674.997 577.5C674.995 575.909 674.363 574.384 673.238 573.259C672.113 572.134 670.588 571.502 668.997 571.5Z" fill="#EAD942"/>
<path d="M668.997 581.5C671.206 581.5 672.997 579.709 672.997 577.5C672.997 575.291 671.206 573.5 668.997 573.5C666.788 573.5 664.997 575.291 664.997 577.5C664.997 579.709 666.788 581.5 668.997 581.5Z" fill="#EAD942"/>
<path d="M693.997 512.5H691.997V531H693.997V512.5Z" fill="#F2F2F2"/>
<path d="M700.997 207.5H698.997V226H700.997V207.5Z" fill="#F2F2F2"/>
<path d="M289.997 283.5H287.997V302H289.997V283.5Z" fill="#F2F2F2"/>
<path d="M281 173V645H717V173H281ZM499 207.072C496.033 207.072 493.133 206.191 490.666 204.539C488.2 202.887 486.277 200.54 485.142 197.793C484.007 195.046 483.709 192.024 484.288 189.108C484.867 186.192 486.296 183.513 488.393 181.411C490.491 179.309 493.164 177.877 496.074 177.297C498.983 176.717 501.999 177.015 504.74 178.153C507.481 179.29 509.824 181.217 511.472 183.689C513.12 186.161 514 189.067 514 192.04C514 196.027 512.42 199.85 509.607 202.669C506.794 205.489 502.978 207.072 499 207.072Z" fill="#3F3D56"/>
<path d="M281 301V773H717V301H281ZM499 335.072C496.033 335.072 493.133 334.191 490.666 332.539C488.2 330.887 486.277 328.54 485.142 325.793C484.007 323.046 483.709 320.024 484.288 317.108C484.867 314.192 486.296 311.513 488.393 309.411C490.491 307.309 493.164 305.877 496.074 305.297C498.983 304.717 501.999 305.015 504.74 306.153C507.481 307.29 509.824 309.217 511.472 311.689C513.12 314.161 514 317.067 514 320.04C514 324.027 512.42 327.85 509.607 330.669C506.794 333.489 502.978 335.072 499 335.072Z" fill="#3F3D56"/>
<path d="M558.997 297H329.997C328.141 297 326.36 296.263 325.047 294.95C323.735 293.637 322.997 291.857 322.997 290C322.997 288.143 323.735 286.363 325.047 285.05C326.36 283.738 328.141 283 329.997 283H558.997C560.854 283 562.634 283.738 563.947 285.05C565.26 286.363 565.997 288.143 565.997 290C565.997 291.857 565.26 293.637 563.947 294.95C562.634 296.263 560.854 297 558.997 297Z" fill="#F2F2F2"/>
<path d="M558.997 370H329.997C328.141 370 326.36 369.263 325.047 367.95C323.735 366.637 322.997 364.857 322.997 363C322.997 361.143 323.735 359.363 325.047 358.05C326.36 356.738 328.141 356 329.997 356H558.997C560.854 356 562.634 356.738 563.947 358.05C565.26 359.363 565.997 361.143 565.997 363C565.997 364.857 565.26 366.637 563.947 367.95C562.634 369.263 560.854 370 558.997 370Z" fill="#F2F2F2"/>
<path d="M558.997 441H329.997C328.141 441 326.36 440.263 325.047 438.95C323.735 437.637 322.997 435.857 322.997 434C322.997 432.143 323.735 430.363 325.047 429.05C326.36 427.738 328.141 427 329.997 427H558.997C560.854 427 562.634 427.738 563.947 429.05C565.26 430.363 565.997 432.143 565.997 434C565.997 435.857 565.26 437.637 563.947 438.95C562.634 440.263 560.854 441 558.997 441Z" fill="#F2F2F2"/>
<path d="M558.997 513H329.997C328.141 513 326.36 512.263 325.047 510.95C323.735 509.637 322.997 507.857 322.997 506C322.997 504.143 323.735 502.363 325.047 501.05C326.36 499.738 328.141 499 329.997 499H558.997C560.854 499 562.634 499.738 563.947 501.05C565.26 502.363 565.997 504.143 565.997 506C565.997 507.857 565.26 509.637 563.947 510.95C562.634 512.263 560.854 513 558.997 513Z" fill="#F2F2F2"/>
<path d="M493.892 297H328.108C326.488 297 324.934 296.263 323.789 294.95C322.644 293.637 322 291.857 322 290C322 288.143 322.644 286.363 323.789 285.05C324.934 283.738 326.488 283 328.108 283H493.892C495.512 283 497.066 283.738 498.211 285.05C499.357 286.363 500 288.143 500 290C500 291.857 499.357 293.637 498.211 294.95C497.066 296.263 495.512 297 493.892 297Z" fill="#38D39F"/>
<path d="M520 370H330C328.143 370 326.363 369.263 325.05 367.95C323.738 366.637 323 364.857 323 363C323 361.143 323.738 359.363 325.05 358.05C326.363 356.738 328.143 356 330 356H520C521.856 356 523.637 356.738 524.95 358.05C526.262 359.363 527 361.143 527 363C527 364.857 526.262 366.637 524.95 367.95C523.637 369.263 521.856 370 520 370Z" fill="#38D39F"/>
<path d="M461 513H330C328.143 513 326.363 512.263 325.05 510.95C323.738 509.637 323 507.857 323 506C323 504.143 323.738 502.363 325.05 501.05C326.363 499.738 328.143 499 330 499H461C462.856 499 464.637 499.738 465.95 501.05C467.262 502.363 468 504.143 468 506C468 507.857 467.262 509.637 465.95 510.95C464.637 512.263 462.856 513 461 513Z" fill="#38D39F"/>
<path d="M537 441H329C327.143 441 325.363 440.263 324.05 438.95C322.738 437.637 322 435.857 322 434C322 432.143 322.738 430.363 324.05 429.05C325.363 427.738 327.143 427 329 427H537C538.856 427 540.637 427.738 541.95 429.05C543.262 430.363 544 432.143 544 434C544 435.857 543.262 437.637 541.95 438.95C540.637 440.263 538.856 441 537 441Z" fill="#38D39F"/>
<path d="M653.997 283H651.997V297H653.997V283Z" fill="#38D39F"/>
<path d="M668.997 298C667.415 298 665.868 297.531 664.553 296.652C663.237 295.773 662.212 294.523 661.606 293.061C661.001 291.6 660.842 289.991 661.151 288.439C661.459 286.887 662.221 285.462 663.34 284.343C664.459 283.224 665.885 282.462 667.436 282.154C668.988 281.845 670.597 282.003 672.059 282.609C673.52 283.214 674.77 284.24 675.649 285.555C676.528 286.871 676.997 288.418 676.997 290C676.995 292.121 676.151 294.154 674.651 295.654C673.151 297.154 671.118 297.998 668.997 298ZM668.997 284C667.81 284 666.65 284.352 665.664 285.011C664.677 285.67 663.908 286.608 663.454 287.704C663 288.8 662.881 290.007 663.112 291.171C663.344 292.334 663.915 293.404 664.754 294.243C665.594 295.082 666.663 295.653 667.827 295.885C668.99 296.116 670.197 295.997 671.293 295.543C672.39 295.089 673.327 294.32 673.986 293.333C674.645 292.347 674.997 291.187 674.997 290C674.995 288.409 674.363 286.884 673.238 285.759C672.113 284.634 670.588 284.002 668.997 284Z" fill="#38D39F"/>
<path d="M653.997 355H651.997V369H653.997V355Z" fill="#38D39F"/>
<path d="M668.997 370C667.415 370 665.868 369.531 664.553 368.652C663.237 367.773 662.212 366.523 661.606 365.061C661.001 363.6 660.842 361.991 661.151 360.439C661.459 358.887 662.221 357.462 663.34 356.343C664.459 355.224 665.885 354.462 667.436 354.154C668.988 353.845 670.597 354.003 672.059 354.609C673.52 355.214 674.77 356.24 675.649 357.555C676.528 358.871 676.997 360.418 676.997 362C676.995 364.121 676.151 366.154 674.651 367.654C673.151 369.154 671.118 369.998 668.997 370ZM668.997 356C667.81 356 666.65 356.352 665.664 357.011C664.677 357.67 663.908 358.608 663.454 359.704C663 360.8 662.881 362.007 663.112 363.171C663.344 364.334 663.915 365.404 664.754 366.243C665.594 367.082 666.663 367.653 667.827 367.885C668.99 368.116 670.197 367.997 671.293 367.543C672.39 367.089 673.327 366.32 673.986 365.333C674.645 364.347 674.997 363.187 674.997 362C674.995 360.409 674.363 358.884 673.238 357.759C672.113 356.634 670.588 356.002 668.997 356Z" fill="#38D39F"/>
<path d="M653.997 426H651.997V440H653.997V426Z" fill="#38D39F"/>
<path d="M668.997 441C667.415 441 665.868 440.531 664.553 439.652C663.237 438.773 662.212 437.523 661.606 436.061C661.001 434.6 660.842 432.991 661.151 431.439C661.459 429.887 662.221 428.462 663.34 427.343C664.459 426.224 665.885 425.462 667.436 425.154C668.988 424.845 670.597 425.003 672.059 425.609C673.52 426.214 674.77 427.24 675.649 428.555C676.528 429.871 676.997 431.418 676.997 433C676.995 435.121 676.151 437.154 674.651 438.654C673.151 440.154 671.118 440.998 668.997 441ZM668.997 427C667.81 427 666.65 427.352 665.664 428.011C664.677 428.67 663.908 429.608 663.454 430.704C663 431.8 662.881 433.007 663.112 434.171C663.344 435.334 663.915 436.404 664.754 437.243C665.594 438.082 666.663 438.653 667.827 438.885C668.99 439.116 670.197 438.997 671.293 438.543C672.39 438.089 673.327 437.32 673.986 436.333C674.645 435.347 674.997 434.187 674.997 433C674.995 431.409 674.363 429.884 673.238 428.759C672.113 427.634 670.588 427.002 668.997 427Z" fill="#38D39F"/>
<path d="M653.997 498H651.997V512H653.997V498Z" fill="#38D39F"/>
<path d="M668.997 513C667.415 513 665.868 512.531 664.553 511.652C663.237 510.773 662.212 509.523 661.606 508.061C661.001 506.6 660.842 504.991 661.151 503.439C661.459 501.887 662.221 500.462 663.34 499.343C664.459 498.224 665.885 497.462 667.436 497.154C668.988 496.845 670.597 497.003 672.059 497.609C673.52 498.214 674.77 499.24 675.649 500.555C676.528 501.871 676.997 503.418 676.997 505C676.995 507.121 676.151 509.154 674.651 510.654C673.151 512.154 671.118 512.998 668.997 513ZM668.997 499C667.81 499 666.65 499.352 665.664 500.011C664.677 500.67 663.908 501.608 663.454 502.704C663 503.8 662.881 505.007 663.112 506.171C663.344 507.334 663.915 508.404 664.754 509.243C665.594 510.082 666.663 510.653 667.827 510.885C668.99 511.116 670.197 510.997 671.293 510.543C672.39 510.089 673.327 509.32 673.986 508.333C674.645 507.347 674.997 506.187 674.997 505C674.995 503.409 674.363 501.884 673.238 500.759C672.113 499.634 670.588 499.002 668.997 499Z" fill="#38D39F"/>
<path d="M499.497 199C503.363 199 506.497 195.866 506.497 192C506.497 188.134 503.363 185 499.497 185C495.631 185 492.497 188.134 492.497 192C492.497 195.866 495.631 199 499.497 199Z" fill="#3F3D56"/>
<path d="M499.497 14C503.363 14 506.497 10.866 506.497 7C506.497 3.13401 503.363 0 499.497 0C495.631 0 492.497 3.13401 492.497 7C492.497 10.866 495.631 14 499.497 14Z" fill="#3F3D56"/>
<path d="M500.497 7H498.497V192H500.497V7Z" fill="#3F3D56"/>
<path d="M330.56 254C332.373 254 333.8 254.433 334.84 255.3C335.88 256.167 336.4 257.36 336.4 258.88C336.4 260.4 335.88 261.593 334.84 262.46C333.8 263.327 332.373 263.76 330.56 263.76H327.1V268H325.1V254H330.56ZM330.5 262.02C331.767 262.02 332.733 261.753 333.4 261.22C334.067 260.673 334.4 259.893 334.4 258.88C334.4 257.867 334.067 257.093 333.4 256.56C332.733 256.013 331.767 255.74 330.5 255.74H327.1V262.02H330.5ZM344.914 257.3C346.26 257.3 347.327 257.693 348.114 258.48C348.914 259.253 349.314 260.393 349.314 261.9V268H347.394V262.12C347.394 261.093 347.147 260.32 346.654 259.8C346.16 259.28 345.454 259.02 344.534 259.02C343.494 259.02 342.674 259.327 342.074 259.94C341.474 260.54 341.174 261.407 341.174 262.54V268H339.254V253.16H341.174V258.9C341.574 258.393 342.094 258 342.734 257.72C343.387 257.44 344.114 257.3 344.914 257.3ZM357.465 268.12C356.412 268.12 355.465 267.887 354.625 267.42C353.785 266.953 353.125 266.313 352.645 265.5C352.179 264.673 351.945 263.74 351.945 262.7C351.945 261.66 352.179 260.733 352.645 259.92C353.125 259.093 353.785 258.453 354.625 258C355.465 257.533 356.412 257.3 357.465 257.3C358.519 257.3 359.459 257.533 360.285 258C361.125 258.453 361.779 259.093 362.245 259.92C362.725 260.733 362.965 261.66 362.965 262.7C362.965 263.74 362.725 264.673 362.245 265.5C361.779 266.313 361.125 266.953 360.285 267.42C359.459 267.887 358.519 268.12 357.465 268.12ZM357.465 266.44C358.145 266.44 358.752 266.287 359.285 265.98C359.832 265.66 360.259 265.22 360.565 264.66C360.872 264.087 361.025 263.433 361.025 262.7C361.025 261.967 360.872 261.32 360.565 260.76C360.259 260.187 359.832 259.747 359.285 259.44C358.752 259.133 358.145 258.98 357.465 258.98C356.785 258.98 356.172 259.133 355.625 259.44C355.092 259.747 354.665 260.187 354.345 260.76C354.039 261.32 353.885 261.967 353.885 262.7C353.885 263.433 354.039 264.087 354.345 264.66C354.665 265.22 355.092 265.66 355.625 265.98C356.172 266.287 356.785 266.44 357.465 266.44ZM371.581 267.38C371.301 267.62 370.954 267.807 370.541 267.94C370.127 268.06 369.701 268.12 369.261 268.12C368.194 268.12 367.367 267.833 366.781 267.26C366.194 266.687 365.901 265.867 365.901 264.8V258.98H364.101V257.4H365.901V255.08H367.821V257.4H370.861V258.98H367.821V264.72C367.821 265.293 367.961 265.733 368.241 266.04C368.534 266.347 368.947 266.5 369.481 266.5C370.067 266.5 370.567 266.333 370.981 266L371.581 267.38ZM378.09 268.12C377.037 268.12 376.09 267.887 375.25 267.42C374.41 266.953 373.75 266.313 373.27 265.5C372.804 264.673 372.57 263.74 372.57 262.7C372.57 261.66 372.804 260.733 373.27 259.92C373.75 259.093 374.41 258.453 375.25 258C376.09 257.533 377.037 257.3 378.09 257.3C379.144 257.3 380.084 257.533 380.91 258C381.75 258.453 382.404 259.093 382.87 259.92C383.35 260.733 383.59 261.66 383.59 262.7C383.59 263.74 383.35 264.673 382.87 265.5C382.404 266.313 381.75 266.953 380.91 267.42C380.084 267.887 379.144 268.12 378.09 268.12ZM378.09 266.44C378.77 266.44 379.377 266.287 379.91 265.98C380.457 265.66 380.884 265.22 381.19 264.66C381.497 264.087 381.65 263.433 381.65 262.7C381.65 261.967 381.497 261.32 381.19 260.76C380.884 260.187 380.457 259.747 379.91 259.44C379.377 259.133 378.77 258.98 378.09 258.98C377.41 258.98 376.797 259.133 376.25 259.44C375.717 259.747 375.29 260.187 374.97 260.76C374.664 261.32 374.51 261.967 374.51 262.7C374.51 263.433 374.664 264.087 374.97 264.66C375.29 265.22 375.717 265.66 376.25 265.98C376.797 266.287 377.41 266.44 378.09 266.44ZM389.286 268.12C388.419 268.12 387.586 268.007 386.786 267.78C385.986 267.54 385.359 267.24 384.906 266.88L385.706 265.36C386.172 265.693 386.739 265.96 387.406 266.16C388.072 266.36 388.746 266.46 389.426 266.46C391.106 266.46 391.946 265.98 391.946 265.02C391.946 264.7 391.832 264.447 391.606 264.26C391.379 264.073 391.092 263.94 390.746 263.86C390.412 263.767 389.932 263.667 389.306 263.56C388.452 263.427 387.752 263.273 387.206 263.1C386.672 262.927 386.212 262.633 385.826 262.22C385.439 261.807 385.246 261.227 385.246 260.48C385.246 259.52 385.646 258.753 386.446 258.18C387.246 257.593 388.319 257.3 389.666 257.3C390.372 257.3 391.079 257.387 391.786 257.56C392.492 257.733 393.072 257.967 393.526 258.26L392.706 259.78C391.839 259.22 390.819 258.94 389.646 258.94C388.832 258.94 388.212 259.073 387.786 259.34C387.359 259.607 387.146 259.96 387.146 260.4C387.146 260.747 387.266 261.02 387.506 261.22C387.746 261.42 388.039 261.567 388.386 261.66C388.746 261.753 389.246 261.86 389.886 261.98C390.739 262.127 391.426 262.287 391.946 262.46C392.479 262.62 392.932 262.9 393.306 263.3C393.679 263.7 393.866 264.26 393.866 264.98C393.866 265.94 393.452 266.707 392.626 267.28C391.812 267.84 390.699 268.12 389.286 268.12ZM401.925 257.3C403.272 257.3 404.339 257.693 405.125 258.48C405.925 259.253 406.325 260.393 406.325 261.9V268H404.405V262.12C404.405 261.093 404.159 260.32 403.665 259.8C403.172 259.28 402.465 259.02 401.545 259.02C400.505 259.02 399.685 259.327 399.085 259.94C398.485 260.54 398.185 261.407 398.185 262.54V268H396.265V253.16H398.185V258.9C398.585 258.393 399.105 258 399.745 257.72C400.399 257.44 401.125 257.3 401.925 257.3ZM414.477 268.12C413.424 268.12 412.477 267.887 411.637 267.42C410.797 266.953 410.137 266.313 409.657 265.5C409.191 264.673 408.957 263.74 408.957 262.7C408.957 261.66 409.191 260.733 409.657 259.92C410.137 259.093 410.797 258.453 411.637 258C412.477 257.533 413.424 257.3 414.477 257.3C415.531 257.3 416.471 257.533 417.297 258C418.137 258.453 418.791 259.093 419.257 259.92C419.737 260.733 419.977 261.66 419.977 262.7C419.977 263.74 419.737 264.673 419.257 265.5C418.791 266.313 418.137 266.953 417.297 267.42C416.471 267.887 415.531 268.12 414.477 268.12ZM414.477 266.44C415.157 266.44 415.764 266.287 416.297 265.98C416.844 265.66 417.271 265.22 417.577 264.66C417.884 264.087 418.037 263.433 418.037 262.7C418.037 261.967 417.884 261.32 417.577 260.76C417.271 260.187 416.844 259.747 416.297 259.44C415.764 259.133 415.157 258.98 414.477 258.98C413.797 258.98 413.184 259.133 412.637 259.44C412.104 259.747 411.677 260.187 411.357 260.76C411.051 261.32 410.897 261.967 410.897 262.7C410.897 263.433 411.051 264.087 411.357 264.66C411.677 265.22 412.104 265.66 412.637 265.98C413.184 266.287 413.797 266.44 414.477 266.44ZM428.253 257.3C429.279 257.3 430.199 257.527 431.013 257.98C431.826 258.433 432.459 259.067 432.913 259.88C433.379 260.693 433.613 261.633 433.613 262.7C433.613 263.767 433.379 264.713 432.913 265.54C432.459 266.353 431.826 266.987 431.013 267.44C430.199 267.893 429.279 268.12 428.253 268.12C427.493 268.12 426.793 267.973 426.153 267.68C425.526 267.387 424.993 266.96 424.553 266.4V271.88H422.633V257.4H424.473V259.08C424.899 258.493 425.439 258.053 426.092 257.76C426.746 257.453 427.466 257.3 428.253 257.3ZM428.093 266.44C428.773 266.44 429.379 266.287 429.913 265.98C430.459 265.66 430.886 265.22 431.193 264.66C431.513 264.087 431.673 263.433 431.673 262.7C431.673 261.967 431.513 261.32 431.193 260.76C430.886 260.187 430.459 259.747 429.913 259.44C429.379 259.133 428.773 258.98 428.093 258.98C427.426 258.98 426.819 259.14 426.273 259.46C425.739 259.767 425.313 260.2 424.993 260.76C424.686 261.32 424.533 261.967 424.533 262.7C424.533 263.433 424.686 264.087 424.993 264.66C425.299 265.22 425.726 265.66 426.273 265.98C426.819 266.287 427.426 266.44 428.093 266.44Z" fill="#BDBDBD"/>
<path d="M324.89 327.4H326.69V340H324.89V327.4ZM330.21 326.644H331.938V340H330.21V326.644ZM335.238 326.644H336.966V340H335.238V326.644ZM349.157 330.46V340H347.519V338.56C347.171 339.052 346.709 339.436 346.133 339.712C345.569 339.976 344.951 340.108 344.279 340.108C343.007 340.108 342.005 339.76 341.273 339.064C340.541 338.356 340.175 337.318 340.175 335.95V330.46H341.903V335.752C341.903 336.676 342.125 337.378 342.569 337.858C343.013 338.326 343.649 338.56 344.477 338.56C345.389 338.56 346.109 338.284 346.637 337.732C347.165 337.18 347.429 336.4 347.429 335.392V330.46H349.157ZM355.183 340.108C354.403 340.108 353.653 340.006 352.933 339.802C352.213 339.586 351.649 339.316 351.241 338.992L351.961 337.624C352.381 337.924 352.891 338.164 353.491 338.344C354.091 338.524 354.697 338.614 355.309 338.614C356.821 338.614 357.577 338.182 357.577 337.318C357.577 337.03 357.475 336.802 357.271 336.634C357.067 336.466 356.809 336.346 356.497 336.274C356.197 336.19 355.765 336.1 355.201 336.004C354.433 335.884 353.803 335.746 353.311 335.59C352.831 335.434 352.417 335.17 352.069 334.798C351.721 334.426 351.547 333.904 351.547 333.232C351.547 332.368 351.907 331.678 352.627 331.162C353.347 330.634 354.313 330.37 355.525 330.37C356.161 330.37 356.797 330.448 357.433 330.604C358.069 330.76 358.591 330.97 358.999 331.234L358.261 332.602C357.481 332.098 356.563 331.846 355.507 331.846C354.775 331.846 354.217 331.966 353.833 332.206C353.449 332.446 353.257 332.764 353.257 333.16C353.257 333.472 353.365 333.718 353.581 333.898C353.797 334.078 354.061 334.21 354.373 334.294C354.697 334.378 355.147 334.474 355.723 334.582C356.491 334.714 357.109 334.858 357.577 335.014C358.057 335.158 358.465 335.41 358.801 335.77C359.137 336.13 359.305 336.634 359.305 337.282C359.305 338.146 358.933 338.836 358.189 339.352C357.457 339.856 356.455 340.108 355.183 340.108ZM366.828 339.442C366.576 339.658 366.264 339.826 365.892 339.946C365.52 340.054 365.136 340.108 364.74 340.108C363.78 340.108 363.036 339.85 362.508 339.334C361.98 338.818 361.716 338.08 361.716 337.12V331.882H360.096V330.46H361.716V328.372H363.444V330.46H366.18V331.882H363.444V337.048C363.444 337.564 363.57 337.96 363.822 338.236C364.086 338.512 364.458 338.65 364.938 338.65C365.466 338.65 365.916 338.5 366.288 338.2L366.828 339.442ZM370.573 332.062C370.873 331.51 371.317 331.09 371.905 330.802C372.493 330.514 373.207 330.37 374.047 330.37V332.044C373.951 332.032 373.819 332.026 373.651 332.026C372.715 332.026 371.977 332.308 371.437 332.872C370.909 333.424 370.645 334.216 370.645 335.248V340H368.917V330.46H370.573V332.062ZM379.633 330.37C380.953 330.37 381.961 330.694 382.657 331.342C383.365 331.99 383.719 332.956 383.719 334.24V340H382.081V338.74C381.793 339.184 381.379 339.526 380.839 339.766C380.311 339.994 379.681 340.108 378.949 340.108C377.881 340.108 377.023 339.85 376.375 339.334C375.739 338.818 375.421 338.14 375.421 337.3C375.421 336.46 375.727 335.788 376.339 335.284C376.951 334.768 377.923 334.51 379.255 334.51H381.991V334.168C381.991 333.424 381.775 332.854 381.343 332.458C380.911 332.062 380.275 331.864 379.435 331.864C378.871 331.864 378.319 331.96 377.779 332.152C377.239 332.332 376.783 332.578 376.411 332.89L375.691 331.594C376.183 331.198 376.771 330.898 377.455 330.694C378.139 330.478 378.865 330.37 379.633 330.37ZM379.237 338.776C379.897 338.776 380.467 338.632 380.947 338.344C381.427 338.044 381.775 337.624 381.991 337.084V335.752H379.327C377.863 335.752 377.131 336.244 377.131 337.228C377.131 337.708 377.317 338.086 377.689 338.362C378.061 338.638 378.577 338.776 379.237 338.776ZM392.281 339.442C392.029 339.658 391.717 339.826 391.345 339.946C390.973 340.054 390.589 340.108 390.193 340.108C389.233 340.108 388.489 339.85 387.961 339.334C387.433 338.818 387.169 338.08 387.169 337.12V331.882H385.549V330.46H387.169V328.372H388.897V330.46H391.633V331.882H388.897V337.048C388.897 337.564 389.023 337.96 389.275 338.236C389.539 338.512 389.911 338.65 390.391 338.65C390.919 338.65 391.369 338.5 391.741 338.2L392.281 339.442ZM398.14 340.108C397.192 340.108 396.34 339.898 395.584 339.478C394.828 339.058 394.234 338.482 393.802 337.75C393.382 337.006 393.172 336.166 393.172 335.23C393.172 334.294 393.382 333.46 393.802 332.728C394.234 331.984 394.828 331.408 395.584 331C396.34 330.58 397.192 330.37 398.14 330.37C399.088 330.37 399.934 330.58 400.678 331C401.434 331.408 402.022 331.984 402.442 332.728C402.874 333.46 403.09 334.294 403.09 335.23C403.09 336.166 402.874 337.006 402.442 337.75C402.022 338.482 401.434 339.058 400.678 339.478C399.934 339.898 399.088 340.108 398.14 340.108ZM398.14 338.596C398.752 338.596 399.298 338.458 399.778 338.182C400.27 337.894 400.654 337.498 400.93 336.994C401.206 336.478 401.344 335.89 401.344 335.23C401.344 334.57 401.206 333.988 400.93 333.484C400.654 332.968 400.27 332.572 399.778 332.296C399.298 332.02 398.752 331.882 398.14 331.882C397.528 331.882 396.976 332.02 396.484 332.296C396.004 332.572 395.62 332.968 395.332 333.484C395.056 333.988 394.918 334.57 394.918 335.23C394.918 335.89 395.056 336.478 395.332 336.994C395.62 337.498 396.004 337.894 396.484 338.182C396.976 338.458 397.528 338.596 398.14 338.596ZM407.136 332.062C407.436 331.51 407.88 331.09 408.468 330.802C409.056 330.514 409.77 330.37 410.61 330.37V332.044C410.514 332.032 410.382 332.026 410.214 332.026C409.278 332.026 408.54 332.308 408 332.872C407.472 333.424 407.208 334.216 407.208 335.248V340H405.48V330.46H407.136V332.062Z" fill="#BDBDBD"/>
<path d="M335.726 397.4V410H333.926V404.384H326.69V410H324.89V397.4H326.69V402.818H333.926V397.4H335.726ZM341.999 398.966H337.679V397.4H348.101V398.966H343.781V410H341.999V398.966ZM361.744 410L361.726 400.82L357.172 408.47H356.344L351.79 400.874V410H350.062V397.4H351.538L356.794 406.256L361.978 397.4H363.454L363.472 410H361.744ZM367.253 397.4H369.053V408.434H375.875V410H367.253V397.4ZM380.515 402.422C382.315 402.422 383.635 402.764 384.475 403.448C385.327 404.12 385.753 405.044 385.753 406.22C385.753 406.964 385.573 407.636 385.213 408.236C384.865 408.824 384.331 409.292 383.611 409.64C382.903 409.976 382.027 410.144 380.983 410.144C380.095 410.144 379.237 410.012 378.409 409.748C377.581 409.472 376.897 409.094 376.357 408.614L377.185 407.192C377.617 407.6 378.169 407.93 378.841 408.182C379.513 408.422 380.221 408.542 380.965 408.542C381.913 408.542 382.645 408.344 383.161 407.948C383.689 407.54 383.953 406.988 383.953 406.292C383.953 405.536 383.665 404.966 383.089 404.582C382.513 404.186 381.529 403.988 380.137 403.988H377.275L377.941 397.4H385.051V398.966H379.453L379.111 402.422H380.515ZM391.823 394.844H393.389L387.449 411.8H385.883L391.823 394.844ZM399.887 410.144C398.627 410.144 397.487 409.868 396.467 409.316C395.459 408.752 394.667 407.984 394.091 407.012C393.515 406.028 393.227 404.924 393.227 403.7C393.227 402.476 393.515 401.378 394.091 400.406C394.667 399.422 395.465 398.654 396.485 398.102C397.505 397.538 398.645 397.256 399.905 397.256C400.889 397.256 401.789 397.424 402.605 397.76C403.421 398.084 404.117 398.57 404.693 399.218L403.523 400.352C402.575 399.356 401.393 398.858 399.977 398.858C399.041 398.858 398.195 399.068 397.439 399.488C396.683 399.908 396.089 400.49 395.657 401.234C395.237 401.966 395.027 402.788 395.027 403.7C395.027 404.612 395.237 405.44 395.657 406.184C396.089 406.916 396.683 407.492 397.439 407.912C398.195 408.332 399.041 408.542 399.977 408.542C401.381 408.542 402.563 408.038 403.523 407.03L404.693 408.164C404.117 408.812 403.415 409.304 402.587 409.64C401.771 409.976 400.871 410.144 399.887 410.144ZM410.88 410.144C409.932 410.144 409.014 410 408.126 409.712C407.25 409.412 406.56 409.028 406.056 408.56L406.722 407.156C407.202 407.588 407.814 407.942 408.558 408.218C409.314 408.482 410.088 408.614 410.88 408.614C411.924 408.614 412.704 408.44 413.22 408.092C413.736 407.732 413.994 407.258 413.994 406.67C413.994 406.238 413.85 405.89 413.562 405.626C413.286 405.35 412.938 405.14 412.518 404.996C412.11 404.852 411.528 404.69 410.772 404.51C409.824 404.282 409.056 404.054 408.468 403.826C407.892 403.598 407.394 403.25 406.974 402.782C406.566 402.302 406.362 401.66 406.362 400.856C406.362 400.184 406.536 399.578 406.884 399.038C407.244 398.498 407.784 398.066 408.504 397.742C409.224 397.418 410.118 397.256 411.186 397.256C411.93 397.256 412.662 397.352 413.382 397.544C414.102 397.736 414.72 398.012 415.236 398.372L414.642 399.812C414.114 399.476 413.55 399.224 412.95 399.056C412.35 398.876 411.762 398.786 411.186 398.786C410.166 398.786 409.398 398.972 408.882 399.344C408.378 399.716 408.126 400.196 408.126 400.784C408.126 401.216 408.27 401.57 408.558 401.846C408.846 402.11 409.2 402.32 409.62 402.476C410.052 402.62 410.634 402.776 411.366 402.944C412.314 403.172 413.076 403.4 413.652 403.628C414.228 403.856 414.72 404.204 415.128 404.672C415.548 405.14 415.758 405.77 415.758 406.562C415.758 407.222 415.578 407.828 415.218 408.38C414.858 408.92 414.312 409.352 413.58 409.676C412.848 409.988 411.948 410.144 410.88 410.144ZM422.06 410.144C421.112 410.144 420.194 410 419.306 409.712C418.43 409.412 417.74 409.028 417.236 408.56L417.902 407.156C418.382 407.588 418.994 407.942 419.738 408.218C420.494 408.482 421.268 408.614 422.06 408.614C423.104 408.614 423.884 408.44 424.4 408.092C424.916 407.732 425.174 407.258 425.174 406.67C425.174 406.238 425.03 405.89 424.742 405.626C424.466 405.35 424.118 405.14 423.698 404.996C423.29 404.852 422.708 404.69 421.952 404.51C421.004 404.282 420.236 404.054 419.648 403.826C419.072 403.598 418.574 403.25 418.154 402.782C417.746 402.302 417.542 401.66 417.542 400.856C417.542 400.184 417.716 399.578 418.064 399.038C418.424 398.498 418.964 398.066 419.684 397.742C420.404 397.418 421.298 397.256 422.366 397.256C423.11 397.256 423.842 397.352 424.562 397.544C425.282 397.736 425.9 398.012 426.416 398.372L425.822 399.812C425.294 399.476 424.73 399.224 424.13 399.056C423.53 398.876 422.942 398.786 422.366 398.786C421.346 398.786 420.578 398.972 420.062 399.344C419.558 399.716 419.306 400.196 419.306 400.784C419.306 401.216 419.45 401.57 419.738 401.846C420.026 402.11 420.38 402.32 420.8 402.476C421.232 402.62 421.814 402.776 422.546 402.944C423.494 403.172 424.256 403.4 424.832 403.628C425.408 403.856 425.9 404.204 426.308 404.672C426.728 405.14 426.938 405.77 426.938 406.562C426.938 407.222 426.758 407.828 426.398 408.38C426.038 408.92 425.492 409.352 424.76 409.676C424.028 409.988 423.128 410.144 422.06 410.144Z" fill="#BDBDBD"/>
<path d="M333.314 482L330.596 478.13C330.26 478.154 329.996 478.166 329.804 478.166H326.69V482H324.89V469.4H329.804C331.436 469.4 332.72 469.79 333.656 470.57C334.592 471.35 335.06 472.424 335.06 473.792C335.06 474.764 334.82 475.592 334.34 476.276C333.86 476.96 333.176 477.458 332.288 477.77L335.276 482H333.314ZM329.75 476.636C330.89 476.636 331.76 476.39 332.36 475.898C332.96 475.406 333.26 474.704 333.26 473.792C333.26 472.88 332.96 472.184 332.36 471.704C331.76 471.212 330.89 470.966 329.75 470.966H326.69V476.636H329.75ZM346.338 477.284C346.338 477.416 346.326 477.59 346.302 477.806H338.562C338.67 478.646 339.036 479.324 339.66 479.84C340.296 480.344 341.082 480.596 342.018 480.596C343.158 480.596 344.076 480.212 344.772 479.444L345.726 480.56C345.294 481.064 344.754 481.448 344.106 481.712C343.47 481.976 342.756 482.108 341.964 482.108C340.956 482.108 340.062 481.904 339.282 481.496C338.502 481.076 337.896 480.494 337.464 479.75C337.044 479.006 336.834 478.166 336.834 477.23C336.834 476.306 337.038 475.472 337.446 474.728C337.866 473.984 338.436 473.408 339.156 473C339.888 472.58 340.71 472.37 341.622 472.37C342.534 472.37 343.344 472.58 344.052 473C344.772 473.408 345.33 473.984 345.726 474.728C346.134 475.472 346.338 476.324 346.338 477.284ZM341.622 473.828C340.794 473.828 340.098 474.08 339.534 474.584C338.982 475.088 338.658 475.748 338.562 476.564H344.682C344.586 475.76 344.256 475.106 343.692 474.602C343.14 474.086 342.45 473.828 341.622 473.828ZM351.948 472.37C353.268 472.37 354.276 472.694 354.972 473.342C355.68 473.99 356.034 474.956 356.034 476.24V482H354.396V480.74C354.108 481.184 353.694 481.526 353.154 481.766C352.626 481.994 351.996 482.108 351.264 482.108C350.196 482.108 349.338 481.85 348.69 481.334C348.054 480.818 347.736 480.14 347.736 479.3C347.736 478.46 348.042 477.788 348.654 477.284C349.266 476.768 350.238 476.51 351.57 476.51H354.306V476.168C354.306 475.424 354.09 474.854 353.658 474.458C353.226 474.062 352.59 473.864 351.75 473.864C351.186 473.864 350.634 473.96 350.094 474.152C349.554 474.332 349.098 474.578 348.726 474.89L348.006 473.594C348.498 473.198 349.086 472.898 349.77 472.694C350.454 472.478 351.18 472.37 351.948 472.37ZM351.552 480.776C352.212 480.776 352.782 480.632 353.262 480.344C353.742 480.044 354.09 479.624 354.306 479.084V477.752H351.642C350.178 477.752 349.446 478.244 349.446 479.228C349.446 479.708 349.632 480.086 350.004 480.362C350.376 480.638 350.892 480.776 351.552 480.776ZM363.442 482.108C362.47 482.108 361.6 481.898 360.832 481.478C360.076 481.058 359.482 480.482 359.05 479.75C358.618 479.006 358.402 478.166 358.402 477.23C358.402 476.294 358.618 475.46 359.05 474.728C359.482 473.984 360.076 473.408 360.832 473C361.6 472.58 362.47 472.37 363.442 472.37C364.306 472.37 365.074 472.544 365.746 472.892C366.43 473.24 366.958 473.744 367.33 474.404L366.016 475.25C365.716 474.794 365.344 474.452 364.9 474.224C364.456 473.996 363.964 473.882 363.424 473.882C362.8 473.882 362.236 474.02 361.732 474.296C361.24 474.572 360.85 474.968 360.562 475.484C360.286 475.988 360.148 476.57 360.148 477.23C360.148 477.902 360.286 478.496 360.562 479.012C360.85 479.516 361.24 479.906 361.732 480.182C362.236 480.458 362.8 480.596 363.424 480.596C363.964 480.596 364.456 480.482 364.9 480.254C365.344 480.026 365.716 479.684 366.016 479.228L367.33 480.056C366.958 480.716 366.43 481.226 365.746 481.586C365.074 481.934 364.306 482.108 363.442 482.108ZM375.055 481.442C374.803 481.658 374.491 481.826 374.119 481.946C373.747 482.054 373.363 482.108 372.967 482.108C372.007 482.108 371.263 481.85 370.735 481.334C370.207 480.818 369.943 480.08 369.943 479.12V473.882H368.323V472.46H369.943V470.372H371.671V472.46H374.407V473.882H371.671V479.048C371.671 479.564 371.797 479.96 372.049 480.236C372.313 480.512 372.685 480.65 373.165 480.65C373.693 480.65 374.143 480.5 374.515 480.2L375.055 481.442Z" fill="#BDBDBD"/>
<path d="M654 570H652V584H654V570Z" fill="#38D39F"/>
<path d="M669 585C667.418 585 665.871 584.531 664.555 583.652C663.24 582.773 662.214 581.523 661.609 580.061C661.003 578.6 660.845 576.991 661.154 575.439C661.462 573.887 662.224 572.462 663.343 571.343C664.462 570.224 665.887 569.462 667.439 569.154C668.991 568.845 670.6 569.003 672.061 569.609C673.523 570.214 674.773 571.24 675.652 572.555C676.531 573.871 677 575.418 677 577C676.998 579.121 676.154 581.154 674.654 582.654C673.154 584.154 671.121 584.998 669 585ZM669 571C667.813 571 666.653 571.352 665.667 572.011C664.68 572.67 663.911 573.608 663.457 574.704C663.003 575.8 662.884 577.007 663.115 578.171C663.347 579.334 663.918 580.404 664.757 581.243C665.596 582.082 666.666 582.653 667.829 582.885C668.993 583.116 670.2 582.997 671.296 582.543C672.392 582.089 673.33 581.32 673.989 580.333C674.648 579.347 675 578.187 675 577C674.998 575.409 674.366 573.884 673.241 572.759C672.116 571.634 670.591 571.002 669 571Z" fill="#38D39F"/>
<path d="M559 583H330C328.143 583 326.363 582.263 325.05 580.95C323.738 579.637 323 577.857 323 576C323 574.143 323.738 572.363 325.05 571.05C326.363 569.738 328.143 569 330 569H559C560.856 569 562.637 569.738 563.95 571.05C565.262 572.363 566 574.143 566 576C566 577.857 565.262 579.637 563.95 580.95C562.637 582.263 560.856 583 559 583Z" fill="#F2F2F2"/>
<path d="M537 583H329C327.143 583 325.363 582.263 324.05 580.95C322.738 579.637 322 577.857 322 576C322 574.143 322.738 572.363 324.05 571.05C325.363 569.738 327.143 569 329 569H537C538.856 569 540.637 569.738 541.95 571.05C543.262 572.363 544 574.143 544 576C544 577.857 543.262 579.637 541.95 580.95C540.637 582.263 538.856 583 537 583Z" fill="#38D39F"/>
<path d="M333.371 547.466C334.103 547.67 334.679 548.042 335.099 548.582C335.519 549.11 335.729 549.782 335.729 550.598C335.729 551.69 335.315 552.53 334.487 553.118C333.671 553.706 332.477 554 330.905 554H324.893V541.4H330.545C331.985 541.4 333.095 541.688 333.875 542.264C334.667 542.84 335.063 543.638 335.063 544.658C335.063 545.318 334.907 545.888 334.595 546.368C334.295 546.848 333.887 547.214 333.371 547.466ZM326.693 542.858V546.89H330.383C331.307 546.89 332.015 546.722 332.507 546.386C333.011 546.038 333.263 545.534 333.263 544.874C333.263 544.214 333.011 543.716 332.507 543.38C332.015 543.032 331.307 542.858 330.383 542.858H326.693ZM330.833 552.542C331.853 552.542 332.621 552.374 333.137 552.038C333.653 551.702 333.911 551.174 333.911 550.454C333.911 549.05 332.885 548.348 330.833 548.348H326.693V552.542H330.833ZM342.35 554.108C341.402 554.108 340.55 553.898 339.794 553.478C339.038 553.058 338.444 552.482 338.012 551.75C337.592 551.006 337.382 550.166 337.382 549.23C337.382 548.294 337.592 547.46 338.012 546.728C338.444 545.984 339.038 545.408 339.794 545C340.55 544.58 341.402 544.37 342.35 544.37C343.298 544.37 344.144 544.58 344.888 545C345.644 545.408 346.232 545.984 346.652 546.728C347.084 547.46 347.3 548.294 347.3 549.23C347.3 550.166 347.084 551.006 346.652 551.75C346.232 552.482 345.644 553.058 344.888 553.478C344.144 553.898 343.298 554.108 342.35 554.108ZM342.35 552.596C342.962 552.596 343.508 552.458 343.988 552.182C344.48 551.894 344.864 551.498 345.14 550.994C345.416 550.478 345.554 549.89 345.554 549.23C345.554 548.57 345.416 547.988 345.14 547.484C344.864 546.968 344.48 546.572 343.988 546.296C343.508 546.02 342.962 545.882 342.35 545.882C341.738 545.882 341.186 546.02 340.694 546.296C340.214 546.572 339.83 546.968 339.542 547.484C339.266 547.988 339.128 548.57 339.128 549.23C339.128 549.89 339.266 550.478 339.542 550.994C339.83 551.498 340.214 551.894 340.694 552.182C341.186 552.458 341.738 552.596 342.35 552.596ZM353.776 554.108C352.828 554.108 351.976 553.898 351.22 553.478C350.464 553.058 349.87 552.482 349.438 551.75C349.018 551.006 348.808 550.166 348.808 549.23C348.808 548.294 349.018 547.46 349.438 546.728C349.87 545.984 350.464 545.408 351.22 545C351.976 544.58 352.828 544.37 353.776 544.37C354.724 544.37 355.57 544.58 356.314 545C357.07 545.408 357.658 545.984 358.078 546.728C358.51 547.46 358.726 548.294 358.726 549.23C358.726 550.166 358.51 551.006 358.078 551.75C357.658 552.482 357.07 553.058 356.314 553.478C355.57 553.898 354.724 554.108 353.776 554.108ZM353.776 552.596C354.388 552.596 354.934 552.458 355.414 552.182C355.906 551.894 356.29 551.498 356.566 550.994C356.842 550.478 356.98 549.89 356.98 549.23C356.98 548.57 356.842 547.988 356.566 547.484C356.29 546.968 355.906 546.572 355.414 546.296C354.934 546.02 354.388 545.882 353.776 545.882C353.164 545.882 352.612 546.02 352.12 546.296C351.64 546.572 351.256 546.968 350.968 547.484C350.692 547.988 350.554 548.57 350.554 549.23C350.554 549.89 350.692 550.478 350.968 550.994C351.256 551.498 351.64 551.894 352.12 552.182C352.612 552.458 353.164 552.596 353.776 552.596ZM366.48 553.442C366.228 553.658 365.916 553.826 365.544 553.946C365.172 554.054 364.788 554.108 364.392 554.108C363.432 554.108 362.688 553.85 362.16 553.334C361.632 552.818 361.368 552.08 361.368 551.12V545.882H359.748V544.46H361.368V542.372H363.096V544.46H365.832V545.882H363.096V551.048C363.096 551.564 363.222 551.96 363.474 552.236C363.738 552.512 364.11 552.65 364.59 552.65C365.118 552.65 365.568 552.5 365.94 552.2L366.48 553.442ZM371.305 554.108C370.525 554.108 369.775 554.006 369.055 553.802C368.335 553.586 367.771 553.316 367.363 552.992L368.083 551.624C368.503 551.924 369.013 552.164 369.613 552.344C370.213 552.524 370.819 552.614 371.431 552.614C372.943 552.614 373.699 552.182 373.699 551.318C373.699 551.03 373.597 550.802 373.393 550.634C373.189 550.466 372.931 550.346 372.619 550.274C372.319 550.19 371.887 550.1 371.323 550.004C370.555 549.884 369.925 549.746 369.433 549.59C368.953 549.434 368.539 549.17 368.191 548.798C367.843 548.426 367.669 547.904 367.669 547.232C367.669 546.368 368.029 545.678 368.749 545.162C369.469 544.634 370.435 544.37 371.647 544.37C372.283 544.37 372.919 544.448 373.555 544.604C374.191 544.76 374.713 544.97 375.121 545.234L374.383 546.602C373.603 546.098 372.685 545.846 371.629 545.846C370.897 545.846 370.339 545.966 369.955 546.206C369.571 546.446 369.379 546.764 369.379 547.16C369.379 547.472 369.487 547.718 369.703 547.898C369.919 548.078 370.183 548.21 370.495 548.294C370.819 548.378 371.269 548.474 371.845 548.582C372.613 548.714 373.231 548.858 373.699 549.014C374.179 549.158 374.587 549.41 374.923 549.77C375.259 550.13 375.427 550.634 375.427 551.282C375.427 552.146 375.055 552.836 374.311 553.352C373.579 553.856 372.577 554.108 371.305 554.108ZM382.95 553.442C382.698 553.658 382.386 553.826 382.014 553.946C381.642 554.054 381.258 554.108 380.862 554.108C379.902 554.108 379.158 553.85 378.63 553.334C378.102 552.818 377.838 552.08 377.838 551.12V545.882H376.218V544.46H377.838V542.372H379.566V544.46H382.302V545.882H379.566V551.048C379.566 551.564 379.692 551.96 379.944 552.236C380.208 552.512 380.58 552.65 381.06 552.65C381.588 552.65 382.038 552.5 382.41 552.2L382.95 553.442ZM386.695 546.062C386.995 545.51 387.439 545.09 388.027 544.802C388.615 544.514 389.329 544.37 390.169 544.37V546.044C390.073 546.032 389.941 546.026 389.773 546.026C388.837 546.026 388.099 546.308 387.559 546.872C387.031 547.424 386.767 548.216 386.767 549.248V554H385.039V544.46H386.695V546.062ZM395.756 544.37C397.076 544.37 398.084 544.694 398.78 545.342C399.488 545.99 399.842 546.956 399.842 548.24V554H398.204V552.74C397.916 553.184 397.502 553.526 396.962 553.766C396.434 553.994 395.804 554.108 395.072 554.108C394.004 554.108 393.146 553.85 392.498 553.334C391.862 552.818 391.544 552.14 391.544 551.3C391.544 550.46 391.85 549.788 392.462 549.284C393.074 548.768 394.046 548.51 395.378 548.51H398.114V548.168C398.114 547.424 397.898 546.854 397.466 546.458C397.034 546.062 396.398 545.864 395.558 545.864C394.994 545.864 394.442 545.96 393.902 546.152C393.362 546.332 392.906 546.578 392.534 546.89L391.814 545.594C392.306 545.198 392.894 544.898 393.578 544.694C394.262 544.478 394.988 544.37 395.756 544.37ZM395.36 552.776C396.02 552.776 396.59 552.632 397.07 552.344C397.55 552.044 397.898 551.624 398.114 551.084V549.752H395.45C393.986 549.752 393.254 550.244 393.254 551.228C393.254 551.708 393.44 552.086 393.812 552.362C394.184 552.638 394.7 552.776 395.36 552.776ZM408.097 544.37C409.021 544.37 409.849 544.574 410.581 544.982C411.313 545.39 411.883 545.96 412.291 546.692C412.711 547.424 412.921 548.27 412.921 549.23C412.921 550.19 412.711 551.042 412.291 551.786C411.883 552.518 411.313 553.088 410.581 553.496C409.849 553.904 409.021 554.108 408.097 554.108C407.413 554.108 406.783 553.976 406.207 553.712C405.643 553.448 405.163 553.064 404.767 552.56V557.492H403.039V544.46H404.695V545.972C405.079 545.444 405.565 545.048 406.153 544.784C406.741 544.508 407.389 544.37 408.097 544.37ZM407.953 552.596C408.565 552.596 409.111 552.458 409.591 552.182C410.083 551.894 410.467 551.498 410.743 550.994C411.031 550.478 411.175 549.89 411.175 549.23C411.175 548.57 411.031 547.988 410.743 547.484C410.467 546.968 410.083 546.572 409.591 546.296C409.111 546.02 408.565 545.882 407.953 545.882C407.353 545.882 406.807 546.026 406.315 546.314C405.835 546.59 405.451 546.98 405.163 547.484C404.887 547.988 404.749 548.57 404.749 549.23C404.749 549.89 404.887 550.478 405.163 550.994C405.439 551.498 405.823 551.894 406.315 552.182C406.807 552.458 407.353 552.596 407.953 552.596Z" fill="#BDBDBD"/>
<path d="M655 639H653V653H655V639Z" fill="#38D39F"/>
<path d="M670 654C668.418 654 666.871 653.531 665.555 652.652C664.24 651.773 663.214 650.523 662.609 649.061C662.003 647.6 661.845 645.991 662.154 644.439C662.462 642.887 663.224 641.462 664.343 640.343C665.462 639.224 666.887 638.462 668.439 638.154C669.991 637.845 671.6 638.003 673.061 638.609C674.523 639.214 675.773 640.24 676.652 641.555C677.531 642.871 678 644.418 678 646C677.998 648.121 677.154 650.154 675.654 651.654C674.154 653.154 672.121 653.998 670 654ZM670 640C668.813 640 667.653 640.352 666.667 641.011C665.68 641.67 664.911 642.608 664.457 643.704C664.003 644.8 663.884 646.007 664.115 647.171C664.347 648.334 664.918 649.404 665.757 650.243C666.596 651.082 667.666 651.653 668.829 651.885C669.993 652.116 671.2 651.997 672.296 651.543C673.392 651.089 674.33 650.32 674.989 649.333C675.648 648.347 676 647.187 676 646C675.998 644.409 675.366 642.884 674.241 641.759C673.116 640.634 671.591 640.002 670 640Z" fill="#38D39F"/>
<path d="M560 652H331C329.143 652 327.363 651.263 326.05 649.95C324.738 648.637 324 646.857 324 645C324 643.143 324.738 641.363 326.05 640.05C327.363 638.738 329.143 638 331 638H560C561.856 638 563.637 638.738 564.95 640.05C566.262 641.363 567 643.143 567 645C567 646.857 566.262 648.637 564.95 649.95C563.637 651.263 561.856 652 560 652Z" fill="#F2F2F2"/>
<path d="M327.513 623.144C326.757 623.144 326.055 622.988 325.407 622.676C324.759 622.352 324.237 621.902 323.841 621.326L324.885 620.102C325.581 621.098 326.457 621.596 327.513 621.596C328.221 621.596 328.755 621.38 329.115 620.948C329.487 620.516 329.673 619.88 329.673 619.04V611.966H325.119V610.4H331.455V618.95C331.455 620.342 331.119 621.392 330.447 622.1C329.787 622.796 328.809 623.144 327.513 623.144ZM343.869 613.46V626.492H342.141V621.56C341.745 622.064 341.259 622.448 340.683 622.712C340.119 622.976 339.495 623.108 338.811 623.108C337.887 623.108 337.059 622.904 336.327 622.496C335.595 622.088 335.019 621.518 334.599 620.786C334.191 620.042 333.987 619.19 333.987 618.23C333.987 617.27 334.191 616.424 334.599 615.692C335.019 614.96 335.595 614.39 336.327 613.982C337.059 613.574 337.887 613.37 338.811 613.37C339.519 613.37 340.167 613.508 340.755 613.784C341.343 614.048 341.829 614.444 342.213 614.972V613.46H343.869ZM338.955 621.596C339.555 621.596 340.101 621.458 340.593 621.182C341.085 620.894 341.469 620.498 341.745 619.994C342.021 619.478 342.159 618.89 342.159 618.23C342.159 617.57 342.015 616.988 341.727 616.484C341.451 615.98 341.067 615.59 340.575 615.314C340.095 615.026 339.555 614.882 338.955 614.882C338.343 614.882 337.791 615.02 337.299 615.296C336.819 615.572 336.435 615.968 336.147 616.484C335.871 616.988 335.733 617.57 335.733 618.23C335.733 618.89 335.871 619.478 336.147 619.994C336.435 620.498 336.819 620.894 337.299 621.182C337.791 621.458 338.343 621.596 338.955 621.596ZM356.031 613.46V623H354.393V621.56C354.045 622.052 353.583 622.436 353.007 622.712C352.443 622.976 351.825 623.108 351.153 623.108C349.881 623.108 348.879 622.76 348.147 622.064C347.415 621.356 347.049 620.318 347.049 618.95V613.46H348.777V618.752C348.777 619.676 348.999 620.378 349.443 620.858C349.887 621.326 350.523 621.56 351.351 621.56C352.263 621.56 352.983 621.284 353.511 620.732C354.039 620.18 354.303 619.4 354.303 618.392V613.46H356.031ZM367.943 618.284C367.943 618.416 367.931 618.59 367.907 618.806H360.167C360.275 619.646 360.641 620.324 361.265 620.84C361.901 621.344 362.687 621.596 363.623 621.596C364.763 621.596 365.681 621.212 366.377 620.444L367.331 621.56C366.899 622.064 366.359 622.448 365.711 622.712C365.075 622.976 364.361 623.108 363.569 623.108C362.561 623.108 361.667 622.904 360.887 622.496C360.107 622.076 359.501 621.494 359.069 620.75C358.649 620.006 358.439 619.166 358.439 618.23C358.439 617.306 358.643 616.472 359.051 615.728C359.471 614.984 360.041 614.408 360.761 614C361.493 613.58 362.315 613.37 363.227 613.37C364.139 613.37 364.949 613.58 365.657 614C366.377 614.408 366.935 614.984 367.331 615.728C367.739 616.472 367.943 617.324 367.943 618.284ZM363.227 614.828C362.399 614.828 361.703 615.08 361.139 615.584C360.587 616.088 360.263 616.748 360.167 617.564H366.287C366.191 616.76 365.861 616.106 365.297 615.602C364.745 615.086 364.055 614.828 363.227 614.828ZM371.998 615.062C372.298 614.51 372.742 614.09 373.33 613.802C373.918 613.514 374.632 613.37 375.472 613.37V615.044C375.376 615.032 375.244 615.026 375.076 615.026C374.14 615.026 373.402 615.308 372.862 615.872C372.334 616.424 372.07 617.216 372.07 618.248V623H370.342V613.46H371.998V615.062ZM386.431 613.46L381.805 623.954C381.397 624.926 380.917 625.61 380.365 626.006C379.825 626.402 379.171 626.6 378.403 626.6C377.935 626.6 377.479 626.522 377.035 626.366C376.603 626.222 376.243 626.006 375.955 625.718L376.693 624.422C377.185 624.89 377.755 625.124 378.403 625.124C378.823 625.124 379.171 625.01 379.447 624.782C379.735 624.566 379.993 624.188 380.221 623.648L380.527 622.982L376.315 613.46H378.115L381.445 621.092L384.739 613.46H386.431Z" fill="#BDBDBD"/>
<path d="M656 711H654V725H656V711Z" fill="#38D39F"/>
<path d="M671 726C669.418 726 667.871 725.531 666.555 724.652C665.24 723.773 664.214 722.523 663.609 721.061C663.003 719.6 662.845 717.991 663.154 716.439C663.462 714.887 664.224 713.462 665.343 712.343C666.462 711.224 667.887 710.462 669.439 710.154C670.991 709.845 672.6 710.003 674.061 710.609C675.523 711.214 676.773 712.24 677.652 713.555C678.531 714.871 679 716.418 679 718C678.998 720.121 678.154 722.154 676.654 723.654C675.154 725.154 673.121 725.998 671 726ZM671 712C669.813 712 668.653 712.352 667.667 713.011C666.68 713.67 665.911 714.608 665.457 715.704C665.003 716.8 664.884 718.007 665.115 719.171C665.347 720.334 665.918 721.404 666.757 722.243C667.596 723.082 668.666 723.653 669.829 723.885C670.993 724.116 672.2 723.997 673.296 723.543C674.392 723.089 675.33 722.32 675.989 721.333C676.648 720.347 677 719.187 677 718C676.998 716.409 676.366 714.884 675.241 713.759C674.116 712.634 672.591 712.002 671 712Z" fill="#38D39F"/>
<path d="M561 724H332C330.143 724 328.363 723.263 327.05 721.95C325.738 720.637 325 718.857 325 717C325 715.143 325.738 713.363 327.05 712.05C328.363 710.738 330.143 710 332 710H561C562.856 710 564.637 710.738 565.95 712.05C567.262 713.363 568 715.143 568 717C568 718.857 567.262 720.637 565.95 721.95C564.637 723.263 562.856 724 561 724Z" fill="#F2F2F2"/>
<path d="M331.807 682.4C333.439 682.4 334.723 682.79 335.659 683.57C336.595 684.35 337.063 685.424 337.063 686.792C337.063 688.16 336.595 689.234 335.659 690.014C334.723 690.794 333.439 691.184 331.807 691.184H328.693V695H326.893V682.4H331.807ZM331.753 689.618C332.893 689.618 333.763 689.378 334.363 688.898C334.963 688.406 335.263 687.704 335.263 686.792C335.263 685.88 334.963 685.184 334.363 684.704C333.763 684.212 332.893 683.966 331.753 683.966H328.693V689.618H331.753ZM350.543 682.4V695H348.743V689.384H341.507V695H339.707V682.4H341.507V687.818H348.743V682.4H350.543ZM359.229 682.4C360.861 682.4 362.145 682.79 363.081 683.57C364.017 684.35 364.485 685.424 364.485 686.792C364.485 688.16 364.017 689.234 363.081 690.014C362.145 690.794 360.861 691.184 359.229 691.184H356.115V695H354.315V682.4H359.229ZM359.175 689.618C360.315 689.618 361.185 689.378 361.785 688.898C362.385 688.406 362.685 687.704 362.685 686.792C362.685 685.88 362.385 685.184 361.785 684.704C361.185 684.212 360.315 683.966 359.175 683.966H356.115V689.618H359.175Z" fill="#BDBDBD"/>
<path d="M442.917 652H329.083C327.47 652 325.922 651.263 324.782 649.95C323.641 648.637 323 646.857 323 645C323 643.143 323.641 641.363 324.782 640.05C325.922 638.738 327.47 638 329.083 638H442.917C444.53 638 446.078 638.738 447.218 640.05C448.359 641.363 449 643.143 449 645C449 646.857 448.359 648.637 447.218 649.95C446.078 651.263 444.53 652 442.917 652Z" fill="#38D39F"/>
<path d="M454.434 724H331.566C329.824 724 328.154 723.263 326.923 721.95C325.692 720.637 325 718.857 325 717C325 715.143 325.692 713.363 326.923 712.05C328.154 710.738 329.824 710 331.566 710H454.434C456.176 710 457.846 710.738 459.077 712.05C460.308 713.363 461 715.143 461 717C461 718.857 460.308 720.637 459.077 721.95C457.846 723.263 456.176 724 454.434 724Z" fill="#38D39F"/>
<path d="M72 754C111.765 754 144 721.765 144 682C144 642.236 111.765 610 72 610C32.2355 610 0 642.236 0 682C0 721.765 32.2355 754 72 754Z" fill="#38D39F"/>
<path d="M44.2188 722.709C64.6533 722.709 81.2188 706.144 81.2188 685.709C81.2188 665.274 64.6533 648.709 44.2188 648.709C23.7842 648.709 7.21875 665.274 7.21875 685.709C7.21875 706.144 23.7842 722.709 44.2188 722.709Z" fill="#F2F2F2"/>
<path d="M30.1841 709.451C36.8115 709.451 42.1841 704.078 42.1841 697.451C42.1841 690.824 36.8115 685.451 30.1841 685.451C23.5567 685.451 18.1841 690.824 18.1841 697.451C18.1841 704.078 23.5567 709.451 30.1841 709.451Z" fill="#3F3D56"/>
<path d="M234 771C273.765 771 306 738.765 306 699C306 659.235 273.765 627 234 627C194.235 627 162 659.235 162 699C162 738.765 194.235 771 234 771Z" fill="#38D39F"/>
<path d="M231 728C251.435 728 268 711.435 268 691C268 670.565 251.435 654 231 654C210.565 654 194 670.565 194 691C194 711.435 210.565 728 231 728Z" fill="#F2F2F2"/>
<path d="M231 682C237.627 682 243 676.627 243 670C243 663.373 237.627 658 231 658C224.373 658 219 663.373 219 670C219 676.627 224.373 682 231 682Z" fill="#3F3D56"/>
<path d="M798 215C837.765 215 870 182.765 870 143C870 103.235 837.765 71 798 71C758.235 71 726 103.235 726 143C726 182.765 758.235 215 798 215Z" fill="#38D39F"/>
<path d="M774.489 251.857L859.356 300.857L908.356 215.989L823.489 166.989L774.489 251.857Z" fill="#E0E0E0"/>
<path d="M794.041 172.429C814.476 172.429 831.041 155.863 831.041 135.429C831.041 114.994 814.476 98.429 794.041 98.429C773.606 98.429 757.041 114.994 757.041 135.429C757.041 155.863 773.606 172.429 794.041 172.429Z" fill="#F2F2F2"/>
<path d="M778.498 137.111C785.125 137.111 790.498 131.739 790.498 125.111C790.498 118.484 785.125 113.111 778.498 113.111C771.871 113.111 766.498 118.484 766.498 125.111C766.498 131.739 771.871 137.111 778.498 137.111Z" fill="#3F3D56"/>
<path d="M861.91 193.084C873.232 193.084 882.41 185.921 882.41 177.084C882.41 168.247 873.232 161.084 861.91 161.084C850.588 161.084 841.41 168.247 841.41 177.084C841.41 185.921 850.588 193.084 861.91 193.084Z" fill="#38D39F"/>
</svg>
