<svg width="46" height="46" viewBox="0 0 46 46" fill="none" xmlns="http://www.w3.org/2000/svg">
<g clip-path="url(#clip0)">
<path d="M34.9027 0H11.0968C9.49089 0 8.18457 1.30642 8.18457 2.91229V43.0878C8.18457 44.6936 9.49099 46.0001 11.0969 46.0001H34.9027C36.5086 46.0001 37.815 44.6937 37.815 43.0878V2.91229C37.8149 1.30642 36.5086 0 34.9027 0ZM9.64393 7.31975H36.3556V37.7412H9.64393V7.31975ZM11.0968 1.45936H34.9027C35.7038 1.45936 36.3556 2.11111 36.3556 2.91229V6.34684H9.64393V2.91229C9.64393 2.11111 10.2957 1.45936 11.0968 1.45936ZM34.9027 44.5406H11.0968C10.2957 44.5406 9.64383 43.8889 9.64383 43.0877V38.714H36.3555V43.0877C36.3555 43.8889 35.7038 44.5406 34.9027 44.5406Z" fill="black"/>
<path d="M23.0002 39.359C21.6824 39.359 20.6104 40.4311 20.6104 41.7489C20.6104 43.0667 21.6825 44.1388 23.0002 44.1388C24.3179 44.1388 25.39 43.0667 25.39 41.7489C25.39 40.4312 24.318 39.359 23.0002 39.359ZM23.0002 43.1659C22.2189 43.1659 21.5833 42.5302 21.5833 41.7489C21.5833 40.9676 22.2189 40.3319 23.0002 40.3319C23.7815 40.3319 24.4171 40.9676 24.4171 41.7489C24.4171 42.5302 23.7815 43.1659 23.0002 43.1659Z" fill="black"/>
<path d="M19.6915 4.63538H26.3073C26.576 4.63538 26.7937 4.41755 26.7937 4.14893C26.7937 3.88031 26.576 3.66248 26.3073 3.66248H19.6915C19.4228 3.66248 19.2051 3.88031 19.2051 4.14893C19.2051 4.41755 19.4228 4.63538 19.6915 4.63538Z" fill="black"/>
<path d="M17.9406 4.63538C18.068 4.63538 18.1935 4.58382 18.284 4.49334C18.3745 4.40188 18.427 4.27735 18.427 4.14893C18.427 4.0205 18.3745 3.89597 18.284 3.80452C18.1934 3.71404 18.0679 3.66248 17.9406 3.66248C17.8121 3.66248 17.6875 3.71404 17.5961 3.80452C17.5057 3.895 17.4541 4.0205 17.4541 4.14893C17.4541 4.27735 17.5057 4.40188 17.5961 4.49334C17.6866 4.58382 17.8121 4.63538 17.9406 4.63538Z" fill="black"/>
</g>
<defs>
<clipPath id="clip0">
<rect width="46" height="46" fill="white"/>
</clipPath>
</defs>
</svg>
