<svg width="5198" height="900" viewBox="0 0 5198 900" fill="none" xmlns="http://www.w3.org/2000/svg">
<g clip-path="url(#clip0_201_2)">
<path d="M929.25 897.75C1011 897.75 1041 862.5 1041 776.25V608.25C1041 528 1080 482.25 1117.5 460.5C1128.75 453.75 1128.75 438 1117.5 430.5C1078.5 405.75 1041 354 1041 285V120C1041 27 1015.5 0 933.75 0H199.5C117.75 0 92.25 27 92.25 120V285C92.25 354 54.75 405.75 15.75 430.5C4.5 437.25 4.5 453.75 15.75 460.5C53.25 481.5 92.25 527.25 92.25 608.25V776.25C92.25 862.5 122.25 897.75 204 897.75H929.25ZM564.75 744C477 744 413.25 717.75 354 666C344.25 657 340.5 645.75 340.5 634.5C340.5 625.5 342.75 615.75 349.5 608.25L367.5 585C376.5 573.75 386.25 568.5 397.5 568.5C410.25 568.5 422.25 573.75 435 582C475.5 608.25 520.5 623.25 574.5 623.25C615.75 623.25 648.75 606 648.75 570.75C648.75 479.25 344.25 529.5 344.25 324C344.25 213.75 434.25 152.25 551.25 152.25C633.75 152.25 694.5 176.25 739.5 204.75C750.75 212.25 758.25 227.25 758.25 242.25C758.25 251.25 756 259.5 750.75 267L737.25 287.25C727.5 300.75 716.25 307.5 702 307.5C692.25 307.5 681.75 303.75 670.5 298.5C636.75 281.25 601.5 272.25 558.75 272.25C514.5 272.25 488.25 296.25 488.25 321C488.25 414.75 792.75 363.75 792.75 563.25C792.75 675 702.75 744 564.75 744V744Z" fill="#E0E0E0"/>
<path d="M1449 610.5C1456.5 600.75 1464.75 597 1474.5 597C1484.25 597 1496.25 601.5 1506 609C1539.75 631.5 1578 644.25 1623.75 644.25C1659 644.25 1686.75 630 1686.75 599.25C1686.75 522 1429.5 564 1429.5 391.5C1429.5 298.5 1506 246 1604.25 246C1674 246 1725 265.5 1763.25 291C1773 297 1779 309.75 1779 322.5C1779 330 1777.5 336.75 1773 344.25L1761 361.5C1752.75 373.5 1743 378.75 1731.75 378.75C1723.5 378.75 1714.5 375 1704.75 371.25C1676.25 357 1646.25 348.75 1611 348.75C1574.25 348.75 1551.75 368.25 1551.75 390C1551.75 468.75 1809 426 1809 594C1809 687.75 1732.5 746.25 1616.25 746.25C1542 746.25 1488 723.75 1438.5 681C1430.25 673.5 1426.5 663.75 1426.5 654C1426.5 646.5 1428 638.25 1434 631.5L1449 610.5V610.5ZM2185.5 660C2189.25 665.25 2190.75 672 2190.75 678C2190.75 691.5 2184.75 705.75 2172.75 711.75C2136.75 733.5 2100.75 743.25 2053.5 743.25C1946.25 743.25 1905.75 673.5 1905.75 551.25V164.25C1905.75 142.5 1923.75 124.5 1945.5 124.5H1988.25C2010 124.5 2028 142.5 2028 164.25V257.25H2142.75C2164.5 257.25 2182.5 275.25 2182.5 297V333C2182.5 354.75 2164.5 372.75 2142.75 372.75H2028V546.75C2028 598.5 2045.25 633 2085 633C2097.75 633 2109 631.5 2118.75 627.75C2128.5 624 2136 622.5 2142.75 622.5C2156.25 622.5 2166.75 628.5 2175.75 644.25L2185.5 660V660ZM2259.75 594C2259.75 489 2337 439.5 2433.75 439.5C2475.75 439.5 2517.75 453 2541 470.25V456C2541 386.25 2518.5 348.75 2452.5 348.75C2416.5 348.75 2393.25 354 2370.75 361.5C2364.75 363 2358 365.25 2352 365.25C2336.25 365.25 2323.5 357.75 2316 342.75L2310 330C2308.5 324.75 2305.5 319.5 2305.5 312.75C2305.5 299.25 2315.25 285 2328 279C2369.25 260.25 2416.5 247.5 2465.25 247.5C2606.25 247.5 2655 319.5 2655 445.5V696C2655 717.75 2637 735.75 2615.25 735.75H2587.5C2565.75 735.75 2547.75 717.75 2547.75 696V680.25C2522.25 716.25 2471.25 741 2406.75 741C2322 740.25 2259.75 686.25 2259.75 594ZM2541 544.5C2519.25 528.75 2492.25 521.25 2457.75 521.25C2417.25 521.25 2381.25 540 2381.25 580.5C2381.25 616.5 2410.5 636.75 2449.5 636.75C2500.5 636.75 2526.75 614.25 2541.75 594V544.5H2541ZM3049.5 660C3053.25 665.25 3054.75 672 3054.75 678C3054.75 691.5 3048.75 705.75 3036.75 711.75C3000.75 733.5 2964.75 743.25 2917.5 743.25C2810.25 743.25 2769.75 673.5 2769.75 551.25V164.25C2769.75 142.5 2787.75 124.5 2809.5 124.5H2852.25C2874 124.5 2892 142.5 2892 164.25V257.25H3006.75C3028.5 257.25 3046.5 275.25 3046.5 297V333C3046.5 354.75 3028.5 372.75 3006.75 372.75H2892V546.75C2892 598.5 2909.25 633 2949 633C2961.75 633 2973 631.5 2982.75 627.75C2992.5 624 3000 622.5 3006.75 622.5C3020.25 622.5 3030.75 628.5 3039.75 644.25L3049.5 660V660ZM3123.75 594C3123.75 489 3201 439.5 3297.75 439.5C3339.75 439.5 3381.75 453 3405 470.25V456C3405 386.25 3382.5 348.75 3316.5 348.75C3280.5 348.75 3257.25 354 3234.75 361.5C3228.75 363 3222 365.25 3216 365.25C3200.25 365.25 3187.5 357.75 3180 342.75L3174 330C3172.5 324.75 3169.5 319.5 3169.5 312.75C3169.5 299.25 3179.25 285 3192 279C3233.25 260.25 3280.5 247.5 3329.25 247.5C3470.25 247.5 3519 319.5 3519 445.5V696C3519 717.75 3501 735.75 3479.25 735.75H3451.5C3429.75 735.75 3411.75 717.75 3411.75 696V680.25C3386.25 716.25 3335.25 741 3270.75 741C3186.75 740.25 3123.75 686.25 3123.75 594ZM3405 544.5C3383.25 528.75 3356.25 521.25 3321.75 521.25C3281.25 521.25 3245.25 540 3245.25 580.5C3245.25 616.5 3274.5 636.75 3313.5 636.75C3364.5 636.75 3390.75 614.25 3405.75 594V544.5H3405ZM3766.5 309.75C3800.25 272.25 3856.5 249 3915 249C3987.75 249 4036.5 282 4053.75 325.5C4087.5 280.5 4140.75 249 4214.25 249C4301.25 249 4366.5 291.75 4366.5 423V694.5C4366.5 716.25 4348.5 734.25 4326.75 734.25H4284C4262.25 734.25 4244.25 716.25 4244.25 694.5V453.75C4244.25 394.5 4220.25 362.25 4162.5 362.25C4116.75 362.25 4080.75 384.75 4064.25 417C4064.25 424.5 4065 441 4065 452.25V693C4065 714.75 4047 732.75 4025.25 732.75H3982.5C3960.75 732.75 3942.75 714.75 3942.75 693V445.5C3942.75 395.25 3915 363 3864 363C3821.25 363 3786 381.75 3764.25 414V694.5C3764.25 716.25 3746.25 734.25 3724.5 734.25H3681.75C3660 734.25 3642 716.25 3642 694.5V296.25C3642 274.5 3660 256.5 3681.75 256.5H3724.5C3746.25 256.5 3764.25 274.5 3764.25 296.25V309.75H3766.5V309.75ZM4641.75 85.5C4641.75 134.25 4606.5 162 4572 162C4530.75 162 4495.5 134.25 4495.5 85.5C4495.5 42.75 4530.75 15 4572 15C4606.5 15 4641.75 42.75 4641.75 85.5ZM4590.75 257.25C4612.5 257.25 4630.5 275.25 4630.5 297V694.5C4630.5 716.25 4612.5 734.25 4590.75 734.25H4548C4526.25 734.25 4508.25 716.25 4508.25 694.5V296.25C4508.25 274.5 4526.25 256.5 4548 256.5H4590.75V257.25V257.25ZM5100.75 378.75C5072.25 365.25 5047.5 360 5016.75 360C4948.5 360 4884 411.75 4884 495C4884 579 4949.25 631.5 5021.25 631.5C5058.75 631.5 5085.75 621.75 5113.5 603.75C5121.75 598.5 5130.75 595.5 5139 595.5C5151.75 595.5 5163 600.75 5172 611.25L5190 633.75C5195.25 639 5197.5 647.25 5197.5 655.5C5197.5 668.25 5192.25 682.5 5183.25 689.25C5126.25 735 5076 745.5 5016.75 745.5C4859.25 745.5 4755 645.75 4755 495.75C4755 357 4856.25 246 5001.75 246C5065.5 246 5112 256.5 5158.5 282C5170.5 288 5177.25 303.75 5177.25 317.25C5177.25 323.25 5176.5 329.25 5172.75 334.5L5157 362.25C5148.75 375.75 5135.25 384.75 5121 384.75C5115 383.25 5107.5 382.5 5100.75 378.75V378.75Z" fill="#E0E0E0"/>
</g>
<defs>
<clipPath id="clip0_201_2">
<rect width="5197.5" height="900" fill="white"/>
</clipPath>
</defs>
</svg>
