<svg width="7146" height="900" viewBox="0 0 7146 900" fill="none" xmlns="http://www.w3.org/2000/svg">
<path d="M736.364 0C540 0 417.273 98.1818 368.182 294.545C441.818 196.364 527.727 159.545 625.909 184.091C681.927 198.109 721.964 238.745 766.282 283.718C838.473 357 922.036 441.818 1104.55 441.818C1300.91 441.818 1423.64 343.636 1472.73 147.273C1399.09 245.455 1313.18 282.273 1215 257.727C1158.98 243.709 1118.95 203.073 1074.63 158.1C1002.44 84.8182 918.873 0 736.364 0ZM368.182 441.818C171.818 441.818 49.0909 540 0 736.364C73.6364 638.182 159.545 601.364 257.727 625.909C313.745 639.927 353.782 680.564 398.1 725.536C470.291 798.818 553.855 883.636 736.364 883.636C932.727 883.636 1055.45 785.455 1104.55 589.091C1030.91 687.273 945 724.091 846.818 699.546C790.8 685.527 750.764 644.891 706.445 599.918C634.255 526.636 550.691 441.818 368.182 441.818Z" fill="#E0E0E0"/>
<path d="M2208.98 372.327H2080.47V621.054C2080.47 687.382 2124 686.345 2208.98 682.2V782.727C2036.94 803.454 1968.54 755.782 1968.54 621.054V372.327H1873.2V264.545H1968.54V125.345L2080.47 92.1816V264.545H2208.98V372.327ZM2698.85 264.545H2810.78V782.727H2698.85V708.109C2659.47 763.036 2598.33 796.2 2517.49 796.2C2376.54 796.2 2259.44 677.018 2259.44 523.636C2259.44 369.218 2376.54 251.073 2517.49 251.073C2598.33 251.073 2659.47 284.236 2698.85 338.127V264.545V264.545ZM2535.11 689.454C2628.38 689.454 2698.85 620.018 2698.85 523.636C2698.85 427.254 2628.38 357.818 2535.11 357.818C2441.84 357.818 2371.36 427.254 2371.36 523.636C2371.36 620.018 2441.84 689.454 2535.11 689.454ZM2997.33 186.818C2957.94 186.818 2925.82 153.654 2925.82 115.309C2925.85 96.3546 2933.4 78.1869 2946.8 64.7842C2960.2 51.3814 2978.37 43.8359 2997.33 43.7999C3016.28 43.8359 3034.45 51.3814 3047.85 64.7842C3061.25 78.1869 3068.8 96.3546 3068.84 115.309C3068.84 153.654 3036.71 186.818 2997.33 186.818ZM2941.36 782.727V264.545H3053.29V782.727H2941.36ZM3182.84 782.727V26.1816H3294.76V782.727H3182.84ZM4021.25 264.545H4139.4L3976.69 782.727H3866.84L3759.05 433.473L3650.24 782.727H3540.38L3377.67 264.545H3495.82L3596.34 622.091L3705.16 264.545H3811.91L3919.69 622.091L4021.25 264.545V264.545ZM4278.27 186.818C4238.89 186.818 4206.76 153.654 4206.76 115.309C4206.8 96.3546 4214.34 78.1869 4227.75 64.7842C4241.15 51.3814 4259.32 43.8359 4278.27 43.7999C4297.23 43.8359 4315.39 51.3814 4328.8 64.7842C4342.2 78.1869 4349.75 96.3546 4349.78 115.309C4349.78 153.654 4317.65 186.818 4278.27 186.818ZM4222.31 782.727V264.545H4334.24V782.727H4222.31ZM4736.34 251.073C4852.42 251.073 4935.33 329.836 4935.33 464.563V782.727H4823.4V475.963C4823.4 397.2 4777.8 355.745 4707.33 355.745C4633.74 355.745 4575.71 399.273 4575.71 504.982V782.727H4463.78V264.545H4575.71V330.873C4609.91 276.982 4665.87 251.073 4736.34 251.073V251.073ZM5465.95 57.2726H5577.87V782.727H5465.95V708.109C5426.56 763.036 5365.42 796.2 5284.58 796.2C5143.64 796.2 5026.53 677.018 5026.53 523.636C5026.53 369.218 5143.64 251.073 5284.58 251.073C5365.42 251.073 5426.56 284.236 5465.95 338.127V57.2726ZM5302.2 689.454C5395.47 689.454 5465.95 620.018 5465.95 523.636C5465.95 427.254 5395.47 357.818 5302.2 357.818C5208.93 357.818 5138.45 427.254 5138.45 523.636C5138.45 620.018 5208.93 689.454 5302.2 689.454ZM5953.04 796.2C5796.54 796.2 5679.44 677.018 5679.44 523.636C5679.44 369.218 5796.54 251.073 5953.04 251.073C6054.6 251.073 6142.69 303.927 6184.14 384.763L6087.76 440.727C6064.96 392.018 6014.18 360.927 5952 360.927C5860.8 360.927 5791.36 430.363 5791.36 523.636C5791.36 616.909 5860.8 686.345 5952 686.345C6014.18 686.345 6064.96 654.218 6089.84 606.545L6186.22 661.473C6142.69 743.345 6054.6 796.2 5953.04 796.2V796.2ZM6370.69 407.563C6370.69 501.873 6649.47 444.873 6649.47 636.6C6649.47 740.236 6559.31 796.2 6447.38 796.2C6343.74 796.2 6269.13 749.563 6235.96 674.945L6332.35 618.982C6348.93 665.618 6390.38 693.6 6447.38 693.6C6497.13 693.6 6535.47 677.018 6535.47 635.563C6535.47 543.327 6256.69 595.145 6256.69 409.636C6256.69 312.218 6340.64 251.073 6446.34 251.073C6531.33 251.073 6601.8 290.454 6638.07 358.854L6543.76 411.709C6525.11 371.291 6488.84 352.636 6446.34 352.636C6405.93 352.636 6370.69 370.254 6370.69 407.563V407.563ZM6848.45 407.563C6848.45 501.873 7127.24 444.873 7127.24 636.6C7127.24 740.236 7037.07 796.2 6925.14 796.2C6821.51 796.2 6746.89 749.563 6713.73 674.945L6810.11 618.982C6826.69 665.618 6868.14 693.6 6925.14 693.6C6974.89 693.6 7013.24 677.018 7013.24 635.563C7013.24 543.327 6734.45 595.145 6734.45 409.636C6734.45 312.218 6818.4 251.073 6924.11 251.073C7009.09 251.073 7079.56 290.454 7115.84 358.854L7021.53 411.709C7002.87 371.291 6966.6 352.636 6924.11 352.636C6883.69 352.636 6848.45 370.254 6848.45 407.563V407.563Z" fill="#E0E0E0"/>
</svg>
