<svg width="2807" height="926" viewBox="0 0 2807 926" fill="none" xmlns="http://www.w3.org/2000/svg">
<path d="M633.321 34L514.503 239.802L395.684 34H0L514.503 925.155L1029.01 34H633.321Z" fill="#E0E0E0"/>
<path d="M633.321 34L514.502 239.8L395.684 34H205.8L514.502 568.683L823.205 34H633.321Z" fill="#DAD9D9"/>
<path d="M1176.2 135.262C1176.2 129.187 1179.23 124.125 1185.31 120.075C1191.38 116.025 1197.96 114 1205.05 114C1216.19 114 1222.77 118.303 1224.79 126.909L1365.27 593.147L1504.99 126.909C1508.03 118.303 1514.36 114 1523.98 114C1531.06 114 1537.9 116.278 1544.48 120.834C1551.06 124.884 1554.35 129.946 1554.35 136.021C1554.35 136.527 1554.1 137.287 1553.59 138.299C1553.59 139.312 1553.59 140.071 1553.59 140.577L1395.65 655.414C1392.1 667.563 1381.98 673.638 1365.27 673.638C1349.07 673.638 1339.2 667.563 1335.66 655.414L1176.96 140.577C1176.45 139.565 1176.2 137.793 1176.2 135.262ZM1584.72 531.64V328.895C1584.72 324.339 1587 320.036 1591.56 315.986C1596.62 311.936 1602.7 309.911 1609.78 309.911C1615.86 309.911 1621.43 311.936 1626.49 315.986C1631.55 320.036 1634.08 324.339 1634.08 328.895V531.64C1634.08 556.952 1643.45 579.479 1662.18 599.222C1680.91 618.965 1703.18 628.836 1729 628.836C1754.82 628.836 1777.09 618.965 1795.82 599.222C1814.55 579.479 1823.92 556.952 1823.92 531.64V328.136C1823.92 323.073 1826.45 318.77 1831.51 315.227C1836.57 311.683 1842.4 309.911 1848.98 309.911C1855.56 309.911 1861.13 311.683 1865.68 315.227C1870.75 318.77 1873.28 323.073 1873.28 328.136V531.64C1873.28 569.607 1858.85 603.019 1829.99 631.874C1801.64 660.223 1767.98 674.397 1729 674.397C1689.51 674.397 1655.6 660.223 1627.25 631.874C1598.9 603.019 1584.72 569.607 1584.72 531.64ZM1951.55 530.122V445.075C1951.55 407.107 1965.73 374.456 1994.08 347.119C2022.42 319.276 2056.59 305.355 2096.59 305.355C2135.06 305.355 2168.22 318.517 2196.06 344.841C2224.41 371.165 2238.59 404.07 2238.59 443.556C2238.59 457.731 2236.81 469.121 2233.27 477.727C2230.23 486.333 2224.92 492.407 2217.32 495.951C2210.24 499.495 2203.66 501.773 2197.58 502.785C2191.51 503.798 2183.15 504.304 2172.52 504.304H2000.91V532.4C2000.91 562.267 2011.54 586.313 2032.8 604.537C2054.57 622.255 2082.41 631.114 2116.33 631.114C2133.54 631.114 2148.48 628.583 2161.13 623.521C2174.29 618.459 2184.17 613.396 2190.75 608.334C2197.83 603.272 2203.4 600.741 2207.45 600.741C2213.02 600.741 2217.83 603.525 2221.88 609.093C2226.44 614.156 2228.71 619.218 2228.71 624.28C2228.71 634.911 2217.83 646.048 2196.06 657.692C2174.29 668.829 2147.21 674.397 2114.81 674.397C2066.72 674.397 2027.49 661.235 1997.11 634.911C1966.74 608.081 1951.55 573.151 1951.55 530.122ZM2000.91 467.855H2152.78C2167.97 467.855 2178.09 466.336 2183.15 463.299C2188.21 459.755 2190.75 452.668 2190.75 442.037C2190.75 416.726 2181.63 394.452 2163.41 375.215C2145.69 355.978 2123.16 346.36 2095.83 346.36C2069.5 346.36 2046.98 355.472 2028.25 373.696C2010.02 391.921 2000.91 413.689 2000.91 439V467.855ZM2295.56 638.708C2295.56 628.583 2298.85 620.231 2305.43 613.65C2312.01 606.562 2320.36 603.019 2330.49 603.019C2339.6 603.019 2347.45 606.562 2354.03 613.65C2361.11 620.737 2364.66 629.09 2364.66 638.708C2364.66 647.82 2361.11 655.92 2354.03 663.007C2347.45 670.094 2339.6 673.638 2330.49 673.638C2320.36 673.638 2312.01 670.347 2305.43 663.766C2298.85 656.679 2295.56 648.326 2295.56 638.708ZM2366.85 823.229C2366.85 816.648 2368.88 811.079 2372.93 806.523C2376.98 802.474 2382.04 800.449 2388.11 800.449C2410.39 800.449 2425.07 792.096 2432.16 775.39C2439.24 759.191 2442.79 734.639 2442.79 701.734V328.136C2442.79 322.567 2445.06 318.264 2449.62 315.227C2454.18 311.683 2460 309.911 2467.08 309.911C2474.17 309.911 2479.99 311.683 2484.55 315.227C2489.61 318.77 2492.14 323.073 2492.14 328.136V701.734C2492.14 797.411 2458.73 845.25 2391.91 845.25C2383.3 845.25 2376.98 842.972 2372.93 838.416C2368.88 834.366 2366.85 829.304 2366.85 823.229ZM2442.79 194.491C2436.2 187.91 2432.91 180.316 2432.91 171.71C2432.91 163.104 2436.2 155.764 2442.79 149.689C2449.37 143.614 2457.47 140.577 2467.08 140.577C2476.2 140.577 2483.79 143.614 2489.87 149.689C2496.45 155.764 2499.74 163.104 2499.74 171.71C2499.74 180.316 2496.45 187.91 2489.87 194.491C2483.79 200.565 2476.2 203.603 2467.08 203.603C2457.47 203.603 2449.37 200.565 2442.79 194.491ZM2565.36 619.724C2565.36 614.662 2567.13 609.6 2570.67 604.537C2574.22 599.475 2578.27 596.944 2582.82 596.944C2586.37 596.944 2591.93 599.981 2599.53 606.056C2607.12 611.625 2618 617.446 2632.18 623.521C2646.35 629.596 2663.31 632.633 2683.06 632.633C2709.89 632.633 2729.63 627.571 2742.28 617.446C2754.94 607.322 2761.27 594.413 2761.27 578.72C2761.27 560.495 2754.69 546.068 2741.53 535.437C2728.87 524.3 2713.43 516.2 2695.2 511.138C2676.98 506.076 2658.5 500.507 2639.77 494.432C2621.55 488.357 2605.86 478.486 2592.69 464.818C2580.04 450.643 2573.71 431.913 2573.71 408.626C2573.71 380.783 2583.58 356.738 2603.32 336.488C2623.57 315.733 2653.69 305.355 2693.69 305.355C2718.49 305.355 2741.52 309.405 2762.79 317.505C2784.55 325.098 2795.44 333.451 2795.44 342.563C2795.44 347.625 2793.41 353.194 2789.36 359.269C2785.31 365.343 2780.5 368.381 2774.94 368.381C2773.42 368.381 2764.05 364.837 2746.84 357.75C2729.63 350.663 2712.16 347.119 2694.45 347.119C2669.13 347.119 2650.15 353.194 2637.49 365.343C2624.84 377.493 2618.51 391.161 2618.51 406.348C2618.51 422.041 2624.84 434.444 2637.49 443.556C2650.66 452.668 2666.35 459.755 2684.57 464.818C2703.3 469.374 2721.78 474.942 2740.01 481.523C2758.74 487.598 2774.43 498.735 2787.09 514.935C2800.25 530.628 2806.83 551.13 2806.83 576.442C2806.83 606.815 2795.94 630.861 2774.18 648.579C2752.92 665.791 2723.05 674.397 2684.57 674.397C2651.16 674.397 2622.81 668.576 2599.53 656.932C2576.75 644.783 2565.36 632.38 2565.36 619.724Z" fill="#E0E0E0"/>
</svg>
