<svg id="WordPress" xmlns="http://www.w3.org/2000/svg" viewBox="0 0 4377.15 892.64"><defs><style>.cls-1{fill:#e0e0e0;}</style></defs><g id="Logotype"><g id="Wordmark"><path class="cls-1" d="M2490.28,335.25H2312.74v18.83c55.54,0,64.47,11.9,64.47,82.33v127c0,70.41-8.93,83.31-64.47,83.31-42.63-5.95-71.4-28.77-111.08-72.4l-45.61-49.59c61.48-10.91,94.21-49.59,94.21-93.24,0-54.54-46.61-96.19-133.89-96.19H1941.82v18.83c55.53,0,64.46,11.9,64.46,82.33v127c0,70.41-8.93,83.31-64.46,83.31v18.84h197.36V646.67c-55.53,0-64.46-12.9-64.46-83.31v-35.7h16.86l110.08,137.85h288.62c141.83,0,203.32-75.37,203.32-165.64S2632.11,335.25,2490.28,335.25ZM2074.72,496.9V365h40.66c44.63,0,64.47,30.74,64.47,66.44,0,34.72-19.84,65.46-64.47,65.46Zm418.53,137.87h-6.94c-35.7,0-40.66-8.93-40.66-54.55V365h47.6c103.15,0,122,75.37,122,133.89C2615.24,559.39,2596.4,634.77,2493.25,634.77Z" transform="translate(-1.85 -3.97)"/><path class="cls-1" d="M1389.4,533.61l68.44-202.35c19.84-58.51,10.91-75.36-52.56-75.36V236.05h186.46V255.9c-62.49,0-77.36,14.87-102.16,87.28L1376.51,682.37h-12.89L1262.45,371.93,1159.31,682.37h-12.9L1036.33,343.18c-23.81-72.41-39.68-87.28-97.2-87.28V236.05h220.18V255.9c-58.52,0-74.39,13.88-53.56,75.36l66.44,202.35,100.18-297.56h18.85Z" transform="translate(-1.85 -3.97)"/><path class="cls-1" d="M1726.6,678.4c-109.09,0-198.36-80.33-198.36-178.53,0-97.19,89.27-177.53,198.36-177.53S1925,402.68,1925,499.87C1925,598.07,1835.7,678.4,1726.6,678.4Zm0-325.3c-91.24,0-123,82.31-123,146.77,0,65.47,31.75,146.8,123,146.8,92.24,0,124-81.33,124-146.8C1850.58,435.41,1818.84,353.1,1726.6,353.1Z" transform="translate(-1.85 -3.97)"/><path class="cls-1" d="M2938.56,645.68v19.83H2711.44V645.68c66.45,0,78.35-16.86,78.35-116V371c0-99.19-11.9-115-78.35-115V236.05h205.29c102.16,0,158.7,52.58,158.7,123,0,68.43-56.54,122-158.7,122H2860.2v48.59C2860.2,628.82,2872.1,645.68,2938.56,645.68Zm-21.83-373.92H2860.2V444.34h56.53c55.55,0,81.33-38.68,81.33-85.29C2998.06,311.44,2972.28,271.76,2916.73,271.76Z" transform="translate(-1.85 -3.97)"/><path class="cls-1" d="M3756.78,572.29l-5,17.85c-8.92,32.73-19.84,44.63-90.25,44.63h-13.89c-51.57,0-60.5-11.9-60.5-82.33V506.83c77.36,0,83.31,6.94,83.31,58.51h18.85V417.56h-18.85c0,51.58-5.95,58.51-83.31,58.51V365h54.54c70.43,0,81.33,11.9,90.26,44.63l5,18.84h15.86l-6.94-93.22H3454.28v18.83c55.54,0,64.46,11.9,64.46,82.33v127c0,64.42-7.59,80.64-51.37,83-41.62-6.35-70.19-29.06-109.28-72.05l-45.63-49.59c61.5-10.91,94.23-49.59,94.23-93.24,0-54.54-46.61-96.19-133.89-96.19H3098.24v18.83c55.53,0,64.46,11.9,64.46,82.33v127c0,70.41-8.93,83.31-64.46,83.31v18.84H3295.6V646.67c-55.53,0-64.46-12.9-64.46-83.31v-35.7H3248l110.09,137.85H3765.7l6-93.22ZM3231.14,496.9V365h40.66c44.63,0,64.47,30.74,64.47,66.44,0,34.72-19.84,65.46-64.47,65.46Z" transform="translate(-1.85 -3.97)"/><path class="cls-1" d="M3958.11,678.4c-39.67,0-74.39-20.82-89.27-33.72-5,5-13.88,19.84-15.86,33.72h-18.84V541.54H3854c7.94,65.46,53.55,104.14,112.07,104.14,31.74,0,57.53-17.86,57.53-47.61,0-25.78-22.82-45.63-63.48-64.46l-56.53-26.78c-39.67-18.86-69.42-51.59-69.42-95.22,0-47.6,44.63-88.26,106.12-88.26,32.73,0,60.49,11.9,77.36,25.78,5-4,9.91-14.89,12.9-26.79h18.83v117h-20.82c-7-46.62-32.73-85.3-85.29-85.3-27.78,0-53.57,15.88-53.57,40.67,0,25.79,20.83,39.67,68.44,61.49L4012.65,483c47.62,22.8,66.46,59.51,66.46,89.27C4079.11,634.77,4024.56,678.4,3958.11,678.4Z" transform="translate(-1.85 -3.97)"/><path class="cls-1" d="M4258,678.4c-39.68,0-74.4-20.82-89.27-33.72-5,5-13.88,19.84-15.86,33.72H4134V541.54h19.83c7.94,65.46,53.56,104.14,112.08,104.14,31.73,0,57.53-17.86,57.53-47.61,0-25.78-22.82-45.63-63.48-64.46l-56.53-26.78C4163.78,488,4134,455.24,4134,411.61c0-47.6,44.63-88.26,106.13-88.26,32.73,0,60.49,11.9,77.35,25.78,5-4,9.91-14.89,12.89-26.79h18.85v117h-20.83c-6.95-46.62-32.73-85.3-85.29-85.3-27.77,0-53.57,15.88-53.57,40.67,0,25.79,20.83,39.67,68.45,61.49L4312.55,483c47.61,22.8,66.45,59.51,66.45,89.27C4379,634.77,4324.45,678.4,4258,678.4Z" transform="translate(-1.85 -3.97)"/></g><g id="W_Mark" data-name="W Mark"><path class="cls-1" d="M448.17,30.75a417.52,417.52,0,0,1,234.55,71.63A420.95,420.95,0,0,1,834.76,287a419,419,0,0,1-38.68,397.85,421,421,0,0,1-184.61,152,419,419,0,0,1-397.85-38.68,420.85,420.85,0,0,1-152-184.61,418.9,418.9,0,0,1,38.68-397.84,420.63,420.63,0,0,1,184.61-152,416.83,416.83,0,0,1,163.29-33m0-26.78C201.68,4,1.85,203.79,1.85,450.29S201.68,896.61,448.17,896.61,894.49,696.78,894.49,450.29,694.67,4,448.17,4Z" transform="translate(-1.85 -3.97)"/><path class="cls-1" d="M76.24,450.27c0,147.22,85.55,274.45,209.63,334.73L108.45,298.91A370.43,370.43,0,0,0,76.24,450.27Zm623-18.75c0-46-16.52-77.81-30.66-102.57-18.86-30.66-36.54-56.59-36.54-87.24,0-34.18,25.93-66,62.46-66,1.65,0,3.21.2,4.82.31A370.53,370.53,0,0,0,448.17,78.36C318.23,78.36,203.92,145,137.41,246c8.74.28,17,.45,23.94.45,38.89,0,99.13-4.73,99.13-4.73,20-1.17,22.41,28.28,2.38,30.65,0,0-20.16,2.36-42.57,3.54L355.73,678.77l81.4-244.11L379.19,275.9c-20-1.18-39-3.54-39-3.54-20.05-1.18-17.7-31.82,2.36-30.65,0,0,61.41,4.73,97.95,4.73,38.9,0,99.14-4.73,99.14-4.73,20-1.17,22.41,28.28,2.37,30.65,0,0-20.17,2.36-42.56,3.54L633.85,675.7l38.37-121.58C689.27,501,699.26,463.34,699.26,431.52ZM454.71,482.81,343.1,807.07a372.11,372.11,0,0,0,228.59-5.94A34.84,34.84,0,0,1,569,796Zm319.85-211a286.71,286.71,0,0,1,2.5,38.24c0,37.73-7.07,80.16-28.29,133.21L635.17,771.75c110.58-64.47,184.94-184.26,184.94-321.48A370.21,370.21,0,0,0,774.56,271.85Z" transform="translate(-1.85 -3.97)"/></g></g></svg>